<ttFont>
<head>
    <!-- Most of this table will be recalculated by the compiler -->
    <tableVersion value="1.0"/>
    <fontRevision value="2.202"/>
    <checkSumAdjustment value="0x4f124471"/>
    <magicNumber value="0x5f0f3cf5"/>
    <flags value="00000000 00011011"/>
    <unitsPerEm value="1000"/>
    <created value="Sat Jan 23 04:30:40 2016"/>
    <modified value="Thu Mar 10 20:56:38 2016"/>
    <xMin value="-82"/>
    <yMin value="-245"/>
    <xMax value="921"/>
    <yMax value="1036"/>
    <macStyle value="00000000 00000000"/>
    <lowestRecPPEM value="5"/>
    <fontDirectionHint value="2"/>
    <indexToLocFormat value="0"/>
    <glyphDataFormat value="0"/>
  </head>
    <TTGlyph name=".notdef" xMin="0" yMin="-200" xMax="500" yMax="800">
      <contour>
        <pt x="0" y="800" on="1"/>
        <pt x="500" y="800" on="1"/>
        <pt x="500" y="-200" on="1"/>
        <pt x="0" y="-200" on="1"/>
      </contour>
      <contour>
        <pt x="250" y="360" on="1"/>
        <pt x="429" y="750" on="1"/>
        <pt x="71" y="750" on="1"/>
      </contour>
      <contour>
        <pt x="222" y="300" on="1"/>
        <pt x="50" y="676" on="1"/>
        <pt x="50" y="-76" on="1"/>
      </contour>
      <contour>
        <pt x="278" y="300" on="1"/>
        <pt x="450" y="-76" on="1"/>
        <pt x="450" y="676" on="1"/>
      </contour>
      <contour>
        <pt x="71" y="-150" on="1"/>
        <pt x="429" y="-150" on="1"/>
        <pt x="250" y="240" on="1"/>
      </contour>
    </TTGlyph>
    <TTGlyph name="A" xMin="45" yMin="-6" xMax="583" yMax="729">
      <contour>
        <pt x="286" y="729" on="1"/>
        <pt x="343" y="729" on="1"/>
        <pt x="583" y="6" on="1"/>
        <pt x="532" y="-6" on="1"/>
        <pt x="450" y="247" on="1"/>
        <pt x="179" y="247" on="1"/>
        <pt x="99" y="0" on="1"/>
        <pt x="45" y="0" on="1"/>
      </contour>
      <contour>
        <pt x="193" y="293" on="1"/>
        <pt x="435" y="293" on="1"/>
        <pt x="314" y="663" on="1"/>
      </contour>
    </TTGlyph>
    <TTGlyph name="A.flat" xMin="45" yMin="0" xMax="585" yMax="729">
      <contour>
        <pt x="286" y="729" on="1"/>
        <pt x="343" y="729" on="1"/>
        <pt x="585" y="0" on="1"/>
        <pt x="530" y="0" on="1"/>
        <pt x="449" y="247" on="1"/>
        <pt x="179" y="247" on="1"/>
        <pt x="99" y="0" on="1"/>
        <pt x="45" y="0" on="1"/>
      </contour>
      <contour>
        <pt x="193" y="293" on="1"/>
        <pt x="435" y="293" on="1"/>
        <pt x="314" y="663" on="1"/>
      </contour>
    </TTGlyph>
    <TTGlyph name="AE" xMin="28" yMin="0" xMax="773" yMax="725">
      <contour>
        <pt x="399" y="725" on="1"/>
        <pt x="763" y="725" on="1"/>
        <pt x="763" y="678" on="1"/>
        <pt x="484" y="678" on="1"/>
        <pt x="484" y="404" on="1"/>
        <pt x="707" y="404" on="1"/>
        <pt x="714" y="356" on="1"/>
        <pt x="484" y="356" on="1"/>
        <pt x="484" y="47" on="1"/>
        <pt x="773" y="47" on="1"/>
        <pt x="773" y="0" on="1"/>
        <pt x="432" y="0" on="1"/>
        <pt x="432" y="247" on="1"/>
        <pt x="208" y="247" on="1"/>
        <pt x="82" y="0" on="1"/>
        <pt x="28" y="0" on="1"/>
      </contour>
      <contour>
        <pt x="432" y="293" on="1"/>
        <pt x="432" y="688" on="1"/>
        <pt x="231" y="293" on="1"/>
      </contour>
    </TTGlyph>
    <TTGlyph name="AE.flat" xMin="28" yMin="0" xMax="773" yMax="725">
      <contour>
        <pt x="399" y="725" on="1"/>
        <pt x="763" y="725" on="1"/>
        <pt x="763" y="678" on="1"/>
        <pt x="484" y="678" on="1"/>
        <pt x="484" y="404" on="1"/>
        <pt x="710" y="404" on="1"/>
        <pt x="710" y="356" on="1"/>
        <pt x="484" y="356" on="1"/>
        <pt x="484" y="47" on="1"/>
        <pt x="773" y="47" on="1"/>
        <pt x="773" y="0" on="1"/>
        <pt x="432" y="0" on="1"/>
        <pt x="432" y="247" on="1"/>
        <pt x="208" y="247" on="1"/>
        <pt x="82" y="0" on="1"/>
        <pt x="28" y="0" on="1"/>
      </contour>
      <contour>
        <pt x="432" y="293" on="1"/>
        <pt x="432" y="688" on="1"/>
        <pt x="231" y="293" on="1"/>
      </contour>
    </TTGlyph>
    <TTGlyph name="AEacute" xMin="28" yMin="0" xMax="773" yMax="926">
      <component glyphName="acute.cap" x="327" y="215" flags="0x4"/>
      <component glyphName="AE" x="0" y="0" flags="0x4"/>
    </TTGlyph>
    <TTGlyph name="AEacute.flat" xMin="28" yMin="0" xMax="773" yMax="926">
      <component glyphName="acute.cap" x="327" y="215" flags="0x4"/>
      <component glyphName="AE.flat" x="0" y="0" flags="0x4"/>
    </TTGlyph>
    <TTGlyph name="Aacute" xMin="45" yMin="-6" xMax="583" yMax="936">
      <component glyphName="A" x="0" y="0" flags="0x204"/>
      <component glyphName="acute.cap" x="147" y="225" flags="0x4"/>
    </TTGlyph>
    <TTGlyph name="Aacute.flat" xMin="45" yMin="0" xMax="585" yMax="936">
      <component glyphName="acute.cap" x="147" y="225" flags="0x4"/>
      <component glyphName="A.flat" x="0" y="0" flags="0x4"/>
    </TTGlyph>
    <TTGlyph name="Abreve" xMin="45" yMin="-6" xMax="583" yMax="911">
      <component glyphName="A" x="0" y="0" flags="0x204"/>
      <component glyphName="breve.cap" x="93" y="225" flags="0x4"/>
    </TTGlyph>
    <TTGlyph name="Abreve.flat" xMin="45" yMin="0" xMax="585" yMax="911">
      <component glyphName="breve.cap" x="94" y="225" flags="0x4"/>
      <component glyphName="A.flat" x="0" y="0" flags="0x4"/>
    </TTGlyph>
    <TTGlyph name="Acircumflex" xMin="45" yMin="-6" xMax="583" yMax="924">
      <component glyphName="A" x="0" y="0" flags="0x204"/>
      <component glyphName="circumflex.cap" x="93" y="215" flags="0x4"/>
    </TTGlyph>
    <TTGlyph name="Acircumflex.flat" xMin="45" yMin="0" xMax="585" yMax="924">
      <component glyphName="A.flat" x="0" y="0" flags="0x204"/>
      <component glyphName="circumflex.cap" x="93" y="215" flags="0x4"/>
    </TTGlyph>
    <TTGlyph name="Adieresis" xMin="45" yMin="-6" xMax="583" yMax="879">
      <component glyphName="A" x="0" y="0" flags="0x204"/>
      <component glyphName="dieresis.cap" x="93" y="225" flags="0x4"/>
    </TTGlyph>
    <TTGlyph name="Adieresis.flat" xMin="45" yMin="0" xMax="585" yMax="879">
      <component glyphName="dieresis.cap" x="93" y="225" flags="0x4"/>
      <component glyphName="A.flat" x="0" y="0" flags="0x4"/>
    </TTGlyph>
    <TTGlyph name="Agrave" xMin="45" yMin="-6" xMax="583" yMax="936">
      <component glyphName="A" x="0" y="0" flags="0x204"/>
      <component glyphName="grave.cap" x="36" y="225" flags="0x4"/>
    </TTGlyph>
    <TTGlyph name="Agrave.flat" xMin="45" yMin="0" xMax="585" yMax="936">
      <component glyphName="grave.cap" x="36" y="225" flags="0x4"/>
      <component glyphName="A.flat" x="0" y="0" flags="0x4"/>
    </TTGlyph>
    <TTGlyph name="Amacron" xMin="45" yMin="-6" xMax="583" yMax="866">
      <component glyphName="A" x="0" y="0" flags="0x204"/>
      <component glyphName="macron.cap" x="93" y="225" flags="0x4"/>
    </TTGlyph>
    <TTGlyph name="Amacron.flat" xMin="45" yMin="0" xMax="585" yMax="866">
      <component glyphName="macron.cap" x="94" y="225" flags="0x4"/>
      <component glyphName="A.flat" x="0" y="0" flags="0x4"/>
    </TTGlyph>
    <TTGlyph name="Aogonek" xMin="45" yMin="-171" xMax="603" yMax="729">
      <contour>
        <pt x="286" y="729" on="1"/>
        <pt x="343" y="729" on="1"/>
        <pt x="583" y="6" on="1"/>
        <pt x="570" y="3" on="1"/>
        <pt x="552" y="-24" on="1"/>
        <pt x="535" y="-50" on="0"/>
        <pt x="519" y="-82" on="0"/>
        <pt x="519" y="-99" on="1"/>
        <pt x="519" y="-134" on="0"/>
        <pt x="557" y="-134" on="1"/>
        <pt x="568" y="-134" on="0"/>
        <pt x="590" y="-129" on="0"/>
        <pt x="601" y="-126" on="1"/>
        <pt x="603" y="-160" on="1"/>
        <pt x="576" y="-171" on="0"/>
        <pt x="545" y="-171" on="1"/>
        <pt x="510" y="-171" on="0"/>
        <pt x="473" y="-138" on="0"/>
        <pt x="473" y="-109" on="1"/>
        <pt x="473" y="-98" on="0"/>
        <pt x="479" y="-76" on="0"/>
        <pt x="492" y="-50" on="0"/>
        <pt x="513" y="-18" on="0"/>
        <pt x="529" y="3" on="1"/>
        <pt x="450" y="247" on="1"/>
        <pt x="179" y="247" on="1"/>
        <pt x="99" y="0" on="1"/>
        <pt x="45" y="0" on="1"/>
      </contour>
      <contour>
        <pt x="193" y="293" on="1"/>
        <pt x="435" y="293" on="1"/>
        <pt x="314" y="663" on="1"/>
      </contour>
    </TTGlyph>
    <TTGlyph name="Aogonek.flat" xMin="45" yMin="-171" xMax="605" yMax="729">
      <contour>
        <pt x="605" y="-160" on="1"/>
        <pt x="578" y="-171" on="0"/>
        <pt x="547" y="-171" on="1"/>
        <pt x="512" y="-171" on="0"/>
        <pt x="475" y="-138" on="0"/>
        <pt x="475" y="-109" on="1"/>
        <pt x="475" y="-86" on="0"/>
        <pt x="501" y="-37" on="0"/>
        <pt x="530" y="1" on="1"/>
        <pt x="449" y="247" on="1"/>
        <pt x="179" y="247" on="1"/>
        <pt x="99" y="0" on="1"/>
        <pt x="45" y="0" on="1"/>
        <pt x="286" y="729" on="1"/>
        <pt x="343" y="729" on="1"/>
        <pt x="585" y="0" on="1"/>
        <pt x="570" y="0" on="1"/>
        <pt x="554" y="-24" on="1"/>
        <pt x="537" y="-50" on="0"/>
        <pt x="521" y="-82" on="0"/>
        <pt x="521" y="-99" on="1"/>
        <pt x="521" y="-134" on="0"/>
        <pt x="559" y="-134" on="1"/>
        <pt x="570" y="-134" on="0"/>
        <pt x="592" y="-129" on="0"/>
        <pt x="603" y="-126" on="1"/>
      </contour>
      <contour>
        <pt x="193" y="293" on="1"/>
        <pt x="435" y="293" on="1"/>
        <pt x="314" y="663" on="1"/>
      </contour>
    </TTGlyph>
    <TTGlyph name="Aring" xMin="45" yMin="-6" xMax="583" yMax="863">
      <contour>
        <pt x="407" y="770" on="1"/>
        <pt x="407" y="742" on="0"/>
        <pt x="380" y="698" on="0"/>
        <pt x="357" y="687" on="1"/>
        <pt x="583" y="6" on="1"/>
        <pt x="532" y="-6" on="1"/>
        <pt x="450" y="247" on="1"/>
        <pt x="179" y="247" on="1"/>
        <pt x="99" y="0" on="1"/>
        <pt x="45" y="0" on="1"/>
        <pt x="272" y="687" on="1"/>
        <pt x="249" y="698" on="0"/>
        <pt x="221" y="741" on="0"/>
        <pt x="221" y="770" on="1"/>
        <pt x="221" y="809" on="0"/>
        <pt x="274" y="863" on="0"/>
        <pt x="314" y="863" on="1"/>
        <pt x="354" y="863" on="0"/>
        <pt x="407" y="809" on="0"/>
      </contour>
      <contour>
        <pt x="193" y="293" on="1"/>
        <pt x="435" y="293" on="1"/>
        <pt x="314" y="663" on="1"/>
      </contour>
      <contour>
        <pt x="371" y="770" on="1"/>
        <pt x="371" y="796" on="0"/>
        <pt x="339" y="829" on="0"/>
        <pt x="314" y="829" on="1"/>
        <pt x="290" y="829" on="0"/>
        <pt x="257" y="796" on="0"/>
        <pt x="257" y="770" on="1"/>
        <pt x="257" y="745" on="0"/>
        <pt x="290" y="711" on="0"/>
        <pt x="314" y="711" on="1"/>
        <pt x="339" y="711" on="0"/>
        <pt x="371" y="745" on="0"/>
      </contour>
    </TTGlyph>
    <TTGlyph name="Aring.flat" xMin="45" yMin="0" xMax="586" yMax="863">
      <contour>
        <pt x="407" y="770" on="1"/>
        <pt x="407" y="742" on="0"/>
        <pt x="380" y="698" on="0"/>
        <pt x="357" y="687" on="1"/>
        <pt x="586" y="0" on="1"/>
        <pt x="531" y="0" on="1"/>
        <pt x="450" y="247" on="1"/>
        <pt x="179" y="247" on="1"/>
        <pt x="99" y="0" on="1"/>
        <pt x="45" y="0" on="1"/>
        <pt x="272" y="687" on="1"/>
        <pt x="249" y="698" on="0"/>
        <pt x="221" y="741" on="0"/>
        <pt x="221" y="770" on="1"/>
        <pt x="221" y="809" on="0"/>
        <pt x="274" y="863" on="0"/>
        <pt x="314" y="863" on="1"/>
        <pt x="354" y="863" on="0"/>
        <pt x="407" y="809" on="0"/>
      </contour>
      <contour>
        <pt x="193" y="293" on="1"/>
        <pt x="435" y="293" on="1"/>
        <pt x="314" y="663" on="1"/>
      </contour>
      <contour>
        <pt x="371" y="770" on="1"/>
        <pt x="371" y="796" on="0"/>
        <pt x="339" y="829" on="0"/>
        <pt x="314" y="829" on="1"/>
        <pt x="290" y="829" on="0"/>
        <pt x="257" y="796" on="0"/>
        <pt x="257" y="770" on="1"/>
        <pt x="257" y="745" on="0"/>
        <pt x="290" y="711" on="0"/>
        <pt x="314" y="711" on="1"/>
        <pt x="339" y="711" on="0"/>
        <pt x="371" y="745" on="0"/>
      </contour>
    </TTGlyph>
    <TTGlyph name="Aringacute" xMin="45" yMin="-6" xMax="583" yMax="1036">
      <contour>
        <pt x="407" y="770" on="1"/>
        <pt x="407" y="742" on="0"/>
        <pt x="380" y="698" on="0"/>
        <pt x="357" y="687" on="1"/>
        <pt x="583" y="6" on="1"/>
        <pt x="532" y="-6" on="1"/>
        <pt x="450" y="247" on="1"/>
        <pt x="179" y="247" on="1"/>
        <pt x="99" y="0" on="1"/>
        <pt x="45" y="0" on="1"/>
        <pt x="272" y="687" on="1"/>
        <pt x="249" y="698" on="0"/>
        <pt x="221" y="741" on="0"/>
        <pt x="221" y="770" on="1"/>
        <pt x="221" y="809" on="0"/>
        <pt x="274" y="863" on="0"/>
        <pt x="314" y="863" on="1"/>
        <pt x="354" y="863" on="0"/>
        <pt x="407" y="809" on="0"/>
      </contour>
      <contour>
        <pt x="193" y="293" on="1"/>
        <pt x="435" y="293" on="1"/>
        <pt x="314" y="663" on="1"/>
      </contour>
      <contour>
        <pt x="371" y="770" on="1"/>
        <pt x="371" y="796" on="0"/>
        <pt x="339" y="829" on="0"/>
        <pt x="314" y="829" on="1"/>
        <pt x="290" y="829" on="0"/>
        <pt x="257" y="796" on="0"/>
        <pt x="257" y="770" on="1"/>
        <pt x="257" y="745" on="0"/>
        <pt x="290" y="711" on="0"/>
        <pt x="314" y="711" on="1"/>
        <pt x="339" y="711" on="0"/>
        <pt x="371" y="745" on="0"/>
      </contour>
      <contour>
        <pt x="325" y="889" on="1"/>
        <pt x="288" y="889" on="1"/>
        <pt x="379" y="1036" on="1"/>
        <pt x="446" y="1021" on="1"/>
      </contour>
    </TTGlyph>
    <TTGlyph name="Aringacute.flat" xMin="45" yMin="0" xMax="586" yMax="1036">
      <contour>
        <pt x="407" y="770" on="1"/>
        <pt x="407" y="742" on="0"/>
        <pt x="380" y="698" on="0"/>
        <pt x="357" y="687" on="1"/>
        <pt x="586" y="0" on="1"/>
        <pt x="531" y="0" on="1"/>
        <pt x="450" y="247" on="1"/>
        <pt x="179" y="247" on="1"/>
        <pt x="99" y="0" on="1"/>
        <pt x="45" y="0" on="1"/>
        <pt x="272" y="687" on="1"/>
        <pt x="249" y="698" on="0"/>
        <pt x="221" y="741" on="0"/>
        <pt x="221" y="770" on="1"/>
        <pt x="221" y="809" on="0"/>
        <pt x="274" y="863" on="0"/>
        <pt x="314" y="863" on="1"/>
        <pt x="354" y="863" on="0"/>
        <pt x="407" y="809" on="0"/>
      </contour>
      <contour>
        <pt x="193" y="293" on="1"/>
        <pt x="435" y="293" on="1"/>
        <pt x="314" y="663" on="1"/>
      </contour>
      <contour>
        <pt x="371" y="770" on="1"/>
        <pt x="371" y="796" on="0"/>
        <pt x="339" y="829" on="0"/>
        <pt x="314" y="829" on="1"/>
        <pt x="290" y="829" on="0"/>
        <pt x="257" y="796" on="0"/>
        <pt x="257" y="770" on="1"/>
        <pt x="257" y="745" on="0"/>
        <pt x="290" y="711" on="0"/>
        <pt x="314" y="711" on="1"/>
        <pt x="339" y="711" on="0"/>
        <pt x="371" y="745" on="0"/>
      </contour>
      <contour>
        <pt x="325" y="889" on="1"/>
        <pt x="288" y="889" on="1"/>
        <pt x="379" y="1036" on="1"/>
        <pt x="446" y="1021" on="1"/>
      </contour>
    </TTGlyph>
    <TTGlyph name="Atilde" xMin="45" yMin="-6" xMax="583" yMax="901">
      <component glyphName="A" x="0" y="0" flags="0x204"/>
      <component glyphName="tilde.cap" x="96" y="225" flags="0x4"/>
    </TTGlyph>
    <TTGlyph name="Atilde.flat" xMin="45" yMin="0" xMax="585" yMax="901">
      <component glyphName="tilde.cap" x="97" y="225" flags="0x4"/>
      <component glyphName="A.flat" x="0" y="0" flags="0x4"/>
    </TTGlyph>
    <TTGlyph name="B" xMin="92" yMin="0" xMax="480" yMax="725">
      <contour>
        <pt x="480" y="203" on="1"/>
        <pt x="480" y="155" on="0"/>
        <pt x="444" y="79" on="0"/>
        <pt x="380" y="27" on="0"/>
        <pt x="292" y="0" on="0"/>
        <pt x="239" y="0" on="1"/>
        <pt x="92" y="0" on="1"/>
        <pt x="92" y="725" on="1"/>
        <pt x="239" y="725" on="1"/>
        <pt x="341" y="725" on="0"/>
        <pt x="449" y="631" on="0"/>
        <pt x="449" y="550" on="1"/>
        <pt x="449" y="488" on="0"/>
        <pt x="382" y="405" on="0"/>
        <pt x="334" y="385" on="1"/>
        <pt x="400" y="366" on="0"/>
        <pt x="480" y="280" on="0"/>
      </contour>
      <contour>
        <pt x="396" y="547" on="1"/>
        <pt x="396" y="610" on="0"/>
        <pt x="317" y="679" on="0"/>
        <pt x="237" y="679" on="1"/>
        <pt x="145" y="679" on="1"/>
        <pt x="145" y="402" on="1"/>
        <pt x="235" y="402" on="1"/>
        <pt x="274" y="402" on="0"/>
        <pt x="334" y="425" on="0"/>
        <pt x="375" y="465" on="0"/>
        <pt x="396" y="517" on="0"/>
      </contour>
      <contour>
        <pt x="426" y="200" on="1"/>
        <pt x="426" y="282" on="0"/>
        <pt x="324" y="358" on="0"/>
        <pt x="236" y="358" on="1"/>
        <pt x="145" y="358" on="1"/>
        <pt x="145" y="47" on="1"/>
        <pt x="241" y="47" on="1"/>
        <pt x="328" y="47" on="0"/>
        <pt x="426" y="129" on="0"/>
      </contour>
    </TTGlyph>
    <TTGlyph name="C" xMin="62" yMin="-12" xMax="528" yMax="736">
      <contour>
        <pt x="528" y="51" on="1"/>
        <pt x="493" y="25" on="0"/>
        <pt x="398" y="-12" on="0"/>
        <pt x="343" y="-12" on="1"/>
        <pt x="280" y="-12" on="0"/>
        <pt x="176" y="41" on="0"/>
        <pt x="102" y="138" on="0"/>
        <pt x="62" y="276" on="0"/>
        <pt x="62" y="361" on="1"/>
        <pt x="62" y="445" on="0"/>
        <pt x="104" y="583" on="0"/>
        <pt x="180" y="682" on="0"/>
        <pt x="284" y="736" on="0"/>
        <pt x="347" y="736" on="1"/>
        <pt x="400" y="736" on="0"/>
        <pt x="483" y="706" on="0"/>
        <pt x="516" y="683" on="1"/>
        <pt x="508" y="628" on="1"/>
        <pt x="471" y="656" on="0"/>
        <pt x="394" y="689" on="0"/>
        <pt x="347" y="689" on="1"/>
        <pt x="294" y="689" on="0"/>
        <pt x="209" y="639" on="0"/>
        <pt x="149" y="552" on="0"/>
        <pt x="117" y="433" on="0"/>
        <pt x="117" y="363" on="1"/>
        <pt x="117" y="291" on="0"/>
        <pt x="148" y="171" on="0"/>
        <pt x="208" y="84" on="0"/>
        <pt x="293" y="36" on="0"/>
        <pt x="347" y="36" on="1"/>
        <pt x="398" y="36" on="0"/>
        <pt x="484" y="73" on="0"/>
        <pt x="520" y="102" on="1"/>
      </contour>
    </TTGlyph>
    <TTGlyph name="Cacute" xMin="62" yMin="-12" xMax="528" yMax="936">
      <component glyphName="C" x="0" y="0" flags="0x204"/>
      <component glyphName="acute.cap" x="172" y="225" flags="0x4"/>
    </TTGlyph>
    <TTGlyph name="Ccaron" xMin="62" yMin="-12" xMax="528" yMax="934">
      <component glyphName="C" x="0" y="0" flags="0x204"/>
      <component glyphName="caron.cap" x="117" y="225" flags="0x4"/>
    </TTGlyph>
    <TTGlyph name="Ccedilla" xMin="62" yMin="-194" xMax="528" yMax="736">
      <component glyphName="C" x="0" y="0" flags="0x204"/>
      <component glyphName="cedilla.cap" x="103" y="0" flags="0x4"/>
    </TTGlyph>
    <TTGlyph name="Cdotaccent" xMin="62" yMin="-12" xMax="528" yMax="879">
      <component glyphName="dotaccent.cap" x="118" y="225" flags="0x4"/>
      <component glyphName="C" x="0" y="0" flags="0x4"/>
    </TTGlyph>
    <TTGlyph name="D" xMin="92" yMin="0" xMax="573" yMax="725">
      <contour>
        <pt x="573" y="364" on="1"/>
        <pt x="573" y="278" on="0"/>
        <pt x="525" y="143" on="0"/>
        <pt x="437" y="49" on="0"/>
        <pt x="313" y="0" on="0"/>
        <pt x="236" y="0" on="1"/>
        <pt x="92" y="0" on="1"/>
        <pt x="92" y="725" on="1"/>
        <pt x="238" y="725" on="1"/>
        <pt x="318" y="725" on="0"/>
        <pt x="443" y="674" on="0"/>
        <pt x="528" y="579" on="0"/>
        <pt x="573" y="446" on="0"/>
      </contour>
      <contour>
        <pt x="518" y="362" on="1"/>
        <pt x="518" y="438" on="0"/>
        <pt x="479" y="556" on="0"/>
        <pt x="406" y="636" on="0"/>
        <pt x="303" y="678" on="0"/>
        <pt x="239" y="678" on="1"/>
        <pt x="145" y="678" on="1"/>
        <pt x="145" y="47" on="1"/>
        <pt x="242" y="47" on="1"/>
        <pt x="305" y="47" on="0"/>
        <pt x="407" y="87" on="0"/>
        <pt x="479" y="167" on="0"/>
        <pt x="518" y="284" on="0"/>
      </contour>
    </TTGlyph>
    <TTGlyph name="Dcaron" xMin="92" yMin="0" xMax="573" yMax="924">
      <component glyphName="caron.cap" x="75" y="215" flags="0x4"/>
      <component glyphName="D" x="0" y="0" flags="0x4"/>
    </TTGlyph>
    <TTGlyph name="Dcroat" xMin="19" yMin="0" xMax="580" yMax="725">
      <component glyphName="Eth" x="0" y="0" flags="0x204"/>
    </TTGlyph>
    <TTGlyph name="Dcroat.flat" xMin="23" yMin="0" xMax="580" yMax="725">
      <component glyphName="Eth.flat" x="0" y="0" flags="0x204"/>
    </TTGlyph>
    <TTGlyph name="E" xMin="92" yMin="0" xMax="439" yMax="725">
      <contour>
        <pt x="92" y="0" on="1"/>
        <pt x="92" y="725" on="1"/>
        <pt x="429" y="725" on="1"/>
        <pt x="429" y="677" on="1"/>
        <pt x="145" y="677" on="1"/>
        <pt x="145" y="404" on="1"/>
        <pt x="372" y="404" on="1"/>
        <pt x="380" y="356" on="1"/>
        <pt x="145" y="356" on="1"/>
        <pt x="145" y="47" on="1"/>
        <pt x="439" y="47" on="1"/>
        <pt x="439" y="0" on="1"/>
      </contour>
    </TTGlyph>
    <TTGlyph name="E.flat" xMin="92" yMin="0" xMax="439" yMax="725">
      <contour>
        <pt x="92" y="0" on="1"/>
        <pt x="92" y="725" on="1"/>
        <pt x="429" y="725" on="1"/>
        <pt x="429" y="677" on="1"/>
        <pt x="145" y="677" on="1"/>
        <pt x="145" y="404" on="1"/>
        <pt x="376" y="404" on="1"/>
        <pt x="376" y="356" on="1"/>
        <pt x="145" y="356" on="1"/>
        <pt x="145" y="47" on="1"/>
        <pt x="439" y="47" on="1"/>
        <pt x="439" y="0" on="1"/>
      </contour>
    </TTGlyph>
    <TTGlyph name="Eacute" xMin="92" yMin="0" xMax="439" yMax="926">
      <component glyphName="acute.cap" x="96" y="215" flags="0x4"/>
      <component glyphName="E" x="0" y="0" flags="0x4"/>
    </TTGlyph>
    <TTGlyph name="Eacute.flat" xMin="92" yMin="0" xMax="439" yMax="926">
      <component glyphName="E.flat" x="0" y="0" flags="0x4"/>
      <component glyphName="acute.cap" x="96" y="215" flags="0x4"/>
    </TTGlyph>
    <TTGlyph name="Ebreve" xMin="92" yMin="0" xMax="439" yMax="901">
      <component glyphName="breve.cap" x="43" y="215" flags="0x4"/>
      <component glyphName="E" x="0" y="0" flags="0x4"/>
    </TTGlyph>
    <TTGlyph name="Ebreve.flat" xMin="92" yMin="0" xMax="439" yMax="901">
      <component glyphName="breve.cap" x="43" y="215" flags="0x4"/>
      <component glyphName="E.flat" x="0" y="0" flags="0x4"/>
    </TTGlyph>
    <TTGlyph name="Ecaron" xMin="92" yMin="0" xMax="439" yMax="924">
      <component glyphName="caron.cap" x="42" y="215" flags="0x4"/>
      <component glyphName="E" x="0" y="0" flags="0x4"/>
    </TTGlyph>
    <TTGlyph name="Ecaron.flat" xMin="92" yMin="0" xMax="439" yMax="924">
      <component glyphName="E.flat" x="0" y="0" flags="0x4"/>
      <component glyphName="caron.cap" x="42" y="215" flags="0x4"/>
    </TTGlyph>
    <TTGlyph name="Ecircumflex" xMin="92" yMin="0" xMax="439" yMax="924">
      <component glyphName="E" x="0" y="0" flags="0x4"/>
      <component glyphName="circumflex.cap" x="42" y="215" flags="0x4"/>
    </TTGlyph>
    <TTGlyph name="Ecircumflex.flat" xMin="92" yMin="0" xMax="439" yMax="924">
      <component glyphName="E.flat" x="0" y="0" flags="0x4"/>
      <component glyphName="circumflex.cap" x="42" y="215" flags="0x4"/>
    </TTGlyph>
    <TTGlyph name="Edieresis" xMin="92" yMin="0" xMax="439" yMax="869">
      <component glyphName="dieresis.cap" x="42" y="215" flags="0x4"/>
      <component glyphName="E" x="0" y="0" flags="0x4"/>
    </TTGlyph>
    <TTGlyph name="Edieresis.flat" xMin="92" yMin="0" xMax="439" yMax="869">
      <component glyphName="E.flat" x="0" y="0" flags="0x4"/>
      <component glyphName="dieresis.cap" x="42" y="215" flags="0x4"/>
    </TTGlyph>
    <TTGlyph name="Edotaccent" xMin="92" yMin="0" xMax="439" yMax="869">
      <component glyphName="dotaccent.cap" x="43" y="215" flags="0x4"/>
      <component glyphName="E" x="0" y="0" flags="0x4"/>
    </TTGlyph>
    <TTGlyph name="Edotaccent.flat" xMin="92" yMin="0" xMax="439" yMax="869">
      <component glyphName="dotaccent.cap" x="43" y="215" flags="0x4"/>
      <component glyphName="E.flat" x="0" y="0" flags="0x4"/>
    </TTGlyph>
    <TTGlyph name="Egrave" xMin="92" yMin="0" xMax="439" yMax="926">
      <component glyphName="grave.cap" x="-15" y="215" flags="0x4"/>
      <component glyphName="E" x="0" y="0" flags="0x4"/>
    </TTGlyph>
    <TTGlyph name="Egrave.flat" xMin="92" yMin="0" xMax="439" yMax="926">
      <component glyphName="grave.cap" x="-15" y="215" flags="0x4"/>
      <component glyphName="E.flat" x="0" y="0" flags="0x4"/>
    </TTGlyph>
    <TTGlyph name="Emacron" xMin="92" yMin="0" xMax="439" yMax="856">
      <component glyphName="macron.cap" x="43" y="215" flags="0x4"/>
      <component glyphName="E" x="0" y="0" flags="0x4"/>
    </TTGlyph>
    <TTGlyph name="Emacron.flat" xMin="92" yMin="0" xMax="439" yMax="856">
      <component glyphName="E.flat" x="0" y="0" flags="0x4"/>
      <component glyphName="macron.cap" x="43" y="215" flags="0x4"/>
    </TTGlyph>
    <TTGlyph name="Eogonek" xMin="92" yMin="-171" xMax="450" yMax="725">
      <contour>
        <pt x="450" y="-160" on="1"/>
        <pt x="423" y="-171" on="0"/>
        <pt x="392" y="-171" on="1"/>
        <pt x="357" y="-171" on="0"/>
        <pt x="320" y="-138" on="0"/>
        <pt x="320" y="-109" on="1"/>
        <pt x="320" y="-86" on="0"/>
        <pt x="343" y="-40" on="0"/>
        <pt x="374" y="0" on="1"/>
        <pt x="92" y="0" on="1"/>
        <pt x="92" y="725" on="1"/>
        <pt x="429" y="725" on="1"/>
        <pt x="429" y="677" on="1"/>
        <pt x="145" y="677" on="1"/>
        <pt x="145" y="404" on="1"/>
        <pt x="372" y="404" on="1"/>
        <pt x="380" y="356" on="1"/>
        <pt x="145" y="356" on="1"/>
        <pt x="145" y="47" on="1"/>
        <pt x="439" y="47" on="1"/>
        <pt x="439" y="0" on="1"/>
        <pt x="415" y="0" on="1"/>
        <pt x="399" y="-24" on="1"/>
        <pt x="382" y="-50" on="0"/>
        <pt x="366" y="-82" on="0"/>
        <pt x="366" y="-99" on="1"/>
        <pt x="366" y="-134" on="0"/>
        <pt x="404" y="-134" on="1"/>
        <pt x="415" y="-134" on="0"/>
        <pt x="437" y="-129" on="0"/>
        <pt x="448" y="-126" on="1"/>
        <pt x="450" y="-160" on="1"/>
      </contour>
    </TTGlyph>
    <TTGlyph name="Eogonek.flat" xMin="92" yMin="-171" xMax="450" yMax="725">
      <contour>
        <pt x="450" y="-160" on="1"/>
        <pt x="423" y="-171" on="0"/>
        <pt x="392" y="-171" on="1"/>
        <pt x="357" y="-171" on="0"/>
        <pt x="320" y="-138" on="0"/>
        <pt x="320" y="-109" on="1"/>
        <pt x="320" y="-86" on="0"/>
        <pt x="343" y="-40" on="0"/>
        <pt x="374" y="0" on="1"/>
        <pt x="92" y="0" on="1"/>
        <pt x="92" y="725" on="1"/>
        <pt x="429" y="725" on="1"/>
        <pt x="429" y="677" on="1"/>
        <pt x="145" y="677" on="1"/>
        <pt x="145" y="404" on="1"/>
        <pt x="376" y="404" on="1"/>
        <pt x="376" y="356" on="1"/>
        <pt x="145" y="356" on="1"/>
        <pt x="145" y="47" on="1"/>
        <pt x="439" y="47" on="1"/>
        <pt x="439" y="0" on="1"/>
        <pt x="415" y="0" on="1"/>
        <pt x="399" y="-24" on="1"/>
        <pt x="382" y="-50" on="0"/>
        <pt x="366" y="-82" on="0"/>
        <pt x="366" y="-99" on="1"/>
        <pt x="366" y="-134" on="0"/>
        <pt x="404" y="-134" on="1"/>
        <pt x="415" y="-134" on="0"/>
        <pt x="437" y="-129" on="0"/>
        <pt x="448" y="-126" on="1"/>
        <pt x="450" y="-160" on="1"/>
      </contour>
    </TTGlyph>
    <TTGlyph name="Eth" xMin="19" yMin="0" xMax="580" yMax="725">
      <contour>
        <pt x="580" y="364" on="1"/>
        <pt x="580" y="278" on="0"/>
        <pt x="533" y="143" on="0"/>
        <pt x="445" y="49" on="0"/>
        <pt x="321" y="0" on="0"/>
        <pt x="245" y="0" on="1"/>
        <pt x="101" y="0" on="1"/>
        <pt x="101" y="357" on="1"/>
        <pt x="27" y="357" on="1"/>
        <pt x="19" y="402" on="1"/>
        <pt x="101" y="402" on="1"/>
        <pt x="101" y="725" on="1"/>
        <pt x="245" y="725" on="1"/>
        <pt x="325" y="725" on="0"/>
        <pt x="450" y="674" on="0"/>
        <pt x="535" y="579" on="0"/>
        <pt x="580" y="446" on="0"/>
      </contour>
      <contour>
        <pt x="527" y="362" on="1"/>
        <pt x="527" y="438" on="0"/>
        <pt x="488" y="556" on="0"/>
        <pt x="415" y="636" on="0"/>
        <pt x="311" y="678" on="0"/>
        <pt x="247" y="678" on="1"/>
        <pt x="153" y="678" on="1"/>
        <pt x="153" y="402" on="1"/>
        <pt x="308" y="402" on="1"/>
        <pt x="308" y="357" on="1"/>
        <pt x="153" y="357" on="1"/>
        <pt x="153" y="47" on="1"/>
        <pt x="250" y="47" on="1"/>
        <pt x="313" y="47" on="0"/>
        <pt x="415" y="87" on="0"/>
        <pt x="488" y="167" on="0"/>
        <pt x="527" y="284" on="0"/>
      </contour>
    </TTGlyph>
    <TTGlyph name="Eth.flat" xMin="23" yMin="0" xMax="580" yMax="725">
      <contour>
        <pt x="580" y="364" on="1"/>
        <pt x="580" y="278" on="0"/>
        <pt x="533" y="143" on="0"/>
        <pt x="445" y="49" on="0"/>
        <pt x="321" y="0" on="0"/>
        <pt x="245" y="0" on="1"/>
        <pt x="101" y="0" on="1"/>
        <pt x="101" y="357" on="1"/>
        <pt x="23" y="357" on="1"/>
        <pt x="23" y="402" on="1"/>
        <pt x="101" y="402" on="1"/>
        <pt x="101" y="725" on="1"/>
        <pt x="245" y="725" on="1"/>
        <pt x="325" y="725" on="0"/>
        <pt x="450" y="674" on="0"/>
        <pt x="535" y="579" on="0"/>
        <pt x="580" y="446" on="0"/>
      </contour>
      <contour>
        <pt x="527" y="362" on="1"/>
        <pt x="527" y="438" on="0"/>
        <pt x="488" y="556" on="0"/>
        <pt x="415" y="636" on="0"/>
        <pt x="311" y="678" on="0"/>
        <pt x="247" y="678" on="1"/>
        <pt x="153" y="678" on="1"/>
        <pt x="153" y="402" on="1"/>
        <pt x="308" y="402" on="1"/>
        <pt x="308" y="357" on="1"/>
        <pt x="153" y="357" on="1"/>
        <pt x="153" y="47" on="1"/>
        <pt x="250" y="47" on="1"/>
        <pt x="313" y="47" on="0"/>
        <pt x="415" y="87" on="0"/>
        <pt x="488" y="167" on="0"/>
        <pt x="527" y="284" on="0"/>
      </contour>
    </TTGlyph>
    <TTGlyph name="Euro" xMin="35" yMin="-12" xMax="529" yMax="729">
      <contour>
        <pt x="38" y="480" on="1"/>
        <pt x="131" y="480" on="1"/>
        <pt x="154" y="599" on="0"/>
        <pt x="279" y="729" on="0"/>
        <pt x="368" y="729" on="1"/>
        <pt x="414" y="729" on="0"/>
        <pt x="487" y="702" on="0"/>
        <pt x="519" y="679" on="1"/>
        <pt x="510" y="628" on="1"/>
        <pt x="476" y="654" on="0"/>
        <pt x="409" y="684" on="0"/>
        <pt x="367" y="684" on="1"/>
        <pt x="296" y="684" on="0"/>
        <pt x="200" y="575" on="0"/>
        <pt x="181" y="480" on="1"/>
        <pt x="418" y="480" on="1"/>
        <pt x="425" y="437" on="1"/>
        <pt x="175" y="437" on="1"/>
        <pt x="173" y="419" on="0"/>
        <pt x="170" y="380" on="0"/>
        <pt x="170" y="359" on="1"/>
        <pt x="170" y="344" on="0"/>
        <pt x="171" y="317" on="0"/>
        <pt x="172" y="304" on="1"/>
        <pt x="422" y="304" on="1"/>
        <pt x="422" y="261" on="1"/>
        <pt x="177" y="261" on="1"/>
        <pt x="194" y="152" on="0"/>
        <pt x="294" y="33" on="0"/>
        <pt x="366" y="33" on="1"/>
        <pt x="410" y="33" on="0"/>
        <pt x="482" y="62" on="0"/>
        <pt x="523" y="94" on="1"/>
        <pt x="529" y="46" on="1"/>
        <pt x="494" y="19" on="0"/>
        <pt x="414" y="-12" on="0"/>
        <pt x="364" y="-12" on="1"/>
        <pt x="271" y="-12" on="0"/>
        <pt x="144" y="128" on="0"/>
        <pt x="126" y="261" on="1"/>
        <pt x="41" y="261" on="1"/>
        <pt x="35" y="304" on="1"/>
        <pt x="122" y="304" on="1"/>
        <pt x="121" y="317" on="0"/>
        <pt x="120" y="344" on="0"/>
        <pt x="120" y="358" on="1"/>
        <pt x="120" y="379" on="0"/>
        <pt x="122" y="418" on="0"/>
        <pt x="124" y="437" on="1"/>
        <pt x="38" y="437" on="1"/>
      </contour>
    </TTGlyph>
    <TTGlyph name="Euro.flat" xMin="38" yMin="-12" xMax="529" yMax="729">
      <contour>
        <pt x="38" y="480" on="1"/>
        <pt x="131" y="480" on="1"/>
        <pt x="154" y="599" on="0"/>
        <pt x="279" y="729" on="0"/>
        <pt x="368" y="729" on="1"/>
        <pt x="414" y="729" on="0"/>
        <pt x="487" y="702" on="0"/>
        <pt x="519" y="679" on="1"/>
        <pt x="510" y="628" on="1"/>
        <pt x="476" y="654" on="0"/>
        <pt x="409" y="684" on="0"/>
        <pt x="367" y="684" on="1"/>
        <pt x="296" y="684" on="0"/>
        <pt x="200" y="575" on="0"/>
        <pt x="181" y="480" on="1"/>
        <pt x="422" y="480" on="1"/>
        <pt x="422" y="437" on="1"/>
        <pt x="175" y="437" on="1"/>
        <pt x="173" y="419" on="0"/>
        <pt x="170" y="380" on="0"/>
        <pt x="170" y="359" on="1"/>
        <pt x="170" y="344" on="0"/>
        <pt x="171" y="317" on="0"/>
        <pt x="172" y="304" on="1"/>
        <pt x="422" y="304" on="1"/>
        <pt x="422" y="261" on="1"/>
        <pt x="177" y="261" on="1"/>
        <pt x="194" y="152" on="0"/>
        <pt x="294" y="33" on="0"/>
        <pt x="366" y="33" on="1"/>
        <pt x="410" y="33" on="0"/>
        <pt x="482" y="62" on="0"/>
        <pt x="523" y="94" on="1"/>
        <pt x="529" y="46" on="1"/>
        <pt x="494" y="19" on="0"/>
        <pt x="414" y="-12" on="0"/>
        <pt x="364" y="-12" on="1"/>
        <pt x="271" y="-12" on="0"/>
        <pt x="144" y="128" on="0"/>
        <pt x="126" y="261" on="1"/>
        <pt x="38" y="261" on="1"/>
        <pt x="38" y="304" on="1"/>
        <pt x="122" y="304" on="1"/>
        <pt x="121" y="317" on="0"/>
        <pt x="120" y="344" on="0"/>
        <pt x="120" y="358" on="1"/>
        <pt x="120" y="379" on="0"/>
        <pt x="122" y="418" on="0"/>
        <pt x="124" y="437" on="1"/>
        <pt x="38" y="437" on="1"/>
      </contour>
    </TTGlyph>
    <TTGlyph name="Euro.tab" xMin="39" yMin="-11" xMax="499" yMax="728">
      <contour>
        <pt x="42" y="479" on="1"/>
        <pt x="128" y="479" on="1"/>
        <pt x="148" y="595" on="0"/>
        <pt x="262" y="728" on="0"/>
        <pt x="348" y="728" on="1"/>
        <pt x="391" y="728" on="0"/>
        <pt x="458" y="703" on="0"/>
        <pt x="487" y="680" on="1"/>
        <pt x="479" y="629" on="1"/>
        <pt x="447" y="655" on="0"/>
        <pt x="386" y="685" on="0"/>
        <pt x="347" y="685" on="1"/>
        <pt x="281" y="685" on="0"/>
        <pt x="194" y="574" on="0"/>
        <pt x="177" y="479" on="1"/>
        <pt x="398" y="479" on="1"/>
        <pt x="405" y="437" on="1"/>
        <pt x="171" y="437" on="1"/>
        <pt x="169" y="418" on="0"/>
        <pt x="167" y="379" on="0"/>
        <pt x="167" y="359" on="1"/>
        <pt x="167" y="345" on="0"/>
        <pt x="168" y="318" on="0"/>
        <pt x="169" y="304" on="1"/>
        <pt x="403" y="304" on="1"/>
        <pt x="403" y="262" on="1"/>
        <pt x="173" y="262" on="1"/>
        <pt x="187" y="153" on="0"/>
        <pt x="279" y="33" on="0"/>
        <pt x="348" y="33" on="1"/>
        <pt x="389" y="33" on="0"/>
        <pt x="454" y="60" on="0"/>
        <pt x="492" y="92" on="1"/>
        <pt x="499" y="45" on="1"/>
        <pt x="465" y="18" on="0"/>
        <pt x="391" y="-11" on="0"/>
        <pt x="346" y="-11" on="1"/>
        <pt x="255" y="-11" on="0"/>
        <pt x="140" y="130" on="0"/>
        <pt x="123" y="262" on="1"/>
        <pt x="46" y="262" on="1"/>
        <pt x="39" y="304" on="1"/>
        <pt x="120" y="304" on="1"/>
        <pt x="119" y="317" on="0"/>
        <pt x="118" y="344" on="0"/>
        <pt x="118" y="358" on="1"/>
        <pt x="118" y="379" on="0"/>
        <pt x="120" y="418" on="0"/>
        <pt x="122" y="437" on="1"/>
        <pt x="42" y="437" on="1"/>
      </contour>
    </TTGlyph>
    <TTGlyph name="Euro.tab_flat" xMin="42" yMin="-11" xMax="499" yMax="728">
      <contour>
        <pt x="42" y="479" on="1"/>
        <pt x="128" y="479" on="1"/>
        <pt x="148" y="595" on="0"/>
        <pt x="262" y="728" on="0"/>
        <pt x="348" y="728" on="1"/>
        <pt x="391" y="728" on="0"/>
        <pt x="458" y="703" on="0"/>
        <pt x="487" y="680" on="1"/>
        <pt x="479" y="629" on="1"/>
        <pt x="447" y="655" on="0"/>
        <pt x="386" y="685" on="0"/>
        <pt x="347" y="685" on="1"/>
        <pt x="281" y="685" on="0"/>
        <pt x="194" y="574" on="0"/>
        <pt x="177" y="479" on="1"/>
        <pt x="403" y="479" on="1"/>
        <pt x="403" y="437" on="1"/>
        <pt x="171" y="437" on="1"/>
        <pt x="169" y="418" on="0"/>
        <pt x="167" y="379" on="0"/>
        <pt x="167" y="359" on="1"/>
        <pt x="167" y="345" on="0"/>
        <pt x="168" y="318" on="0"/>
        <pt x="169" y="304" on="1"/>
        <pt x="403" y="304" on="1"/>
        <pt x="403" y="262" on="1"/>
        <pt x="173" y="262" on="1"/>
        <pt x="187" y="153" on="0"/>
        <pt x="279" y="33" on="0"/>
        <pt x="348" y="33" on="1"/>
        <pt x="389" y="33" on="0"/>
        <pt x="454" y="60" on="0"/>
        <pt x="492" y="92" on="1"/>
        <pt x="499" y="45" on="1"/>
        <pt x="465" y="18" on="0"/>
        <pt x="391" y="-11" on="0"/>
        <pt x="346" y="-11" on="1"/>
        <pt x="255" y="-11" on="0"/>
        <pt x="140" y="130" on="0"/>
        <pt x="123" y="262" on="1"/>
        <pt x="42" y="262" on="1"/>
        <pt x="42" y="304" on="1"/>
        <pt x="120" y="304" on="1"/>
        <pt x="119" y="317" on="0"/>
        <pt x="118" y="344" on="0"/>
        <pt x="118" y="358" on="1"/>
        <pt x="118" y="379" on="0"/>
        <pt x="120" y="418" on="0"/>
        <pt x="122" y="437" on="1"/>
        <pt x="42" y="437" on="1"/>
      </contour>
    </TTGlyph>
    <TTGlyph name="F" xMin="92" yMin="0" xMax="417" yMax="725">
      <contour>
        <pt x="145" y="677" on="1"/>
        <pt x="145" y="392" on="1"/>
        <pt x="363" y="392" on="1"/>
        <pt x="371" y="345" on="1"/>
        <pt x="145" y="345" on="1"/>
        <pt x="145" y="0" on="1"/>
        <pt x="92" y="0" on="1"/>
        <pt x="92" y="725" on="1"/>
        <pt x="417" y="725" on="1"/>
        <pt x="417" y="677" on="1"/>
      </contour>
    </TTGlyph>
    <TTGlyph name="F.flat" xMin="92" yMin="0" xMax="417" yMax="725">
      <contour>
        <pt x="145" y="677" on="1"/>
        <pt x="145" y="392" on="1"/>
        <pt x="367" y="392" on="1"/>
        <pt x="367" y="345" on="1"/>
        <pt x="145" y="345" on="1"/>
        <pt x="145" y="0" on="1"/>
        <pt x="92" y="0" on="1"/>
        <pt x="92" y="725" on="1"/>
        <pt x="417" y="725" on="1"/>
        <pt x="417" y="677" on="1"/>
      </contour>
    </TTGlyph>
    <TTGlyph name="G" xMin="62" yMin="-11" xMax="548" yMax="736">
      <contour>
        <pt x="548" y="57" on="1"/>
        <pt x="502" y="25" on="0"/>
        <pt x="405" y="-11" on="0"/>
        <pt x="345" y="-11" on="1"/>
        <pt x="279" y="-11" on="0"/>
        <pt x="174" y="43" on="0"/>
        <pt x="101" y="141" on="0"/>
        <pt x="62" y="278" on="0"/>
        <pt x="62" y="361" on="1"/>
        <pt x="62" y="443" on="0"/>
        <pt x="101" y="580" on="0"/>
        <pt x="175" y="680" on="0"/>
        <pt x="279" y="736" on="0"/>
        <pt x="344" y="736" on="1"/>
        <pt x="398" y="736" on="0"/>
        <pt x="488" y="707" on="0"/>
        <pt x="526" y="679" on="1"/>
        <pt x="517" y="624" on="1"/>
        <pt x="479" y="656" on="0"/>
        <pt x="394" y="690" on="0"/>
        <pt x="343" y="690" on="1"/>
        <pt x="290" y="690" on="0"/>
        <pt x="206" y="641" on="0"/>
        <pt x="148" y="554" on="0"/>
        <pt x="117" y="434" on="0"/>
        <pt x="117" y="363" on="1"/>
        <pt x="117" y="291" on="0"/>
        <pt x="147" y="171" on="0"/>
        <pt x="205" y="84" on="0"/>
        <pt x="292" y="36" on="0"/>
        <pt x="348" y="36" on="1"/>
        <pt x="393" y="36" on="0"/>
        <pt x="463" y="59" on="0"/>
        <pt x="496" y="82" on="1"/>
        <pt x="496" y="325" on="1"/>
        <pt x="342" y="325" on="1"/>
        <pt x="336" y="372" on="1"/>
        <pt x="548" y="372" on="1"/>
      </contour>
    </TTGlyph>
    <TTGlyph name="G.flat" xMin="62" yMin="-11" xMax="548" yMax="736">
      <contour>
        <pt x="548" y="57" on="1"/>
        <pt x="502" y="25" on="0"/>
        <pt x="405" y="-11" on="0"/>
        <pt x="345" y="-11" on="1"/>
        <pt x="279" y="-11" on="0"/>
        <pt x="174" y="43" on="0"/>
        <pt x="101" y="141" on="0"/>
        <pt x="62" y="278" on="0"/>
        <pt x="62" y="361" on="1"/>
        <pt x="62" y="443" on="0"/>
        <pt x="101" y="580" on="0"/>
        <pt x="175" y="680" on="0"/>
        <pt x="279" y="736" on="0"/>
        <pt x="344" y="736" on="1"/>
        <pt x="398" y="736" on="0"/>
        <pt x="488" y="707" on="0"/>
        <pt x="526" y="679" on="1"/>
        <pt x="517" y="624" on="1"/>
        <pt x="479" y="656" on="0"/>
        <pt x="394" y="690" on="0"/>
        <pt x="343" y="690" on="1"/>
        <pt x="290" y="690" on="0"/>
        <pt x="206" y="641" on="0"/>
        <pt x="148" y="554" on="0"/>
        <pt x="117" y="434" on="0"/>
        <pt x="117" y="363" on="1"/>
        <pt x="117" y="291" on="0"/>
        <pt x="147" y="171" on="0"/>
        <pt x="205" y="84" on="0"/>
        <pt x="292" y="36" on="0"/>
        <pt x="348" y="36" on="1"/>
        <pt x="393" y="36" on="0"/>
        <pt x="463" y="59" on="0"/>
        <pt x="496" y="82" on="1"/>
        <pt x="496" y="325" on="1"/>
        <pt x="339" y="325" on="1"/>
        <pt x="339" y="372" on="1"/>
        <pt x="548" y="372" on="1"/>
      </contour>
    </TTGlyph>
    <TTGlyph name="Gbreve" xMin="62" yMin="-11" xMax="548" yMax="911">
      <component glyphName="breve.cap" x="117" y="225" flags="0x4"/>
      <component glyphName="G" x="0" y="0" flags="0x4"/>
    </TTGlyph>
    <TTGlyph name="Gbreve.flat" xMin="62" yMin="-11" xMax="548" yMax="911">
      <component glyphName="breve.cap" x="117" y="225" flags="0x4"/>
      <component glyphName="G.flat" x="0" y="0" flags="0x4"/>
    </TTGlyph>
    <TTGlyph name="Gcommaaccent" xMin="62" yMin="-232" xMax="548" yMax="736">
      <component glyphName="G" x="0" y="0" flags="0x204"/>
      <component glyphName="commaaccent.cap" x="130" y="-1" flags="0x4"/>
    </TTGlyph>
    <TTGlyph name="Gcommaaccent.flat" xMin="62" yMin="-232" xMax="548" yMax="736">
      <component glyphName="G.flat" x="0" y="0" flags="0x204"/>
      <component glyphName="commaaccent.cap" x="131" y="-1" flags="0x4"/>
    </TTGlyph>
    <TTGlyph name="Gdotaccent" xMin="62" yMin="-11" xMax="548" yMax="879">
      <component glyphName="dotaccent.cap" x="117" y="225" flags="0x4"/>
      <component glyphName="G" x="0" y="0" flags="0x4"/>
    </TTGlyph>
    <TTGlyph name="Gdotaccent.flat" xMin="62" yMin="-11" xMax="548" yMax="879">
      <component glyphName="dotaccent.cap" x="117" y="225" flags="0x4"/>
      <component glyphName="G.flat" x="0" y="0" flags="0x4"/>
    </TTGlyph>
    <TTGlyph name="H" xMin="92" yMin="0" xMax="554" yMax="725">
      <contour>
        <pt x="502" y="0" on="1"/>
        <pt x="502" y="356" on="1"/>
        <pt x="145" y="356" on="1"/>
        <pt x="145" y="0" on="1"/>
        <pt x="92" y="0" on="1"/>
        <pt x="92" y="725" on="1"/>
        <pt x="145" y="725" on="1"/>
        <pt x="145" y="404" on="1"/>
        <pt x="502" y="404" on="1"/>
        <pt x="502" y="725" on="1"/>
        <pt x="554" y="725" on="1"/>
        <pt x="554" y="0" on="1"/>
      </contour>
    </TTGlyph>
    <TTGlyph name="Hbar" xMin="18" yMin="0" xMax="641" yMax="725">
      <contour>
        <pt x="510" y="0" on="1"/>
        <pt x="510" y="351" on="1"/>
        <pt x="154" y="351" on="1"/>
        <pt x="154" y="0" on="1"/>
        <pt x="101" y="0" on="1"/>
        <pt x="101" y="556" on="1"/>
        <pt x="27" y="556" on="1"/>
        <pt x="18" y="600" on="1"/>
        <pt x="101" y="600" on="1"/>
        <pt x="101" y="725" on="1"/>
        <pt x="154" y="725" on="1"/>
        <pt x="154" y="600" on="1"/>
        <pt x="510" y="600" on="1"/>
        <pt x="510" y="725" on="1"/>
        <pt x="562" y="725" on="1"/>
        <pt x="562" y="600" on="1"/>
        <pt x="641" y="600" on="1"/>
        <pt x="641" y="556" on="1"/>
        <pt x="562" y="556" on="1"/>
        <pt x="562" y="0" on="1"/>
      </contour>
      <contour>
        <pt x="510" y="398" on="1"/>
        <pt x="510" y="557" on="1"/>
        <pt x="154" y="557" on="1"/>
        <pt x="154" y="398" on="1"/>
      </contour>
    </TTGlyph>
    <TTGlyph name="Hbar.flat" xMin="23" yMin="0" xMax="641" yMax="725">
      <contour>
        <pt x="510" y="0" on="1"/>
        <pt x="510" y="351" on="1"/>
        <pt x="154" y="351" on="1"/>
        <pt x="154" y="0" on="1"/>
        <pt x="101" y="0" on="1"/>
        <pt x="101" y="556" on="1"/>
        <pt x="23" y="556" on="1"/>
        <pt x="23" y="600" on="1"/>
        <pt x="101" y="600" on="1"/>
        <pt x="101" y="725" on="1"/>
        <pt x="154" y="725" on="1"/>
        <pt x="154" y="600" on="1"/>
        <pt x="510" y="600" on="1"/>
        <pt x="510" y="725" on="1"/>
        <pt x="562" y="725" on="1"/>
        <pt x="562" y="600" on="1"/>
        <pt x="641" y="600" on="1"/>
        <pt x="641" y="556" on="1"/>
        <pt x="562" y="556" on="1"/>
        <pt x="562" y="0" on="1"/>
      </contour>
      <contour>
        <pt x="510" y="398" on="1"/>
        <pt x="510" y="557" on="1"/>
        <pt x="154" y="557" on="1"/>
        <pt x="154" y="398" on="1"/>
      </contour>
    </TTGlyph>
    <TTGlyph name="I" xMin="101" yMin="0" xMax="154" yMax="725">
      <contour>
        <pt x="101" y="0" on="1"/>
        <pt x="101" y="725" on="1"/>
        <pt x="154" y="725" on="1"/>
        <pt x="154" y="0" on="1"/>
      </contour>
    </TTGlyph>
    <TTGlyph name="Iacute" xMin="101" yMin="0" xMax="263" yMax="926">
      <component glyphName="I" x="0" y="0" flags="0x204"/>
      <component glyphName="acute.cap" x="-40" y="215" flags="0x4"/>
    </TTGlyph>
    <TTGlyph name="Ibreve" xMin="12" yMin="0" xMax="242" yMax="901">
      <component glyphName="I" x="0" y="0" flags="0x204"/>
      <component glyphName="breve.cap" x="-94" y="215" flags="0x4"/>
    </TTGlyph>
    <TTGlyph name="Icircumflex" xMin="9" yMin="0" xMax="244" yMax="924">
      <component glyphName="I" x="0" y="0" flags="0x204"/>
      <component glyphName="circumflex.cap" x="-95" y="215" flags="0x4"/>
    </TTGlyph>
    <TTGlyph name="Idieresis" xMin="17" yMin="0" xMax="236" yMax="869">
      <component glyphName="I" x="0" y="0" flags="0x204"/>
      <component glyphName="dieresis.cap" x="-95" y="215" flags="0x4"/>
    </TTGlyph>
    <TTGlyph name="Idotaccent" xMin="92" yMin="0" xMax="163" yMax="869">
      <component glyphName="I" x="0" y="0" flags="0x204"/>
      <component glyphName="dotaccent.cap" x="-94" y="215" flags="0x4"/>
    </TTGlyph>
    <TTGlyph name="Igrave" xMin="-7" yMin="0" xMax="154" yMax="926">
      <component glyphName="I" x="0" y="0" flags="0x204"/>
      <component glyphName="grave.cap" x="-151" y="215" flags="0x4"/>
    </TTGlyph>
    <TTGlyph name="Imacron" xMin="9" yMin="0" xMax="247" yMax="856">
      <component glyphName="I" x="0" y="0" flags="0x204"/>
      <component glyphName="macron.cap" x="-94" y="215" flags="0x4"/>
    </TTGlyph>
    <TTGlyph name="Iogonek" xMin="51" yMin="-171" xMax="181" yMax="725">
      <contour>
        <pt x="181" y="-160" on="1"/>
        <pt x="154" y="-171" on="0"/>
        <pt x="123" y="-171" on="1"/>
        <pt x="88" y="-171" on="0"/>
        <pt x="51" y="-138" on="0"/>
        <pt x="51" y="-109" on="1"/>
        <pt x="51" y="-86" on="0"/>
        <pt x="74" y="-40" on="0"/>
        <pt x="105" y="0" on="1"/>
        <pt x="101" y="0" on="1"/>
        <pt x="101" y="725" on="1"/>
        <pt x="154" y="725" on="1"/>
        <pt x="154" y="0" on="1"/>
        <pt x="146" y="0" on="1"/>
        <pt x="130" y="-24" on="1"/>
        <pt x="113" y="-50" on="0"/>
        <pt x="97" y="-82" on="0"/>
        <pt x="97" y="-99" on="1"/>
        <pt x="97" y="-134" on="0"/>
        <pt x="135" y="-134" on="1"/>
        <pt x="146" y="-134" on="0"/>
        <pt x="168" y="-129" on="0"/>
        <pt x="179" y="-126" on="1"/>
        <pt x="181" y="-160" on="1"/>
      </contour>
    </TTGlyph>
    <TTGlyph name="J" xMin="30" yMin="-6" xMax="253" yMax="725">
      <contour>
        <pt x="253" y="155" on="1"/>
        <pt x="253" y="72" on="0"/>
        <pt x="168" y="-6" on="0"/>
        <pt x="102" y="-6" on="1"/>
        <pt x="63" y="-6" on="0"/>
        <pt x="38" y="3" on="1"/>
        <pt x="30" y="52" on="1"/>
        <pt x="47" y="47" on="0"/>
        <pt x="83" y="42" on="0"/>
        <pt x="100" y="42" on="1"/>
        <pt x="200" y="42" on="0"/>
        <pt x="200" y="155" on="1"/>
        <pt x="200" y="725" on="1"/>
        <pt x="253" y="725" on="1"/>
      </contour>
    </TTGlyph>
    <TTGlyph name="K" xMin="92" yMin="-7" xMax="534" yMax="725">
      <contour>
        <pt x="475" y="-7" on="1"/>
        <pt x="145" y="374" on="1"/>
        <pt x="145" y="0" on="1"/>
        <pt x="92" y="0" on="1"/>
        <pt x="92" y="725" on="1"/>
        <pt x="145" y="725" on="1"/>
        <pt x="145" y="393" on="1"/>
        <pt x="454" y="725" on="1"/>
        <pt x="519" y="725" on="1"/>
        <pt x="201" y="387" on="1"/>
        <pt x="534" y="5" on="1"/>
      </contour>
    </TTGlyph>
    <TTGlyph name="K.flat" xMin="92" yMin="0" xMax="538" yMax="725">
      <contour>
        <pt x="469" y="0" on="1"/>
        <pt x="145" y="374" on="1"/>
        <pt x="145" y="0" on="1"/>
        <pt x="92" y="0" on="1"/>
        <pt x="92" y="725" on="1"/>
        <pt x="145" y="725" on="1"/>
        <pt x="145" y="393" on="1"/>
        <pt x="454" y="725" on="1"/>
        <pt x="519" y="725" on="1"/>
        <pt x="201" y="387" on="1"/>
        <pt x="538" y="0" on="1"/>
      </contour>
    </TTGlyph>
    <TTGlyph name="Kcommaaccent" xMin="92" yMin="-230" xMax="534" yMax="725">
      <component glyphName="K" x="0" y="0" flags="0x4"/>
      <component glyphName="commaaccent.cap" x="71" y="1" flags="0x4"/>
    </TTGlyph>
    <TTGlyph name="Kcommaaccent.flat" xMin="92" yMin="-230" xMax="538" yMax="725">
      <component glyphName="K.flat" x="0" y="0" flags="0x4"/>
      <component glyphName="commaaccent.cap" x="71" y="1" flags="0x4"/>
    </TTGlyph>
    <TTGlyph name="L" xMin="92" yMin="0" xMax="415" yMax="725">
      <contour>
        <pt x="92" y="0" on="1"/>
        <pt x="92" y="725" on="1"/>
        <pt x="145" y="725" on="1"/>
        <pt x="145" y="47" on="1"/>
        <pt x="407" y="47" on="1"/>
        <pt x="415" y="0" on="1"/>
      </contour>
    </TTGlyph>
    <TTGlyph name="L.flat" xMin="92" yMin="0" xMax="412" yMax="725">
      <contour>
        <pt x="92" y="0" on="1"/>
        <pt x="92" y="725" on="1"/>
        <pt x="145" y="725" on="1"/>
        <pt x="145" y="47" on="1"/>
        <pt x="412" y="47" on="1"/>
        <pt x="412" y="0" on="1"/>
      </contour>
    </TTGlyph>
    <TTGlyph name="Lacute" xMin="92" yMin="0" xMax="415" yMax="926">
      <component glyphName="acute.cap" x="-38" y="215" flags="0x4"/>
      <component glyphName="L" x="0" y="0" flags="0x4"/>
    </TTGlyph>
    <TTGlyph name="Lacute.flat" xMin="92" yMin="0" xMax="412" yMax="926">
      <component glyphName="acute.cap" x="-38" y="215" flags="0x4"/>
      <component glyphName="L.flat" x="0" y="0" flags="0x4"/>
    </TTGlyph>
    <TTGlyph name="Lcaron" xMin="92" yMin="0" xMax="415" yMax="727">
      <component glyphName="L" x="0" y="0" flags="0x204"/>
      <component glyphName="caron.alt.cap" x="39" y="-22" flags="0x4"/>
    </TTGlyph>
    <TTGlyph name="Lcaron.flat" xMin="92" yMin="0" xMax="412" yMax="727">
      <component glyphName="L.flat" x="0" y="0" flags="0x204"/>
      <component glyphName="caron.alt.cap" x="39" y="-22" flags="0x4"/>
    </TTGlyph>
    <TTGlyph name="Lcommaaccent" xMin="92" yMin="-231" xMax="415" yMax="725">
      <component glyphName="L" x="0" y="0" flags="0x204"/>
      <component glyphName="commaaccent.cap" x="36" y="0" flags="0x4"/>
    </TTGlyph>
    <TTGlyph name="Lcommaaccent.flat" xMin="92" yMin="-231" xMax="412" yMax="725">
      <component glyphName="L.flat" x="0" y="0" flags="0x204"/>
      <component glyphName="commaaccent.cap" x="37" y="0" flags="0x4"/>
    </TTGlyph>
    <TTGlyph name="Ldot" xMin="92" yMin="0" xMax="415" yMax="725">
      <contour>
        <pt x="296" y="328" on="1"/>
        <pt x="296" y="412" on="1"/>
        <pt x="361" y="412" on="1"/>
        <pt x="361" y="328" on="1"/>
      </contour>
      <contour>
        <pt x="92" y="0" on="1"/>
        <pt x="92" y="725" on="1"/>
        <pt x="145" y="725" on="1"/>
        <pt x="145" y="47" on="1"/>
        <pt x="407" y="47" on="1"/>
        <pt x="415" y="0" on="1"/>
      </contour>
    </TTGlyph>
    <TTGlyph name="Ldot.flat" xMin="92" yMin="0" xMax="412" yMax="725">
      <contour>
        <pt x="296" y="328" on="1"/>
        <pt x="296" y="412" on="1"/>
        <pt x="361" y="412" on="1"/>
        <pt x="361" y="328" on="1"/>
      </contour>
      <contour>
        <pt x="92" y="0" on="1"/>
        <pt x="92" y="725" on="1"/>
        <pt x="145" y="725" on="1"/>
        <pt x="145" y="47" on="1"/>
        <pt x="412" y="47" on="1"/>
        <pt x="412" y="0" on="1"/>
      </contour>
    </TTGlyph>
    <TTGlyph name="Lslash" xMin="19" yMin="0" xMax="423" yMax="725">
      <contour>
        <pt x="154" y="336" on="1"/>
        <pt x="154" y="47" on="1"/>
        <pt x="416" y="47" on="1"/>
        <pt x="423" y="0" on="1"/>
        <pt x="101" y="0" on="1"/>
        <pt x="101" y="307" on="1"/>
        <pt x="26" y="266" on="1"/>
        <pt x="19" y="313" on="1"/>
        <pt x="101" y="358" on="1"/>
        <pt x="101" y="725" on="1"/>
        <pt x="154" y="725" on="1"/>
        <pt x="154" y="387" on="1"/>
        <pt x="298" y="468" on="1"/>
        <pt x="298" y="416" on="1"/>
      </contour>
    </TTGlyph>
    <TTGlyph name="Lslash.flat" xMin="24" yMin="0" xMax="420" yMax="725">
      <contour>
        <pt x="154" y="336" on="1"/>
        <pt x="154" y="47" on="1"/>
        <pt x="419" y="47" on="1"/>
        <pt x="420" y="0" on="1"/>
        <pt x="101" y="0" on="1"/>
        <pt x="101" y="307" on="1"/>
        <pt x="24" y="264" on="1"/>
        <pt x="24" y="316" on="1"/>
        <pt x="101" y="358" on="1"/>
        <pt x="101" y="725" on="1"/>
        <pt x="154" y="725" on="1"/>
        <pt x="154" y="387" on="1"/>
        <pt x="298" y="468" on="1"/>
        <pt x="298" y="416" on="1"/>
      </contour>
    </TTGlyph>
    <TTGlyph name="M" xMin="77" yMin="-4" xMax="757" yMax="725">
      <contour>
        <pt x="706" y="0" on="1"/>
        <pt x="666" y="639" on="1"/>
        <pt x="437" y="-4" on="1"/>
        <pt x="395" y="-4" on="1"/>
        <pt x="166" y="639" on="1"/>
        <pt x="127" y="0" on="1"/>
        <pt x="77" y="0" on="1"/>
        <pt x="126" y="725" on="1"/>
        <pt x="187" y="725" on="1"/>
        <pt x="418" y="73" on="1"/>
        <pt x="648" y="725" on="1"/>
        <pt x="710" y="725" on="1"/>
        <pt x="757" y="0" on="1"/>
      </contour>
    </TTGlyph>
    <TTGlyph name="M.alt" xMin="93" yMin="-4" xMax="722" yMax="725">
      <contour>
        <pt x="671" y="0" on="1"/>
        <pt x="672" y="638" on="1"/>
        <pt x="427" y="-4" on="1"/>
        <pt x="385" y="-4" on="1"/>
        <pt x="141" y="638" on="1"/>
        <pt x="141" y="0" on="1"/>
        <pt x="93" y="0" on="1"/>
        <pt x="93" y="725" on="1"/>
        <pt x="161" y="725" on="1"/>
        <pt x="408" y="68" on="1"/>
        <pt x="655" y="725" on="1"/>
        <pt x="722" y="725" on="1"/>
        <pt x="722" y="0" on="1"/>
      </contour>
    </TTGlyph>
    <TTGlyph name="N" xMin="92" yMin="0" xMax="553" yMax="725">
      <contour>
        <pt x="509" y="0" on="1"/>
        <pt x="142" y="634" on="1"/>
        <pt x="142" y="0" on="1"/>
        <pt x="92" y="0" on="1"/>
        <pt x="92" y="725" on="1"/>
        <pt x="146" y="725" on="1"/>
        <pt x="502" y="108" on="1"/>
        <pt x="502" y="725" on="1"/>
        <pt x="553" y="725" on="1"/>
        <pt x="553" y="0" on="1"/>
      </contour>
    </TTGlyph>
    <TTGlyph name="Nacute" xMin="92" yMin="0" xMax="553" yMax="925">
      <component glyphName="acute.cap" x="159" y="214" flags="0x4"/>
      <component glyphName="N" x="0" y="0" flags="0x4"/>
    </TTGlyph>
    <TTGlyph name="Ncaron" xMin="92" yMin="0" xMax="553" yMax="923">
      <component glyphName="caron.cap" x="104" y="214" flags="0x4"/>
      <component glyphName="N" x="0" y="0" flags="0x4"/>
    </TTGlyph>
    <TTGlyph name="Ncommaaccent" xMin="92" yMin="-230" xMax="553" yMax="725">
      <component glyphName="commaaccent.cap" x="118" y="1" flags="0x4"/>
      <component glyphName="N" x="0" y="0" flags="0x4"/>
    </TTGlyph>
    <TTGlyph name="Ntilde" xMin="92" yMin="0" xMax="553" yMax="890">
      <component glyphName="tilde.cap" x="107" y="214" flags="0x4"/>
      <component glyphName="N" x="0" y="0" flags="0x4"/>
    </TTGlyph>
    <TTGlyph name="O" xMin="62" yMin="-12" xMax="615" yMax="736">
      <contour>
        <pt x="615" y="363" on="1"/>
        <pt x="615" y="279" on="0"/>
        <pt x="574" y="141" on="0"/>
        <pt x="501" y="42" on="0"/>
        <pt x="399" y="-12" on="0"/>
        <pt x="338" y="-12" on="1"/>
        <pt x="276" y="-12" on="0"/>
        <pt x="175" y="42" on="0"/>
        <pt x="102" y="140" on="0"/>
        <pt x="62" y="277" on="0"/>
        <pt x="62" y="361" on="1"/>
        <pt x="62" y="445" on="0"/>
        <pt x="103" y="583" on="0"/>
        <pt x="176" y="682" on="0"/>
        <pt x="278" y="736" on="0"/>
        <pt x="340" y="736" on="1"/>
        <pt x="401" y="736" on="0"/>
        <pt x="502" y="682" on="0"/>
        <pt x="575" y="585" on="0"/>
        <pt x="615" y="447" on="0"/>
      </contour>
      <contour>
        <pt x="561" y="361" on="1"/>
        <pt x="561" y="432" on="0"/>
        <pt x="530" y="552" on="0"/>
        <pt x="472" y="640" on="0"/>
        <pt x="390" y="690" on="0"/>
        <pt x="339" y="690" on="1"/>
        <pt x="287" y="690" on="0"/>
        <pt x="205" y="641" on="0"/>
        <pt x="148" y="553" on="0"/>
        <pt x="117" y="433" on="0"/>
        <pt x="117" y="363" on="1"/>
        <pt x="117" y="292" on="0"/>
        <pt x="148" y="172" on="0"/>
        <pt x="205" y="84" on="0"/>
        <pt x="288" y="35" on="0"/>
        <pt x="339" y="35" on="1"/>
        <pt x="390" y="35" on="0"/>
        <pt x="473" y="84" on="0"/>
        <pt x="530" y="171" on="0"/>
        <pt x="561" y="290" on="0"/>
      </contour>
    </TTGlyph>
    <TTGlyph name="OE" xMin="61" yMin="0" xMax="782" yMax="725">
      <contour>
        <pt x="396" y="0" on="1"/>
        <pt x="316" y="0" on="0"/>
        <pt x="191" y="51" on="0"/>
        <pt x="106" y="145" on="0"/>
        <pt x="61" y="278" on="0"/>
        <pt x="61" y="361" on="1"/>
        <pt x="61" y="446" on="0"/>
        <pt x="109" y="582" on="0"/>
        <pt x="197" y="675" on="0"/>
        <pt x="321" y="725" on="0"/>
        <pt x="398" y="725" on="1"/>
        <pt x="772" y="725" on="1"/>
        <pt x="772" y="678" on="1"/>
        <pt x="494" y="678" on="1"/>
        <pt x="494" y="404" on="1"/>
        <pt x="715" y="404" on="1"/>
        <pt x="723" y="356" on="1"/>
        <pt x="494" y="356" on="1"/>
        <pt x="494" y="47" on="1"/>
        <pt x="782" y="47" on="1"/>
        <pt x="782" y="0" on="1"/>
      </contour>
      <contour>
        <pt x="442" y="678" on="1"/>
        <pt x="391" y="678" on="1"/>
        <pt x="329" y="678" on="0"/>
        <pt x="227" y="638" on="0"/>
        <pt x="155" y="558" on="0"/>
        <pt x="116" y="440" on="0"/>
        <pt x="116" y="362" on="1"/>
        <pt x="116" y="286" on="0"/>
        <pt x="155" y="168" on="0"/>
        <pt x="228" y="88" on="0"/>
        <pt x="331" y="47" on="0"/>
        <pt x="394" y="47" on="1"/>
        <pt x="442" y="47" on="1"/>
      </contour>
    </TTGlyph>
    <TTGlyph name="OE.flat" xMin="61" yMin="0" xMax="782" yMax="725">
      <contour>
        <pt x="396" y="0" on="1"/>
        <pt x="316" y="0" on="0"/>
        <pt x="191" y="51" on="0"/>
        <pt x="106" y="145" on="0"/>
        <pt x="61" y="278" on="0"/>
        <pt x="61" y="361" on="1"/>
        <pt x="61" y="446" on="0"/>
        <pt x="109" y="582" on="0"/>
        <pt x="197" y="675" on="0"/>
        <pt x="321" y="725" on="0"/>
        <pt x="398" y="725" on="1"/>
        <pt x="772" y="725" on="1"/>
        <pt x="772" y="678" on="1"/>
        <pt x="494" y="678" on="1"/>
        <pt x="494" y="404" on="1"/>
        <pt x="719" y="404" on="1"/>
        <pt x="719" y="356" on="1"/>
        <pt x="494" y="356" on="1"/>
        <pt x="494" y="47" on="1"/>
        <pt x="782" y="47" on="1"/>
        <pt x="782" y="0" on="1"/>
      </contour>
      <contour>
        <pt x="442" y="678" on="1"/>
        <pt x="391" y="678" on="1"/>
        <pt x="329" y="678" on="0"/>
        <pt x="227" y="638" on="0"/>
        <pt x="155" y="558" on="0"/>
        <pt x="116" y="440" on="0"/>
        <pt x="116" y="362" on="1"/>
        <pt x="116" y="286" on="0"/>
        <pt x="155" y="168" on="0"/>
        <pt x="228" y="88" on="0"/>
        <pt x="331" y="47" on="0"/>
        <pt x="394" y="47" on="1"/>
        <pt x="442" y="47" on="1"/>
      </contour>
    </TTGlyph>
    <TTGlyph name="Oacute" xMin="62" yMin="-12" xMax="615" yMax="936">
      <component glyphName="acute.cap" x="172" y="225" flags="0x4"/>
      <component glyphName="O" x="0" y="0" flags="0x4"/>
    </TTGlyph>
    <TTGlyph name="Obreve" xMin="62" yMin="-12" xMax="615" yMax="911">
      <component glyphName="breve.cap" x="118" y="225" flags="0x4"/>
      <component glyphName="O" x="0" y="0" flags="0x4"/>
    </TTGlyph>
    <TTGlyph name="Ocircumflex" xMin="62" yMin="-12" xMax="615" yMax="934">
      <component glyphName="O" x="0" y="0" flags="0x4"/>
      <component glyphName="circumflex.cap" x="118" y="225" flags="0x4"/>
    </TTGlyph>
    <TTGlyph name="Odieresis" xMin="62" yMin="-12" xMax="615" yMax="879">
      <component glyphName="dieresis.cap" x="118" y="225" flags="0x4"/>
      <component glyphName="O" x="0" y="0" flags="0x4"/>
    </TTGlyph>
    <TTGlyph name="Ograve" xMin="62" yMin="-12" xMax="615" yMax="936">
      <component glyphName="grave.cap" x="61" y="225" flags="0x4"/>
      <component glyphName="O" x="0" y="0" flags="0x4"/>
    </TTGlyph>
    <TTGlyph name="Ohungarumlaut" xMin="62" yMin="-12" xMax="615" yMax="939">
      <component glyphName="O" x="0" y="0" flags="0x4"/>
      <component glyphName="hungarumlaut.cap" x="169" y="225" flags="0x4"/>
    </TTGlyph>
    <TTGlyph name="Omacron" xMin="62" yMin="-12" xMax="615" yMax="866">
      <component glyphName="macron.cap" x="118" y="225" flags="0x4"/>
      <component glyphName="O" x="0" y="0" flags="0x4"/>
    </TTGlyph>
    <TTGlyph name="Oslash" xMin="58" yMin="-12" xMax="620" yMax="736">
      <contour>
        <pt x="616" y="363" on="1"/>
        <pt x="616" y="279" on="0"/>
        <pt x="576" y="141" on="0"/>
        <pt x="503" y="42" on="0"/>
        <pt x="400" y="-12" on="0"/>
        <pt x="338" y="-12" on="1"/>
        <pt x="284" y="-12" on="0"/>
        <pt x="193" y="29" on="0"/>
        <pt x="158" y="67" on="1"/>
        <pt x="106" y="-7" on="1"/>
        <pt x="58" y="3" on="1"/>
        <pt x="129" y="104" on="1"/>
        <pt x="97" y="152" on="0"/>
        <pt x="62" y="283" on="0"/>
        <pt x="62" y="361" on="1"/>
        <pt x="62" y="445" on="0"/>
        <pt x="102" y="583" on="0"/>
        <pt x="175" y="682" on="0"/>
        <pt x="278" y="736" on="0"/>
        <pt x="340" y="736" on="1"/>
        <pt x="394" y="736" on="0"/>
        <pt x="484" y="696" on="0"/>
        <pt x="519" y="659" on="1"/>
        <pt x="572" y="732" on="1"/>
        <pt x="620" y="722" on="1"/>
        <pt x="548" y="622" on="1"/>
        <pt x="581" y="573" on="0"/>
        <pt x="616" y="442" on="0"/>
      </contour>
      <contour>
        <pt x="338" y="690" on="1"/>
        <pt x="286" y="690" on="0"/>
        <pt x="204" y="641" on="0"/>
        <pt x="147" y="554" on="0"/>
        <pt x="117" y="434" on="0"/>
        <pt x="117" y="363" on="1"/>
        <pt x="117" y="235" on="0"/>
        <pt x="163" y="149" on="1"/>
        <pt x="490" y="616" on="1"/>
        <pt x="461" y="651" on="0"/>
        <pt x="386" y="690" on="0"/>
      </contour>
      <contour>
        <pt x="562" y="361" on="1"/>
        <pt x="562" y="491" on="0"/>
        <pt x="515" y="577" on="1"/>
        <pt x="188" y="110" on="1"/>
        <pt x="216" y="74" on="0"/>
        <pt x="292" y="34" on="0"/>
        <pt x="340" y="34" on="1"/>
        <pt x="392" y="34" on="0"/>
        <pt x="475" y="83" on="0"/>
        <pt x="532" y="171" on="0"/>
        <pt x="562" y="290" on="0"/>
      </contour>
    </TTGlyph>
    <TTGlyph name="Oslashacute" xMin="58" yMin="-12" xMax="620" yMax="936">
      <component glyphName="Oslash" x="0" y="0" flags="0x204"/>
      <component glyphName="acute.cap" x="173" y="225" flags="0x4"/>
    </TTGlyph>
    <TTGlyph name="Otilde" xMin="62" yMin="-12" xMax="615" yMax="901">
      <component glyphName="tilde.cap" x="121" y="225" flags="0x4"/>
      <component glyphName="O" x="0" y="0" flags="0x4"/>
    </TTGlyph>
    <TTGlyph name="P" xMin="92" yMin="0" xMax="462" yMax="725">
      <contour>
        <pt x="462" y="523" on="1"/>
        <pt x="462" y="472" on="0"/>
        <pt x="427" y="393" on="0"/>
        <pt x="363" y="340" on="0"/>
        <pt x="274" y="313" on="0"/>
        <pt x="221" y="313" on="1"/>
        <pt x="145" y="313" on="1"/>
        <pt x="145" y="0" on="1"/>
        <pt x="92" y="0" on="1"/>
        <pt x="92" y="725" on="1"/>
        <pt x="235" y="725" on="1"/>
        <pt x="344" y="725" on="0"/>
        <pt x="462" y="620" on="0"/>
      </contour>
      <contour>
        <pt x="409" y="522" on="1"/>
        <pt x="409" y="597" on="0"/>
        <pt x="320" y="678" on="0"/>
        <pt x="232" y="678" on="1"/>
        <pt x="145" y="678" on="1"/>
        <pt x="145" y="360" on="1"/>
        <pt x="224" y="360" on="1"/>
        <pt x="315" y="360" on="0"/>
        <pt x="409" y="444" on="0"/>
      </contour>
    </TTGlyph>
    <TTGlyph name="Q" xMin="62" yMin="-142" xMax="616" yMax="736">
      <contour>
        <pt x="616" y="363" on="1"/>
        <pt x="616" y="283" on="0"/>
        <pt x="582" y="156" on="0"/>
        <pt x="521" y="63" on="0"/>
        <pt x="435" y="5" on="0"/>
        <pt x="384" y="-5" on="1"/>
        <pt x="595" y="-89" on="1"/>
        <pt x="586" y="-142" on="1"/>
        <pt x="265" y="-4" on="1"/>
        <pt x="220" y="15" on="0"/>
        <pt x="145" y="76" on="0"/>
        <pt x="91" y="164" on="0"/>
        <pt x="62" y="283" on="0"/>
        <pt x="62" y="361" on="1"/>
        <pt x="62" y="445" on="0"/>
        <pt x="103" y="583" on="0"/>
        <pt x="177" y="682" on="0"/>
        <pt x="279" y="736" on="0"/>
        <pt x="340" y="736" on="1"/>
        <pt x="401" y="736" on="0"/>
        <pt x="503" y="682" on="0"/>
        <pt x="576" y="585" on="0"/>
        <pt x="616" y="447" on="0"/>
      </contour>
      <contour>
        <pt x="561" y="361" on="1"/>
        <pt x="561" y="432" on="0"/>
        <pt x="530" y="553" on="0"/>
        <pt x="472" y="641" on="0"/>
        <pt x="390" y="690" on="0"/>
        <pt x="339" y="690" on="1"/>
        <pt x="287" y="690" on="0"/>
        <pt x="205" y="641" on="0"/>
        <pt x="148" y="554" on="0"/>
        <pt x="117" y="434" on="0"/>
        <pt x="117" y="363" on="1"/>
        <pt x="117" y="292" on="0"/>
        <pt x="148" y="172" on="0"/>
        <pt x="206" y="84" on="0"/>
        <pt x="288" y="34" on="0"/>
        <pt x="339" y="34" on="1"/>
        <pt x="391" y="34" on="0"/>
        <pt x="473" y="83" on="0"/>
        <pt x="530" y="170" on="0"/>
        <pt x="561" y="290" on="0"/>
      </contour>
    </TTGlyph>
    <TTGlyph name="Q.alt" xMin="62" yMin="-15" xMax="630" yMax="736">
      <contour>
        <pt x="620" y="-15" on="1"/>
        <pt x="523" y="73" on="1"/>
        <pt x="487" y="32" on="0"/>
        <pt x="394" y="-12" on="0"/>
        <pt x="338" y="-12" on="1"/>
        <pt x="276" y="-12" on="0"/>
        <pt x="175" y="42" on="0"/>
        <pt x="102" y="140" on="0"/>
        <pt x="62" y="277" on="0"/>
        <pt x="62" y="361" on="1"/>
        <pt x="62" y="445" on="0"/>
        <pt x="103" y="583" on="0"/>
        <pt x="176" y="682" on="0"/>
        <pt x="278" y="736" on="0"/>
        <pt x="340" y="736" on="1"/>
        <pt x="401" y="736" on="0"/>
        <pt x="503" y="682" on="0"/>
        <pt x="576" y="585" on="0"/>
        <pt x="616" y="447" on="0"/>
        <pt x="616" y="363" on="1"/>
        <pt x="616" y="287" on="0"/>
        <pt x="582" y="159" on="0"/>
        <pt x="551" y="110" on="1"/>
        <pt x="630" y="41" on="1"/>
      </contour>
      <contour>
        <pt x="562" y="361" on="1"/>
        <pt x="562" y="432" on="0"/>
        <pt x="531" y="552" on="0"/>
        <pt x="473" y="640" on="0"/>
        <pt x="390" y="690" on="0"/>
        <pt x="339" y="690" on="1"/>
        <pt x="287" y="690" on="0"/>
        <pt x="205" y="641" on="0"/>
        <pt x="148" y="554" on="0"/>
        <pt x="117" y="434" on="0"/>
        <pt x="117" y="363" on="1"/>
        <pt x="117" y="292" on="0"/>
        <pt x="148" y="172" on="0"/>
        <pt x="205" y="84" on="0"/>
        <pt x="288" y="35" on="0"/>
        <pt x="339" y="35" on="1"/>
        <pt x="385" y="35" on="0"/>
        <pt x="459" y="72" on="0"/>
        <pt x="487" y="105" on="1"/>
        <pt x="327" y="243" on="1"/>
        <pt x="387" y="255" on="1"/>
        <pt x="513" y="143" on="1"/>
        <pt x="562" y="230" on="0"/>
      </contour>
    </TTGlyph>
    <TTGlyph name="Q.alt_flat" xMin="62" yMin="-18" xMax="626" yMax="736">
      <contour>
        <pt x="626" y="-18" on="1"/>
        <pt x="523" y="74" on="1"/>
        <pt x="488" y="32" on="0"/>
        <pt x="394" y="-12" on="0"/>
        <pt x="338" y="-12" on="1"/>
        <pt x="276" y="-12" on="0"/>
        <pt x="175" y="42" on="0"/>
        <pt x="102" y="140" on="0"/>
        <pt x="62" y="277" on="0"/>
        <pt x="62" y="361" on="1"/>
        <pt x="62" y="445" on="0"/>
        <pt x="103" y="583" on="0"/>
        <pt x="176" y="682" on="0"/>
        <pt x="278" y="736" on="0"/>
        <pt x="340" y="736" on="1"/>
        <pt x="401" y="736" on="0"/>
        <pt x="503" y="682" on="0"/>
        <pt x="576" y="585" on="0"/>
        <pt x="616" y="447" on="0"/>
        <pt x="616" y="363" on="1"/>
        <pt x="616" y="287" on="0"/>
        <pt x="582" y="159" on="0"/>
        <pt x="551" y="111" on="1"/>
        <pt x="626" y="47" on="1"/>
      </contour>
      <contour>
        <pt x="562" y="361" on="1"/>
        <pt x="562" y="432" on="0"/>
        <pt x="531" y="552" on="0"/>
        <pt x="473" y="640" on="0"/>
        <pt x="390" y="690" on="0"/>
        <pt x="339" y="690" on="1"/>
        <pt x="287" y="690" on="0"/>
        <pt x="205" y="641" on="0"/>
        <pt x="148" y="554" on="0"/>
        <pt x="117" y="434" on="0"/>
        <pt x="117" y="363" on="1"/>
        <pt x="117" y="292" on="0"/>
        <pt x="148" y="172" on="0"/>
        <pt x="205" y="84" on="0"/>
        <pt x="288" y="35" on="0"/>
        <pt x="339" y="35" on="1"/>
        <pt x="385" y="35" on="0"/>
        <pt x="459" y="72" on="0"/>
        <pt x="487" y="105" on="1"/>
        <pt x="360" y="214" on="1"/>
        <pt x="360" y="278" on="1"/>
        <pt x="513" y="142" on="1"/>
        <pt x="562" y="229" on="0"/>
      </contour>
    </TTGlyph>
    <TTGlyph name="R" xMin="92" yMin="-7" xMax="514" yMax="725">
      <contour>
        <pt x="458" y="-7" on="1"/>
        <pt x="243" y="325" on="1"/>
        <pt x="145" y="325" on="1"/>
        <pt x="145" y="0" on="1"/>
        <pt x="92" y="0" on="1"/>
        <pt x="92" y="725" on="1"/>
        <pt x="239" y="725" on="1"/>
        <pt x="345" y="725" on="0"/>
        <pt x="463" y="620" on="0"/>
        <pt x="463" y="528" on="1"/>
        <pt x="463" y="488" on="0"/>
        <pt x="438" y="423" on="0"/>
        <pt x="394" y="374" on="0"/>
        <pt x="334" y="341" on="0"/>
        <pt x="300" y="334" on="1"/>
        <pt x="514" y="5" on="1"/>
      </contour>
      <contour>
        <pt x="409" y="527" on="1"/>
        <pt x="409" y="599" on="0"/>
        <pt x="321" y="678" on="0"/>
        <pt x="236" y="678" on="1"/>
        <pt x="145" y="678" on="1"/>
        <pt x="145" y="371" on="1"/>
        <pt x="226" y="371" on="1"/>
        <pt x="314" y="371" on="0"/>
        <pt x="409" y="454" on="0"/>
      </contour>
    </TTGlyph>
    <TTGlyph name="R.flat" xMin="92" yMin="0" xMax="516" yMax="725">
      <contour>
        <pt x="454" y="0" on="1"/>
        <pt x="243" y="325" on="1"/>
        <pt x="145" y="325" on="1"/>
        <pt x="145" y="0" on="1"/>
        <pt x="92" y="0" on="1"/>
        <pt x="92" y="725" on="1"/>
        <pt x="239" y="725" on="1"/>
        <pt x="345" y="725" on="0"/>
        <pt x="463" y="620" on="0"/>
        <pt x="463" y="528" on="1"/>
        <pt x="463" y="488" on="0"/>
        <pt x="438" y="423" on="0"/>
        <pt x="394" y="374" on="0"/>
        <pt x="334" y="341" on="0"/>
        <pt x="300" y="334" on="1"/>
        <pt x="516" y="0" on="1"/>
      </contour>
      <contour>
        <pt x="409" y="527" on="1"/>
        <pt x="409" y="599" on="0"/>
        <pt x="321" y="678" on="0"/>
        <pt x="236" y="678" on="1"/>
        <pt x="145" y="678" on="1"/>
        <pt x="145" y="371" on="1"/>
        <pt x="226" y="371" on="1"/>
        <pt x="314" y="371" on="0"/>
        <pt x="409" y="454" on="0"/>
      </contour>
    </TTGlyph>
    <TTGlyph name="R_p" xMin="98" yMin="-190" xMax="921" yMax="717">
      <contour>
        <pt x="243" y="325" on="1"/>
        <pt x="150" y="325" on="1"/>
        <pt x="150" y="0" on="1"/>
        <pt x="98" y="0" on="1"/>
        <pt x="98" y="717" on="1"/>
        <pt x="241" y="717" on="1"/>
        <pt x="346" y="717" on="0"/>
        <pt x="465" y="615" on="0"/>
        <pt x="465" y="524" on="1"/>
        <pt x="465" y="485" on="0"/>
        <pt x="440" y="421" on="0"/>
        <pt x="395" y="373" on="0"/>
        <pt x="335" y="340" on="0"/>
        <pt x="301" y="333" on="1"/>
        <pt x="504" y="5" on="1"/>
        <pt x="448" y="-7" on="1"/>
      </contour>
      <contour>
        <pt x="921" y="259" on="1"/>
        <pt x="921" y="192" on="0"/>
        <pt x="887" y="92" on="0"/>
        <pt x="830" y="26" on="0"/>
        <pt x="756" y="-6" on="0"/>
        <pt x="715" y="-6" on="1"/>
        <pt x="684" y="-6" on="0"/>
        <pt x="632" y="6" on="0"/>
        <pt x="607" y="17" on="1"/>
        <pt x="607" y="-180" on="1"/>
        <pt x="556" y="-190" on="1"/>
        <pt x="556" y="494" on="1"/>
        <pt x="593" y="494" on="1"/>
        <pt x="605" y="426" on="1"/>
        <pt x="635" y="461" on="0"/>
        <pt x="699" y="504" on="0"/>
        <pt x="744" y="504" on="1"/>
        <pt x="781" y="504" on="0"/>
        <pt x="846" y="474" on="0"/>
        <pt x="894" y="413" on="0"/>
        <pt x="921" y="321" on="0"/>
      </contour>
      <contour>
        <pt x="868" y="258" on="1"/>
        <pt x="868" y="357" on="0"/>
        <pt x="798" y="458" on="0"/>
        <pt x="741" y="458" on="1"/>
        <pt x="706" y="458" on="0"/>
        <pt x="642" y="415" on="0"/>
        <pt x="607" y="376" on="1"/>
        <pt x="607" y="64" on="1"/>
        <pt x="633" y="53" on="0"/>
        <pt x="683" y="39" on="0"/>
        <pt x="712" y="39" on="1"/>
        <pt x="745" y="39" on="0"/>
        <pt x="802" y="65" on="0"/>
        <pt x="844" y="119" on="0"/>
        <pt x="868" y="202" on="0"/>
      </contour>
      <contour>
        <pt x="228" y="370" on="1"/>
        <pt x="316" y="370" on="0"/>
        <pt x="410" y="451" on="0"/>
        <pt x="410" y="523" on="1"/>
        <pt x="410" y="594" on="0"/>
        <pt x="323" y="671" on="0"/>
        <pt x="238" y="671" on="1"/>
        <pt x="150" y="671" on="1"/>
        <pt x="150" y="370" on="1"/>
      </contour>
    </TTGlyph>
    <TTGlyph name="R_p.flat" xMin="98" yMin="-190" xMax="921" yMax="717">
      <contour>
        <pt x="243" y="325" on="1"/>
        <pt x="150" y="325" on="1"/>
        <pt x="150" y="0" on="1"/>
        <pt x="98" y="0" on="1"/>
        <pt x="98" y="717" on="1"/>
        <pt x="241" y="717" on="1"/>
        <pt x="346" y="717" on="0"/>
        <pt x="465" y="615" on="0"/>
        <pt x="465" y="524" on="1"/>
        <pt x="465" y="485" on="0"/>
        <pt x="440" y="421" on="0"/>
        <pt x="395" y="373" on="0"/>
        <pt x="335" y="340" on="0"/>
        <pt x="301" y="333" on="1"/>
        <pt x="506" y="0" on="1"/>
        <pt x="444" y="0" on="1"/>
      </contour>
      <contour>
        <pt x="921" y="259" on="1"/>
        <pt x="921" y="192" on="0"/>
        <pt x="887" y="92" on="0"/>
        <pt x="830" y="26" on="0"/>
        <pt x="756" y="-6" on="0"/>
        <pt x="715" y="-6" on="1"/>
        <pt x="684" y="-6" on="0"/>
        <pt x="632" y="6" on="0"/>
        <pt x="607" y="17" on="1"/>
        <pt x="607" y="-180" on="1"/>
        <pt x="556" y="-190" on="1"/>
        <pt x="556" y="494" on="1"/>
        <pt x="593" y="494" on="1"/>
        <pt x="605" y="426" on="1"/>
        <pt x="635" y="461" on="0"/>
        <pt x="699" y="504" on="0"/>
        <pt x="744" y="504" on="1"/>
        <pt x="781" y="504" on="0"/>
        <pt x="846" y="474" on="0"/>
        <pt x="894" y="413" on="0"/>
        <pt x="921" y="321" on="0"/>
      </contour>
      <contour>
        <pt x="868" y="258" on="1"/>
        <pt x="868" y="357" on="0"/>
        <pt x="798" y="458" on="0"/>
        <pt x="741" y="458" on="1"/>
        <pt x="706" y="458" on="0"/>
        <pt x="642" y="415" on="0"/>
        <pt x="607" y="376" on="1"/>
        <pt x="607" y="64" on="1"/>
        <pt x="633" y="53" on="0"/>
        <pt x="683" y="39" on="0"/>
        <pt x="712" y="39" on="1"/>
        <pt x="745" y="39" on="0"/>
        <pt x="802" y="65" on="0"/>
        <pt x="844" y="119" on="0"/>
        <pt x="868" y="202" on="0"/>
      </contour>
      <contour>
        <pt x="228" y="370" on="1"/>
        <pt x="316" y="370" on="0"/>
        <pt x="410" y="451" on="0"/>
        <pt x="410" y="523" on="1"/>
        <pt x="410" y="594" on="0"/>
        <pt x="323" y="671" on="0"/>
        <pt x="238" y="671" on="1"/>
        <pt x="150" y="671" on="1"/>
        <pt x="150" y="370" on="1"/>
      </contour>
    </TTGlyph>
    <TTGlyph name="Racute" xMin="92" yMin="-7" xMax="514" yMax="926">
      <component glyphName="R" x="0" y="0" flags="0x204"/>
      <component glyphName="acute.cap" x="84" y="215" flags="0x4"/>
    </TTGlyph>
    <TTGlyph name="Racute.flat" xMin="92" yMin="0" xMax="516" yMax="926">
      <component glyphName="acute.cap" x="84" y="215" flags="0x4"/>
      <component glyphName="R.flat" x="0" y="0" flags="0x4"/>
    </TTGlyph>
    <TTGlyph name="Rcaron" xMin="92" yMin="-7" xMax="514" yMax="924">
      <component glyphName="caron.cap" x="30" y="215" flags="0x4"/>
      <component glyphName="R" x="0" y="0" flags="0x4"/>
    </TTGlyph>
    <TTGlyph name="Rcaron.flat" xMin="92" yMin="0" xMax="516" yMax="924">
      <component glyphName="caron.cap" x="30" y="215" flags="0x4"/>
      <component glyphName="R.flat" x="0" y="0" flags="0x4"/>
    </TTGlyph>
    <TTGlyph name="Rcommaaccent" xMin="92" yMin="-230" xMax="514" yMax="725">
      <component glyphName="R" x="0" y="0" flags="0x204"/>
      <component glyphName="commaaccent.cap" x="65" y="1" flags="0x4"/>
    </TTGlyph>
    <TTGlyph name="Rcommaaccent.flat" xMin="92" yMin="-230" xMax="516" yMax="725">
      <component glyphName="R.flat" x="0" y="0" flags="0x204"/>
      <component glyphName="commaaccent.cap" x="65" y="1" flags="0x4"/>
    </TTGlyph>
    <TTGlyph name="S" xMin="59" yMin="-7" xMax="431" yMax="732">
      <contour>
        <pt x="431" y="182" on="1"/>
        <pt x="431" y="139" on="0"/>
        <pt x="400" y="69" on="0"/>
        <pt x="346" y="20" on="0"/>
        <pt x="271" y="-7" on="0"/>
        <pt x="228" y="-7" on="1"/>
        <pt x="176" y="-7" on="0"/>
        <pt x="91" y="18" on="0"/>
        <pt x="59" y="36" on="1"/>
        <pt x="67" y="89" on="1"/>
        <pt x="99" y="69" on="0"/>
        <pt x="184" y="40" on="0"/>
        <pt x="231" y="40" on="1"/>
        <pt x="264" y="40" on="0"/>
        <pt x="318" y="60" on="0"/>
        <pt x="357" y="97" on="0"/>
        <pt x="378" y="148" on="0"/>
        <pt x="378" y="179" on="1"/>
        <pt x="378" y="206" on="0"/>
        <pt x="363" y="250" on="0"/>
        <pt x="331" y="290" on="0"/>
        <pt x="278" y="329" on="0"/>
        <pt x="241" y="351" on="1"/>
        <pt x="197" y="376" on="0"/>
        <pt x="133" y="421" on="0"/>
        <pt x="92" y="469" on="0"/>
        <pt x="72" y="526" on="0"/>
        <pt x="72" y="562" on="1"/>
        <pt x="72" y="599" on="0"/>
        <pt x="101" y="662" on="0"/>
        <pt x="151" y="707" on="0"/>
        <pt x="218" y="732" on="0"/>
        <pt x="257" y="732" on="1"/>
        <pt x="303" y="732" on="0"/>
        <pt x="373" y="712" on="0"/>
        <pt x="399" y="696" on="1"/>
        <pt x="391" y="643" on="1"/>
        <pt x="362" y="662" on="0"/>
        <pt x="297" y="685" on="0"/>
        <pt x="255" y="685" on="1"/>
        <pt x="196" y="685" on="0"/>
        <pt x="126" y="616" on="0"/>
        <pt x="126" y="564" on="1"/>
        <pt x="126" y="538" on="0"/>
        <pt x="141" y="497" on="0"/>
        <pt x="173" y="459" on="0"/>
        <pt x="225" y="422" on="0"/>
        <pt x="263" y="401" on="1"/>
        <pt x="306" y="376" on="0"/>
        <pt x="370" y="328" on="0"/>
        <pt x="411" y="277" on="0"/>
        <pt x="431" y="218" on="0"/>
      </contour>
    </TTGlyph>
    <TTGlyph name="Sacute" xMin="59" yMin="-7" xMax="431" yMax="936">
      <component glyphName="S" x="0" y="0" flags="0x4"/>
      <component glyphName="acute.cap" x="82" y="225" flags="0x4"/>
    </TTGlyph>
    <TTGlyph name="Scaron" xMin="59" yMin="-7" xMax="431" yMax="934">
      <component glyphName="S" x="0" y="0" flags="0x4"/>
      <component glyphName="caron.cap" x="28" y="225" flags="0x4"/>
    </TTGlyph>
    <TTGlyph name="Scedilla" xMin="59" yMin="-194" xMax="431" yMax="732">
      <component glyphName="S" x="0" y="0" flags="0x4"/>
      <component glyphName="cedilla.cap" x="13" y="0" flags="0x4"/>
    </TTGlyph>
    <TTGlyph name="Scommaaccent" xMin="59" yMin="-231" xMax="431" yMax="732">
      <component glyphName="S" x="0" y="0" flags="0x4"/>
      <component glyphName="commaaccent.cap" x="41" y="0" flags="0x4"/>
    </TTGlyph>
    <TTGlyph name="T" xMin="31" yMin="0" xMax="491" yMax="725">
      <contour>
        <pt x="285" y="677" on="1"/>
        <pt x="285" y="0" on="1"/>
        <pt x="233" y="0" on="1"/>
        <pt x="233" y="677" on="1"/>
        <pt x="31" y="677" on="1"/>
        <pt x="31" y="725" on="1"/>
        <pt x="484" y="725" on="1"/>
        <pt x="491" y="677" on="1"/>
      </contour>
    </TTGlyph>
    <TTGlyph name="T.flat" xMin="31" yMin="0" xMax="487" yMax="725">
      <contour>
        <pt x="285" y="677" on="1"/>
        <pt x="285" y="0" on="1"/>
        <pt x="233" y="0" on="1"/>
        <pt x="233" y="677" on="1"/>
        <pt x="31" y="677" on="1"/>
        <pt x="31" y="725" on="1"/>
        <pt x="487" y="725" on="1"/>
        <pt x="487" y="677" on="1"/>
      </contour>
    </TTGlyph>
    <TTGlyph name="Tcaron" xMin="31" yMin="0" xMax="491" yMax="924">
      <component glyphName="caron.cap" x="39" y="215" flags="0x4"/>
      <component glyphName="T" x="0" y="0" flags="0x4"/>
    </TTGlyph>
    <TTGlyph name="Tcaron.flat" xMin="31" yMin="0" xMax="487" yMax="924">
      <component glyphName="caron.cap" x="39" y="215" flags="0x4"/>
      <component glyphName="T.flat" x="0" y="0" flags="0x4"/>
    </TTGlyph>
    <TTGlyph name="Tcommaaccent" xMin="31" yMin="-231" xMax="491" yMax="725">
      <component glyphName="T" x="0" y="0" flags="0x204"/>
      <component glyphName="commaaccent.cap" x="53" y="0" flags="0x4"/>
    </TTGlyph>
    <TTGlyph name="Tcommaaccent.flat" xMin="31" yMin="-231" xMax="487" yMax="725">
      <component glyphName="T.flat" x="0" y="0" flags="0x204"/>
      <component glyphName="commaaccent.cap" x="53" y="0" flags="0x4"/>
    </TTGlyph>
    <TTGlyph name="Thorn" xMin="92" yMin="0" xMax="465" yMax="725">
      <contour>
        <pt x="465" y="375" on="1"/>
        <pt x="465" y="324" on="0"/>
        <pt x="429" y="246" on="0"/>
        <pt x="365" y="192" on="0"/>
        <pt x="277" y="165" on="0"/>
        <pt x="224" y="165" on="1"/>
        <pt x="145" y="165" on="1"/>
        <pt x="145" y="0" on="1"/>
        <pt x="92" y="0" on="1"/>
        <pt x="92" y="725" on="1"/>
        <pt x="145" y="725" on="1"/>
        <pt x="145" y="577" on="1"/>
        <pt x="238" y="577" on="1"/>
        <pt x="346" y="577" on="0"/>
        <pt x="465" y="472" on="0"/>
      </contour>
      <contour>
        <pt x="410" y="374" on="1"/>
        <pt x="410" y="450" on="0"/>
        <pt x="323" y="531" on="0"/>
        <pt x="235" y="531" on="1"/>
        <pt x="145" y="531" on="1"/>
        <pt x="145" y="212" on="1"/>
        <pt x="226" y="212" on="1"/>
        <pt x="317" y="212" on="0"/>
        <pt x="410" y="296" on="0"/>
      </contour>
    </TTGlyph>
    <TTGlyph name="U" xMin="83" yMin="-9" xMax="543" yMax="725">
      <contour>
        <pt x="543" y="248" on="1"/>
        <pt x="543" y="189" on="0"/>
        <pt x="512" y="94" on="0"/>
        <pt x="452" y="27" on="0"/>
        <pt x="366" y="-9" on="0"/>
        <pt x="311" y="-9" on="1"/>
        <pt x="255" y="-9" on="0"/>
        <pt x="170" y="28" on="0"/>
        <pt x="113" y="95" on="0"/>
        <pt x="83" y="189" on="0"/>
        <pt x="83" y="245" on="1"/>
        <pt x="83" y="725" on="1"/>
        <pt x="136" y="725" on="1"/>
        <pt x="136" y="250" on="1"/>
        <pt x="136" y="203" on="0"/>
        <pt x="158" y="125" on="0"/>
        <pt x="201" y="69" on="0"/>
        <pt x="268" y="38" on="0"/>
        <pt x="313" y="38" on="1"/>
        <pt x="357" y="38" on="0"/>
        <pt x="424" y="68" on="0"/>
        <pt x="469" y="123" on="0"/>
        <pt x="491" y="200" on="0"/>
        <pt x="491" y="247" on="1"/>
        <pt x="491" y="725" on="1"/>
        <pt x="543" y="725" on="1"/>
      </contour>
    </TTGlyph>
    <TTGlyph name="U.alt" xMin="90" yMin="-8" xMax="545" yMax="725">
      <contour>
        <pt x="496" y="81" on="1"/>
        <pt x="448" y="40" on="0"/>
        <pt x="344" y="-8" on="0"/>
        <pt x="290" y="-8" on="1"/>
        <pt x="198" y="-8" on="0"/>
        <pt x="90" y="93" on="0"/>
        <pt x="90" y="200" on="1"/>
        <pt x="90" y="725" on="1"/>
        <pt x="143" y="725" on="1"/>
        <pt x="143" y="203" on="1"/>
        <pt x="143" y="119" on="0"/>
        <pt x="222" y="39" on="0"/>
        <pt x="294" y="39" on="1"/>
        <pt x="345" y="39" on="0"/>
        <pt x="442" y="88" on="0"/>
        <pt x="492" y="132" on="1"/>
        <pt x="492" y="725" on="1"/>
        <pt x="545" y="725" on="1"/>
        <pt x="545" y="0" on="1"/>
        <pt x="508" y="0" on="1"/>
      </contour>
    </TTGlyph>
    <TTGlyph name="Uacute" xMin="83" yMin="-9" xMax="543" yMax="925">
      <component glyphName="acute.cap" x="145" y="214" flags="0x4"/>
      <component glyphName="U" x="0" y="0" flags="0x4"/>
    </TTGlyph>
    <TTGlyph name="Uacute.alt" xMin="90" yMin="-8" xMax="545" yMax="925">
      <component glyphName="acute.cap" x="149" y="214" flags="0x4"/>
      <component glyphName="U.alt" x="0" y="0" flags="0x4"/>
    </TTGlyph>
    <TTGlyph name="Ubreve" xMin="83" yMin="-9" xMax="543" yMax="891">
      <component glyphName="breve.cap" x="92" y="205" flags="0x4"/>
      <component glyphName="U" x="0" y="0" flags="0x4"/>
    </TTGlyph>
    <TTGlyph name="Ubreve.alt" xMin="90" yMin="-8" xMax="545" yMax="891">
      <component glyphName="breve.cap" x="95" y="205" flags="0x4"/>
      <component glyphName="U.alt" x="0" y="0" flags="0x4"/>
    </TTGlyph>
    <TTGlyph name="Ucircumflex" xMin="83" yMin="-9" xMax="543" yMax="923">
      <component glyphName="U" x="0" y="0" flags="0x204"/>
      <component glyphName="circumflex.cap" x="91" y="214" flags="0x4"/>
    </TTGlyph>
    <TTGlyph name="Ucircumflex.alt" xMin="90" yMin="-8" xMax="545" yMax="923">
      <component glyphName="circumflex.cap" x="95" y="214" flags="0x4"/>
      <component glyphName="U.alt" x="0" y="0" flags="0x4"/>
    </TTGlyph>
    <TTGlyph name="Udieresis" xMin="83" yMin="-9" xMax="543" yMax="868">
      <component glyphName="dieresis.cap" x="91" y="214" flags="0x4"/>
      <component glyphName="U" x="0" y="0" flags="0x4"/>
    </TTGlyph>
    <TTGlyph name="Udieresis.alt" xMin="90" yMin="-8" xMax="545" yMax="868">
      <component glyphName="dieresis.cap" x="95" y="214" flags="0x4"/>
      <component glyphName="U.alt" x="0" y="0" flags="0x4"/>
    </TTGlyph>
    <TTGlyph name="Ugrave" xMin="83" yMin="-9" xMax="543" yMax="925">
      <component glyphName="grave.cap" x="34" y="214" flags="0x4"/>
      <component glyphName="U" x="0" y="0" flags="0x4"/>
    </TTGlyph>
    <TTGlyph name="Ugrave.alt" xMin="90" yMin="-8" xMax="545" yMax="925">
      <component glyphName="grave.cap" x="38" y="214" flags="0x4"/>
      <component glyphName="U.alt" x="0" y="0" flags="0x4"/>
    </TTGlyph>
    <TTGlyph name="Uhungarumlaut" xMin="83" yMin="-9" xMax="543" yMax="928">
      <component glyphName="U" x="0" y="0" flags="0x204"/>
      <component glyphName="hungarumlaut.cap" x="143" y="214" flags="0x4"/>
    </TTGlyph>
    <TTGlyph name="Uhungarumlaut.alt" xMin="90" yMin="-8" xMax="545" yMax="928">
      <component glyphName="U.alt" x="0" y="0" flags="0x4"/>
      <component glyphName="hungarumlaut.cap" x="146" y="214" flags="0x4"/>
    </TTGlyph>
    <TTGlyph name="Umacron" xMin="83" yMin="-9" xMax="543" yMax="855">
      <component glyphName="macron.cap" x="92" y="214" flags="0x4"/>
      <component glyphName="U" x="0" y="0" flags="0x4"/>
    </TTGlyph>
    <TTGlyph name="Umacron.alt" xMin="90" yMin="-8" xMax="545" yMax="855">
      <component glyphName="macron.cap" x="95" y="214" flags="0x4"/>
      <component glyphName="U.alt" x="0" y="0" flags="0x4"/>
    </TTGlyph>
    <TTGlyph name="Uogonek" xMin="83" yMin="-171" xMax="543" yMax="725">
      <contour>
        <pt x="319" y="-171" on="1"/>
        <pt x="284" y="-171" on="0"/>
        <pt x="247" y="-138" on="0"/>
        <pt x="247" y="-109" on="1"/>
        <pt x="247" y="-86" on="0"/>
        <pt x="270" y="-43" on="0"/>
        <pt x="294" y="-9" on="1"/>
        <pt x="243" y="-6" on="0"/>
        <pt x="164" y="34" on="0"/>
        <pt x="110" y="100" on="0"/>
        <pt x="83" y="191" on="0"/>
        <pt x="83" y="245" on="1"/>
        <pt x="83" y="725" on="1"/>
        <pt x="136" y="725" on="1"/>
        <pt x="136" y="250" on="1"/>
        <pt x="136" y="203" on="0"/>
        <pt x="158" y="125" on="0"/>
        <pt x="201" y="69" on="0"/>
        <pt x="268" y="38" on="0"/>
        <pt x="313" y="38" on="1"/>
        <pt x="357" y="38" on="0"/>
        <pt x="424" y="68" on="0"/>
        <pt x="469" y="123" on="0"/>
        <pt x="491" y="200" on="0"/>
        <pt x="491" y="247" on="1"/>
        <pt x="491" y="725" on="1"/>
        <pt x="543" y="725" on="1"/>
        <pt x="543" y="248" on="1"/>
        <pt x="543" y="192" on="0"/>
        <pt x="515" y="102" on="0"/>
        <pt x="463" y="36" on="0"/>
        <pt x="386" y="-4" on="0"/>
        <pt x="337" y="-8" on="1"/>
        <pt x="326" y="-24" on="1"/>
        <pt x="309" y="-50" on="0"/>
        <pt x="293" y="-82" on="0"/>
        <pt x="293" y="-99" on="1"/>
        <pt x="293" y="-134" on="0"/>
        <pt x="331" y="-134" on="1"/>
        <pt x="342" y="-134" on="0"/>
        <pt x="364" y="-129" on="0"/>
        <pt x="375" y="-126" on="1"/>
        <pt x="377" y="-160" on="1"/>
        <pt x="350" y="-171" on="0"/>
      </contour>
    </TTGlyph>
    <TTGlyph name="Uogonek.alt" xMin="90" yMin="-171" xMax="569" yMax="725">
      <contour>
        <pt x="569" y="-160" on="1"/>
        <pt x="542" y="-171" on="0"/>
        <pt x="511" y="-171" on="1"/>
        <pt x="476" y="-171" on="0"/>
        <pt x="439" y="-138" on="0"/>
        <pt x="439" y="-109" on="1"/>
        <pt x="439" y="-86" on="0"/>
        <pt x="462" y="-43" on="0"/>
        <pt x="486" y="-9" on="1"/>
        <pt x="505" y="18" on="1"/>
        <pt x="496" y="81" on="1"/>
        <pt x="448" y="40" on="0"/>
        <pt x="344" y="-8" on="0"/>
        <pt x="290" y="-8" on="1"/>
        <pt x="198" y="-8" on="0"/>
        <pt x="90" y="93" on="0"/>
        <pt x="90" y="200" on="1"/>
        <pt x="90" y="725" on="1"/>
        <pt x="143" y="725" on="1"/>
        <pt x="143" y="203" on="1"/>
        <pt x="143" y="119" on="0"/>
        <pt x="222" y="39" on="0"/>
        <pt x="294" y="39" on="1"/>
        <pt x="345" y="39" on="0"/>
        <pt x="442" y="88" on="0"/>
        <pt x="492" y="132" on="1"/>
        <pt x="492" y="725" on="1"/>
        <pt x="545" y="725" on="1"/>
        <pt x="545" y="0" on="1"/>
        <pt x="534" y="0" on="1"/>
        <pt x="518" y="-24" on="1"/>
        <pt x="501" y="-50" on="0"/>
        <pt x="485" y="-82" on="0"/>
        <pt x="485" y="-99" on="1"/>
        <pt x="485" y="-134" on="0"/>
        <pt x="523" y="-134" on="1"/>
        <pt x="534" y="-134" on="0"/>
        <pt x="556" y="-129" on="0"/>
        <pt x="567" y="-126" on="1"/>
        <pt x="569" y="-160" on="1"/>
      </contour>
    </TTGlyph>
    <TTGlyph name="Uring" xMin="83" yMin="-9" xMax="543" yMax="950">
      <component glyphName="U" x="0" y="0" flags="0x204"/>
      <component glyphName="ring.cap" x="90" y="202" flags="0x4"/>
    </TTGlyph>
    <TTGlyph name="Uring.alt" xMin="90" yMin="-8" xMax="545" yMax="950">
      <component glyphName="ring.cap" x="94" y="202" flags="0x4"/>
      <component glyphName="U.alt" x="0" y="0" flags="0x4"/>
    </TTGlyph>
    <TTGlyph name="V" xMin="45" yMin="-4" xMax="574" yMax="731">
      <contour>
        <pt x="333" y="-4" on="1"/>
        <pt x="284" y="-4" on="1"/>
        <pt x="45" y="720" on="1"/>
        <pt x="97" y="731" on="1"/>
        <pt x="310" y="70" on="1"/>
        <pt x="520" y="725" on="1"/>
        <pt x="574" y="725" on="1"/>
      </contour>
    </TTGlyph>
    <TTGlyph name="V.flat" xMin="45" yMin="-4" xMax="576" yMax="725">
      <contour>
        <pt x="334" y="-4" on="1"/>
        <pt x="285" y="-4" on="1"/>
        <pt x="45" y="725" on="1"/>
        <pt x="100" y="725" on="1"/>
        <pt x="311" y="70" on="1"/>
        <pt x="522" y="725" on="1"/>
        <pt x="576" y="725" on="1"/>
      </contour>
    </TTGlyph>
    <TTGlyph name="W" xMin="52" yMin="-3" xMax="883" yMax="731">
      <contour>
        <pt x="698" y="-3" on="1"/>
        <pt x="650" y="-3" on="1"/>
        <pt x="466" y="643" on="1"/>
        <pt x="284" y="-3" on="1"/>
        <pt x="236" y="-3" on="1"/>
        <pt x="52" y="720" on="1"/>
        <pt x="103" y="731" on="1"/>
        <pt x="263" y="84" on="1"/>
        <pt x="440" y="725" on="1"/>
        <pt x="493" y="725" on="1"/>
        <pt x="674" y="84" on="1"/>
        <pt x="831" y="725" on="1"/>
        <pt x="883" y="725" on="1"/>
      </contour>
    </TTGlyph>
    <TTGlyph name="W.alt" xMin="45" yMin="-3" xMax="869" yMax="731">
      <contour>
        <pt x="644" y="-3" on="1"/>
        <pt x="596" y="-3" on="1"/>
        <pt x="458" y="441" on="1"/>
        <pt x="318" y="-3" on="1"/>
        <pt x="269" y="-3" on="1"/>
        <pt x="45" y="720" on="1"/>
        <pt x="98" y="731" on="1"/>
        <pt x="296" y="75" on="1"/>
        <pt x="435" y="513" on="1"/>
        <pt x="369" y="720" on="1"/>
        <pt x="422" y="731" on="1"/>
        <pt x="622" y="75" on="1"/>
        <pt x="816" y="725" on="1"/>
        <pt x="869" y="725" on="1"/>
      </contour>
    </TTGlyph>
    <TTGlyph name="W.alt_flat" xMin="44" yMin="-3" xMax="870" yMax="725">
      <contour>
        <pt x="644" y="-3" on="1"/>
        <pt x="596" y="-3" on="1"/>
        <pt x="458" y="441" on="1"/>
        <pt x="318" y="-3" on="1"/>
        <pt x="269" y="-3" on="1"/>
        <pt x="44" y="725" on="1"/>
        <pt x="100" y="725" on="1"/>
        <pt x="296" y="75" on="1"/>
        <pt x="435" y="513" on="1"/>
        <pt x="368" y="725" on="1"/>
        <pt x="424" y="725" on="1"/>
        <pt x="622" y="75" on="1"/>
        <pt x="817" y="725" on="1"/>
        <pt x="870" y="725" on="1"/>
      </contour>
    </TTGlyph>
    <TTGlyph name="W.flat" xMin="51" yMin="-3" xMax="883" yMax="725">
      <contour>
        <pt x="698" y="-3" on="1"/>
        <pt x="650" y="-3" on="1"/>
        <pt x="466" y="643" on="1"/>
        <pt x="284" y="-3" on="1"/>
        <pt x="236" y="-3" on="1"/>
        <pt x="51" y="725" on="1"/>
        <pt x="105" y="725" on="1"/>
        <pt x="263" y="84" on="1"/>
        <pt x="440" y="725" on="1"/>
        <pt x="493" y="725" on="1"/>
        <pt x="674" y="84" on="1"/>
        <pt x="831" y="725" on="1"/>
        <pt x="883" y="725" on="1"/>
      </contour>
    </TTGlyph>
    <TTGlyph name="Wacute" xMin="52" yMin="-3" xMax="883" yMax="926">
      <component glyphName="acute.cap" x="300" y="215" flags="0x4"/>
      <component glyphName="W" x="0" y="0" flags="0x4"/>
    </TTGlyph>
    <TTGlyph name="Wacute.alt" xMin="45" yMin="-3" xMax="869" yMax="926">
      <component glyphName="acute.cap" x="276" y="215" flags="0x4"/>
      <component glyphName="W.alt" x="0" y="0" flags="0x4"/>
    </TTGlyph>
    <TTGlyph name="Wacute.alt_flat" xMin="44" yMin="-3" xMax="870" yMax="926">
      <component glyphName="acute.cap" x="276" y="215" flags="0x4"/>
      <component glyphName="W.alt_flat" x="0" y="0" flags="0x4"/>
    </TTGlyph>
    <TTGlyph name="Wacute.flat" xMin="51" yMin="-3" xMax="883" yMax="926">
      <component glyphName="acute.cap" x="300" y="215" flags="0x4"/>
      <component glyphName="W.flat" x="0" y="0" flags="0x4"/>
    </TTGlyph>
    <TTGlyph name="Wcircumflex" xMin="52" yMin="-3" xMax="883" yMax="922">
      <component glyphName="W" x="0" y="0" flags="0x204"/>
      <component glyphName="circumflex.cap" x="245" y="213" flags="0x4"/>
    </TTGlyph>
    <TTGlyph name="Wcircumflex.alt" xMin="45" yMin="-3" xMax="869" yMax="924">
      <component glyphName="W.alt" x="0" y="0" flags="0x204"/>
      <component glyphName="circumflex.cap" x="222" y="215" flags="0x4"/>
    </TTGlyph>
    <TTGlyph name="Wcircumflex.alt_flat" xMin="44" yMin="-3" xMax="870" yMax="924">
      <component glyphName="W.alt_flat" x="0" y="0" flags="0x204"/>
      <component glyphName="circumflex.cap" x="222" y="215" flags="0x4"/>
    </TTGlyph>
    <TTGlyph name="Wcircumflex.flat" xMin="51" yMin="-3" xMax="883" yMax="922">
      <component glyphName="W.flat" x="0" y="0" flags="0x204"/>
      <component glyphName="circumflex.cap" x="245" y="213" flags="0x4"/>
    </TTGlyph>
    <TTGlyph name="Wdieresis" xMin="52" yMin="-3" xMax="883" yMax="869">
      <component glyphName="dieresis.cap" x="245" y="215" flags="0x4"/>
      <component glyphName="W" x="0" y="0" flags="0x4"/>
    </TTGlyph>
    <TTGlyph name="Wdieresis.alt" xMin="45" yMin="-3" xMax="869" yMax="869">
      <component glyphName="dieresis.cap" x="222" y="215" flags="0x4"/>
      <component glyphName="W.alt" x="0" y="0" flags="0x4"/>
    </TTGlyph>
    <TTGlyph name="Wdieresis.alt_flat" xMin="44" yMin="-3" xMax="870" yMax="869">
      <component glyphName="dieresis.cap" x="222" y="215" flags="0x4"/>
      <component glyphName="W.alt_flat" x="0" y="0" flags="0x4"/>
    </TTGlyph>
    <TTGlyph name="Wdieresis.flat" xMin="51" yMin="-3" xMax="883" yMax="869">
      <component glyphName="dieresis.cap" x="245" y="215" flags="0x4"/>
      <component glyphName="W.flat" x="0" y="0" flags="0x4"/>
    </TTGlyph>
    <TTGlyph name="Wgrave" xMin="52" yMin="-3" xMax="883" yMax="926">
      <component glyphName="grave.cap" x="189" y="215" flags="0x4"/>
      <component glyphName="W" x="0" y="0" flags="0x4"/>
    </TTGlyph>
    <TTGlyph name="Wgrave.alt" xMin="45" yMin="-3" xMax="869" yMax="926">
      <component glyphName="grave.cap" x="165" y="215" flags="0x4"/>
      <component glyphName="W.alt" x="0" y="0" flags="0x4"/>
    </TTGlyph>
    <TTGlyph name="Wgrave.alt_flat" xMin="44" yMin="-3" xMax="870" yMax="926">
      <component glyphName="grave.cap" x="165" y="215" flags="0x4"/>
      <component glyphName="W.alt_flat" x="0" y="0" flags="0x4"/>
    </TTGlyph>
    <TTGlyph name="Wgrave.flat" xMin="51" yMin="-3" xMax="883" yMax="926">
      <component glyphName="grave.cap" x="189" y="215" flags="0x4"/>
      <component glyphName="W.flat" x="0" y="0" flags="0x4"/>
    </TTGlyph>
    <TTGlyph name="X" xMin="39" yMin="-5" xMax="542" yMax="730">
      <contour>
        <pt x="490" y="-5" on="1"/>
        <pt x="291" y="335" on="1"/>
        <pt x="97" y="0" on="1"/>
        <pt x="39" y="0" on="1"/>
        <pt x="263" y="375" on="1"/>
        <pt x="59" y="719" on="1"/>
        <pt x="111" y="730" on="1"/>
        <pt x="292" y="418" on="1"/>
        <pt x="470" y="725" on="1"/>
        <pt x="526" y="725" on="1"/>
        <pt x="321" y="378" on="1"/>
        <pt x="542" y="6" on="1"/>
      </contour>
    </TTGlyph>
    <TTGlyph name="X.flat" xMin="39" yMin="0" xMax="544" yMax="725">
      <contour>
        <pt x="485" y="0" on="1"/>
        <pt x="292" y="334" on="1"/>
        <pt x="97" y="0" on="1"/>
        <pt x="39" y="0" on="1"/>
        <pt x="263" y="375" on="1"/>
        <pt x="55" y="725" on="1"/>
        <pt x="114" y="725" on="1"/>
        <pt x="292" y="417" on="1"/>
        <pt x="471" y="725" on="1"/>
        <pt x="527" y="725" on="1"/>
        <pt x="321" y="377" on="1"/>
        <pt x="544" y="0" on="1"/>
      </contour>
    </TTGlyph>
    <TTGlyph name="Y" xMin="35" yMin="0" xMax="534" yMax="731">
      <contour>
        <pt x="311" y="306" on="1"/>
        <pt x="311" y="0" on="1"/>
        <pt x="258" y="0" on="1"/>
        <pt x="258" y="305" on="1"/>
        <pt x="35" y="720" on="1"/>
        <pt x="90" y="731" on="1"/>
        <pt x="286" y="356" on="1"/>
        <pt x="477" y="725" on="1"/>
        <pt x="534" y="725" on="1"/>
      </contour>
    </TTGlyph>
    <TTGlyph name="Y.flat" xMin="36" yMin="0" xMax="536" yMax="725">
      <contour>
        <pt x="312" y="306" on="1"/>
        <pt x="312" y="0" on="1"/>
        <pt x="259" y="0" on="1"/>
        <pt x="259" y="305" on="1"/>
        <pt x="36" y="725" on="1"/>
        <pt x="96" y="725" on="1"/>
        <pt x="287" y="356" on="1"/>
        <pt x="478" y="725" on="1"/>
        <pt x="536" y="725" on="1"/>
      </contour>
    </TTGlyph>
    <TTGlyph name="Yacute" xMin="35" yMin="0" xMax="534" yMax="921">
      <component glyphName="Y" x="0" y="0" flags="0x204"/>
      <component glyphName="acute.cap" x="118" y="210" flags="0x4"/>
    </TTGlyph>
    <TTGlyph name="Yacute.flat" xMin="36" yMin="0" xMax="536" yMax="921">
      <component glyphName="acute.cap" x="119" y="210" flags="0x4"/>
      <component glyphName="Y.flat" x="0" y="0" flags="0x4"/>
    </TTGlyph>
    <TTGlyph name="Ycircumflex" xMin="35" yMin="0" xMax="534" yMax="923">
      <component glyphName="Y" x="0" y="0" flags="0x204"/>
      <component glyphName="circumflex.cap" x="64" y="214" flags="0x4"/>
    </TTGlyph>
    <TTGlyph name="Ycircumflex.flat" xMin="36" yMin="0" xMax="536" yMax="923">
      <component glyphName="Y.flat" x="0" y="0" flags="0x204"/>
      <component glyphName="circumflex.cap" x="65" y="214" flags="0x4"/>
    </TTGlyph>
    <TTGlyph name="Ydieresis" xMin="35" yMin="0" xMax="534" yMax="868">
      <component glyphName="Y" x="0" y="0" flags="0x204"/>
      <component glyphName="dieresis.cap" x="64" y="214" flags="0x4"/>
    </TTGlyph>
    <TTGlyph name="Ydieresis.flat" xMin="36" yMin="0" xMax="536" yMax="868">
      <component glyphName="dieresis.cap" x="65" y="214" flags="0x4"/>
      <component glyphName="Y.flat" x="0" y="0" flags="0x4"/>
    </TTGlyph>
    <TTGlyph name="Ygrave" xMin="35" yMin="0" xMax="534" yMax="921">
      <component glyphName="Y" x="0" y="0" flags="0x204"/>
      <component glyphName="grave.cap" x="7" y="210" flags="0x4"/>
    </TTGlyph>
    <TTGlyph name="Ygrave.flat" xMin="36" yMin="0" xMax="536" yMax="921">
      <component glyphName="grave.cap" x="8" y="210" flags="0x4"/>
      <component glyphName="Y.flat" x="0" y="0" flags="0x4"/>
    </TTGlyph>
    <TTGlyph name="Z" xMin="58" yMin="0" xMax="499" yMax="725">
      <contour>
        <pt x="58" y="0" on="1"/>
        <pt x="58" y="35" on="1"/>
        <pt x="432" y="679" on="1"/>
        <pt x="85" y="679" on="1"/>
        <pt x="78" y="725" on="1"/>
        <pt x="494" y="725" on="1"/>
        <pt x="494" y="690" on="1"/>
        <pt x="120" y="46" on="1"/>
        <pt x="491" y="46" on="1"/>
        <pt x="499" y="0" on="1"/>
      </contour>
    </TTGlyph>
    <TTGlyph name="Z.flat" xMin="58" yMin="0" xMax="495" yMax="725">
      <contour>
        <pt x="58" y="0" on="1"/>
        <pt x="58" y="35" on="1"/>
        <pt x="432" y="679" on="1"/>
        <pt x="81" y="679" on="1"/>
        <pt x="81" y="725" on="1"/>
        <pt x="494" y="725" on="1"/>
        <pt x="494" y="690" on="1"/>
        <pt x="120" y="46" on="1"/>
        <pt x="495" y="46" on="1"/>
        <pt x="495" y="0" on="1"/>
      </contour>
    </TTGlyph>
    <TTGlyph name="Zacute" xMin="58" yMin="0" xMax="499" yMax="926">
      <component glyphName="Z" x="0" y="0" flags="0x204"/>
      <component glyphName="acute.cap" x="115" y="215" flags="0x4"/>
    </TTGlyph>
    <TTGlyph name="Zacute.flat" xMin="58" yMin="0" xMax="495" yMax="926">
      <component glyphName="acute.cap" x="115" y="215" flags="0x4"/>
      <component glyphName="Z.flat" x="0" y="0" flags="0x4"/>
    </TTGlyph>
    <TTGlyph name="Zcaron" xMin="58" yMin="0" xMax="499" yMax="924">
      <component glyphName="caron.cap" x="61" y="215" flags="0x4"/>
      <component glyphName="Z" x="0" y="0" flags="0x4"/>
    </TTGlyph>
    <TTGlyph name="Zcaron.flat" xMin="58" yMin="0" xMax="495" yMax="924">
      <component glyphName="caron.cap" x="61" y="215" flags="0x4"/>
      <component glyphName="Z.flat" x="0" y="0" flags="0x4"/>
    </TTGlyph>
    <TTGlyph name="Zdotaccent" xMin="58" yMin="0" xMax="499" yMax="869">
      <component glyphName="dotaccent.cap" x="62" y="215" flags="0x4"/>
      <component glyphName="Z" x="0" y="0" flags="0x4"/>
    </TTGlyph>
    <TTGlyph name="Zdotaccent.flat" xMin="58" yMin="0" xMax="495" yMax="869">
      <component glyphName="dotaccent.cap" x="62" y="215" flags="0x4"/>
      <component glyphName="Z.flat" x="0" y="0" flags="0x4"/>
    </TTGlyph>
    <TTGlyph name="a" xMin="50" yMin="-10" xMax="405" yMax="536">
      <contour>
        <pt x="369" y="0" on="1"/>
        <pt x="358" y="67" on="1"/>
        <pt x="320" y="32" on="0"/>
        <pt x="238" y="-10" on="0"/>
        <pt x="192" y="-10" on="1"/>
        <pt x="162" y="-10" on="0"/>
        <pt x="111" y="7" on="0"/>
        <pt x="72" y="42" on="0"/>
        <pt x="50" y="93" on="0"/>
        <pt x="50" y="128" on="1"/>
        <pt x="50" y="215" on="0"/>
        <pt x="192" y="314" on="0"/>
        <pt x="354" y="332" on="1"/>
        <pt x="354" y="384" on="1"/>
        <pt x="354" y="438" on="0"/>
        <pt x="298" y="489" on="0"/>
        <pt x="248" y="489" on="1"/>
        <pt x="170" y="489" on="0"/>
        <pt x="90" y="442" on="1"/>
        <pt x="83" y="492" on="1"/>
        <pt x="124" y="512" on="0"/>
        <pt x="206" y="536" on="0"/>
        <pt x="251" y="536" on="1"/>
        <pt x="326" y="536" on="0"/>
        <pt x="405" y="462" on="0"/>
        <pt x="405" y="388" on="1"/>
        <pt x="405" y="0" on="1"/>
      </contour>
      <contour>
        <pt x="354" y="288" on="1"/>
        <pt x="217" y="272" on="0"/>
        <pt x="101" y="196" on="0"/>
        <pt x="101" y="131" on="1"/>
        <pt x="101" y="83" on="0"/>
        <pt x="157" y="36" on="0"/>
        <pt x="195" y="36" on="1"/>
        <pt x="269" y="36" on="0"/>
        <pt x="354" y="115" on="1"/>
      </contour>
    </TTGlyph>
    <TTGlyph name="aacute" xMin="50" yMin="-10" xMax="405" yMax="757">
      <component glyphName="a" x="0" y="0" flags="0x204"/>
      <component glyphName="acute" x="64" y="0" flags="0x4"/>
    </TTGlyph>
    <TTGlyph name="abreve" xMin="50" yMin="-10" xMax="405" yMax="730">
      <component glyphName="a" x="0" y="0" flags="0x204"/>
      <component glyphName="breve" x="7" y="0" flags="0x4"/>
    </TTGlyph>
    <TTGlyph name="acircumflex" xMin="50" yMin="-10" xMax="405" yMax="756">
      <component glyphName="a" x="0" y="0" flags="0x204"/>
      <component glyphName="circumflex" x="6" y="0" flags="0x4"/>
    </TTGlyph>
    <TTGlyph name="acute" xMin="155" yMin="601" xMax="322" yMax="757">
      <contour>
        <pt x="193" y="601" on="1"/>
        <pt x="155" y="601" on="1"/>
        <pt x="253" y="757" on="1"/>
        <pt x="322" y="743" on="1"/>
      </contour>
    </TTGlyph>
    <TTGlyph name="acute.cap" xMin="145" yMin="564" xMax="303" yMax="711">
      <contour>
        <pt x="182" y="564" on="1"/>
        <pt x="145" y="564" on="1"/>
        <pt x="236" y="711" on="1"/>
        <pt x="303" y="696" on="1"/>
      </contour>
    </TTGlyph>
    <TTGlyph name="adieresis" xMin="50" yMin="-10" xMax="405" yMax="696">
      <component glyphName="a" x="0" y="0" flags="0x204"/>
      <component glyphName="dieresis" x="6" y="0" flags="0x4"/>
    </TTGlyph>
    <TTGlyph name="ae" xMin="50" yMin="-10" xMax="737" yMax="538">
      <contour>
        <pt x="737" y="259" on="1"/>
        <pt x="405" y="259" on="1"/>
        <pt x="406" y="156" on="0"/>
        <pt x="492" y="36" on="0"/>
        <pt x="565" y="36" on="1"/>
        <pt x="608" y="36" on="0"/>
        <pt x="688" y="71" on="0"/>
        <pt x="727" y="103" on="1"/>
        <pt x="735" y="55" on="1"/>
        <pt x="699" y="26" on="0"/>
        <pt x="613" y="-10" on="0"/>
        <pt x="560" y="-10" on="1"/>
        <pt x="506" y="-10" on="0"/>
        <pt x="421" y="41" on="0"/>
        <pt x="395" y="87" on="1"/>
        <pt x="349" y="43" on="0"/>
        <pt x="255" y="-10" on="0"/>
        <pt x="194" y="-10" on="1"/>
        <pt x="164" y="-10" on="0"/>
        <pt x="112" y="8" on="0"/>
        <pt x="73" y="43" on="0"/>
        <pt x="50" y="95" on="0"/>
        <pt x="50" y="129" on="1"/>
        <pt x="50" y="215" on="0"/>
        <pt x="192" y="314" on="0"/>
        <pt x="354" y="332" on="1"/>
        <pt x="354" y="385" on="1"/>
        <pt x="354" y="439" on="0"/>
        <pt x="298" y="489" on="0"/>
        <pt x="248" y="489" on="1"/>
        <pt x="170" y="489" on="0"/>
        <pt x="90" y="442" on="1"/>
        <pt x="83" y="492" on="1"/>
        <pt x="123" y="513" on="0"/>
        <pt x="206" y="536" on="0"/>
        <pt x="251" y="536" on="1"/>
        <pt x="375" y="536" on="0"/>
        <pt x="396" y="435" on="1"/>
        <pt x="422" y="484" on="0"/>
        <pt x="503" y="538" on="0"/>
        <pt x="556" y="538" on="1"/>
        <pt x="601" y="538" on="0"/>
        <pt x="669" y="498" on="0"/>
        <pt x="714" y="427" on="0"/>
        <pt x="737" y="332" on="0"/>
        <pt x="737" y="277" on="1"/>
      </contour>
      <contour>
        <pt x="683" y="301" on="1"/>
        <pt x="682" y="343" on="0"/>
        <pt x="664" y="414" on="0"/>
        <pt x="631" y="465" on="0"/>
        <pt x="585" y="494" on="0"/>
        <pt x="556" y="494" on="1"/>
        <pt x="524" y="494" on="0"/>
        <pt x="472" y="466" on="0"/>
        <pt x="433" y="416" on="0"/>
        <pt x="410" y="344" on="0"/>
        <pt x="406" y="301" on="1"/>
      </contour>
      <contour>
        <pt x="375" y="128" on="1"/>
        <pt x="365" y="157" on="0"/>
        <pt x="354" y="225" on="0"/>
        <pt x="354" y="263" on="1"/>
        <pt x="354" y="289" on="1"/>
        <pt x="285" y="281" on="0"/>
        <pt x="189" y="254" on="0"/>
        <pt x="129" y="215" on="0"/>
        <pt x="101" y="164" on="0"/>
        <pt x="101" y="132" on="1"/>
        <pt x="101" y="87" on="0"/>
        <pt x="155" y="36" on="0"/>
        <pt x="197" y="36" on="1"/>
        <pt x="244" y="36" on="0"/>
        <pt x="331" y="83" on="0"/>
      </contour>
    </TTGlyph>
    <TTGlyph name="aeacute" xMin="50" yMin="-10" xMax="737" yMax="757">
      <component glyphName="acute" x="218" y="0" flags="0x4"/>
      <component glyphName="ae" x="0" y="0" flags="0x4"/>
    </TTGlyph>
    <TTGlyph name="agrave" xMin="50" yMin="-10" xMax="405" yMax="757">
      <component glyphName="a" x="0" y="0" flags="0x204"/>
      <component glyphName="grave" x="-55" y="0" flags="0x4"/>
    </TTGlyph>
    <TTGlyph name="amacron" xMin="50" yMin="-10" xMax="405" yMax="682">
      <component glyphName="a" x="0" y="0" flags="0x204"/>
      <component glyphName="macron" x="7" y="0" flags="0x4"/>
    </TTGlyph>
    <TTGlyph name="ampersand" xMin="54" yMin="-9" xMax="625" yMax="733">
      <contour>
        <pt x="571" y="-6" on="1"/>
        <pt x="466" y="114" on="1"/>
        <pt x="426" y="53" on="0"/>
        <pt x="320" y="-9" on="0"/>
        <pt x="258" y="-9" on="1"/>
        <pt x="211" y="-9" on="0"/>
        <pt x="136" y="20" on="0"/>
        <pt x="83" y="72" on="0"/>
        <pt x="54" y="142" on="0"/>
        <pt x="54" y="183" on="1"/>
        <pt x="54" y="222" on="0"/>
        <pt x="79" y="288" on="0"/>
        <pt x="122" y="344" on="0"/>
        <pt x="181" y="389" on="0"/>
        <pt x="216" y="407" on="1"/>
        <pt x="180" y="452" on="0"/>
        <pt x="142" y="529" on="0"/>
        <pt x="142" y="576" on="1"/>
        <pt x="142" y="609" on="0"/>
        <pt x="166" y="666" on="0"/>
        <pt x="210" y="708" on="0"/>
        <pt x="273" y="733" on="0"/>
        <pt x="312" y="733" on="1"/>
        <pt x="352" y="733" on="0"/>
        <pt x="422" y="711" on="0"/>
        <pt x="456" y="691" on="1"/>
        <pt x="444" y="637" on="1"/>
        <pt x="408" y="662" on="0"/>
        <pt x="343" y="686" on="0"/>
        <pt x="309" y="686" on="1"/>
        <pt x="256" y="686" on="0"/>
        <pt x="196" y="624" on="0"/>
        <pt x="196" y="578" on="1"/>
        <pt x="196" y="539" on="0"/>
        <pt x="232" y="466" on="0"/>
        <pt x="272" y="418" on="1"/>
        <pt x="457" y="202" on="1"/>
        <pt x="476" y="245" on="0"/>
        <pt x="505" y="355" on="0"/>
        <pt x="515" y="423" on="1"/>
        <pt x="566" y="412" on="1"/>
        <pt x="553" y="334" on="0"/>
        <pt x="516" y="210" on="0"/>
        <pt x="493" y="161" on="1"/>
        <pt x="625" y="7" on="1"/>
      </contour>
      <contour>
        <pt x="258" y="38" on="1"/>
        <pt x="309" y="38" on="0"/>
        <pt x="399" y="94" on="0"/>
        <pt x="433" y="154" on="1"/>
        <pt x="245" y="371" on="1"/>
        <pt x="180" y="339" on="0"/>
        <pt x="108" y="245" on="0"/>
        <pt x="108" y="185" on="1"/>
        <pt x="108" y="153" on="0"/>
        <pt x="131" y="100" on="0"/>
        <pt x="171" y="60" on="0"/>
        <pt x="226" y="38" on="0"/>
      </contour>
    </TTGlyph>
    <TTGlyph name="ampersand.flat" xMin="54" yMin="-9" xMax="631" yMax="733">
      <contour>
        <pt x="566" y="0" on="1"/>
        <pt x="466" y="114" on="1"/>
        <pt x="426" y="53" on="0"/>
        <pt x="320" y="-9" on="0"/>
        <pt x="258" y="-9" on="1"/>
        <pt x="211" y="-9" on="0"/>
        <pt x="136" y="20" on="0"/>
        <pt x="83" y="72" on="0"/>
        <pt x="54" y="142" on="0"/>
        <pt x="54" y="183" on="1"/>
        <pt x="54" y="222" on="0"/>
        <pt x="79" y="288" on="0"/>
        <pt x="122" y="344" on="0"/>
        <pt x="181" y="389" on="0"/>
        <pt x="216" y="407" on="1"/>
        <pt x="180" y="452" on="0"/>
        <pt x="142" y="529" on="0"/>
        <pt x="142" y="576" on="1"/>
        <pt x="142" y="609" on="0"/>
        <pt x="166" y="666" on="0"/>
        <pt x="210" y="708" on="0"/>
        <pt x="273" y="733" on="0"/>
        <pt x="312" y="733" on="1"/>
        <pt x="352" y="733" on="0"/>
        <pt x="422" y="711" on="0"/>
        <pt x="456" y="691" on="1"/>
        <pt x="444" y="637" on="1"/>
        <pt x="408" y="662" on="0"/>
        <pt x="343" y="686" on="0"/>
        <pt x="309" y="686" on="1"/>
        <pt x="256" y="686" on="0"/>
        <pt x="196" y="624" on="0"/>
        <pt x="196" y="578" on="1"/>
        <pt x="196" y="539" on="0"/>
        <pt x="232" y="466" on="0"/>
        <pt x="272" y="418" on="1"/>
        <pt x="457" y="202" on="1"/>
        <pt x="476" y="245" on="0"/>
        <pt x="505" y="355" on="0"/>
        <pt x="515" y="423" on="1"/>
        <pt x="566" y="412" on="1"/>
        <pt x="553" y="334" on="0"/>
        <pt x="516" y="210" on="0"/>
        <pt x="493" y="161" on="1"/>
        <pt x="631" y="0" on="1"/>
      </contour>
      <contour>
        <pt x="258" y="38" on="1"/>
        <pt x="309" y="38" on="0"/>
        <pt x="399" y="95" on="0"/>
        <pt x="434" y="153" on="1"/>
        <pt x="245" y="371" on="1"/>
        <pt x="180" y="339" on="0"/>
        <pt x="108" y="245" on="0"/>
        <pt x="108" y="185" on="1"/>
        <pt x="108" y="153" on="0"/>
        <pt x="131" y="100" on="0"/>
        <pt x="171" y="60" on="0"/>
        <pt x="226" y="38" on="0"/>
      </contour>
    </TTGlyph>
    <TTGlyph name="aogonek" xMin="50" yMin="-181" xMax="432" yMax="536">
      <contour>
        <pt x="395" y="0" on="1"/>
        <pt x="377" y="-26" on="1"/>
        <pt x="359" y="-54" on="0"/>
        <pt x="343" y="-89" on="0"/>
        <pt x="343" y="-106" on="1"/>
        <pt x="343" y="-143" on="0"/>
        <pt x="383" y="-143" on="1"/>
        <pt x="395" y="-143" on="0"/>
        <pt x="419" y="-138" on="0"/>
        <pt x="430" y="-134" on="1"/>
        <pt x="432" y="-169" on="1"/>
        <pt x="418" y="-175" on="0"/>
        <pt x="387" y="-181" on="0"/>
        <pt x="372" y="-181" on="1"/>
        <pt x="335" y="-181" on="0"/>
        <pt x="296" y="-147" on="0"/>
        <pt x="296" y="-115" on="1"/>
        <pt x="296" y="-92" on="0"/>
        <pt x="319" y="-46" on="0"/>
        <pt x="345" y="-10" on="1"/>
        <pt x="366" y="19" on="1"/>
        <pt x="358" y="67" on="1"/>
        <pt x="320" y="32" on="0"/>
        <pt x="238" y="-10" on="0"/>
        <pt x="192" y="-10" on="1"/>
        <pt x="162" y="-10" on="0"/>
        <pt x="111" y="7" on="0"/>
        <pt x="72" y="42" on="0"/>
        <pt x="50" y="93" on="0"/>
        <pt x="50" y="128" on="1"/>
        <pt x="50" y="215" on="0"/>
        <pt x="192" y="314" on="0"/>
        <pt x="354" y="332" on="1"/>
        <pt x="354" y="384" on="1"/>
        <pt x="354" y="438" on="0"/>
        <pt x="298" y="489" on="0"/>
        <pt x="248" y="489" on="1"/>
        <pt x="170" y="489" on="0"/>
        <pt x="90" y="442" on="1"/>
        <pt x="83" y="492" on="1"/>
        <pt x="124" y="512" on="0"/>
        <pt x="206" y="536" on="0"/>
        <pt x="251" y="536" on="1"/>
        <pt x="326" y="536" on="0"/>
        <pt x="405" y="462" on="0"/>
        <pt x="405" y="388" on="1"/>
        <pt x="405" y="0" on="1"/>
      </contour>
      <contour>
        <pt x="354" y="288" on="1"/>
        <pt x="217" y="272" on="0"/>
        <pt x="101" y="196" on="0"/>
        <pt x="101" y="131" on="1"/>
        <pt x="101" y="83" on="0"/>
        <pt x="157" y="36" on="0"/>
        <pt x="195" y="36" on="1"/>
        <pt x="269" y="36" on="0"/>
        <pt x="354" y="115" on="1"/>
      </contour>
    </TTGlyph>
    <TTGlyph name="aring" xMin="50" yMin="-10" xMax="405" yMax="796">
      <component glyphName="a" x="0" y="0" flags="0x204"/>
      <component glyphName="ring" x="6" y="0" flags="0x4"/>
    </TTGlyph>
    <TTGlyph name="aringacute" xMin="50" yMin="-10" xMax="405" yMax="990">
      <contour>
        <pt x="369" y="0" on="1"/>
        <pt x="358" y="67" on="1"/>
        <pt x="320" y="32" on="0"/>
        <pt x="238" y="-10" on="0"/>
        <pt x="192" y="-10" on="1"/>
        <pt x="162" y="-10" on="0"/>
        <pt x="111" y="7" on="0"/>
        <pt x="72" y="42" on="0"/>
        <pt x="50" y="93" on="0"/>
        <pt x="50" y="128" on="1"/>
        <pt x="50" y="215" on="0"/>
        <pt x="192" y="314" on="0"/>
        <pt x="354" y="332" on="1"/>
        <pt x="354" y="384" on="1"/>
        <pt x="354" y="438" on="0"/>
        <pt x="298" y="489" on="0"/>
        <pt x="248" y="489" on="1"/>
        <pt x="170" y="489" on="0"/>
        <pt x="90" y="442" on="1"/>
        <pt x="83" y="492" on="1"/>
        <pt x="124" y="512" on="0"/>
        <pt x="206" y="536" on="0"/>
        <pt x="251" y="536" on="1"/>
        <pt x="326" y="536" on="0"/>
        <pt x="405" y="462" on="0"/>
        <pt x="405" y="388" on="1"/>
        <pt x="405" y="0" on="1"/>
      </contour>
      <contour>
        <pt x="354" y="288" on="1"/>
        <pt x="217" y="272" on="0"/>
        <pt x="101" y="196" on="0"/>
        <pt x="101" y="131" on="1"/>
        <pt x="101" y="83" on="0"/>
        <pt x="157" y="36" on="0"/>
        <pt x="195" y="36" on="1"/>
        <pt x="269" y="36" on="0"/>
        <pt x="354" y="115" on="1"/>
      </contour>
      <contour>
        <pt x="255" y="834" on="1"/>
        <pt x="217" y="834" on="1"/>
        <pt x="315" y="990" on="1"/>
        <pt x="384" y="976" on="1"/>
      </contour>
      <contour>
        <pt x="345" y="698" on="1"/>
        <pt x="345" y="677" on="0"/>
        <pt x="330" y="642" on="0"/>
        <pt x="304" y="615" on="0"/>
        <pt x="268" y="600" on="0"/>
        <pt x="247" y="600" on="1"/>
        <pt x="226" y="600" on="0"/>
        <pt x="189" y="615" on="0"/>
        <pt x="162" y="642" on="0"/>
        <pt x="147" y="677" on="0"/>
        <pt x="147" y="698" on="1"/>
        <pt x="147" y="719" on="0"/>
        <pt x="162" y="754" on="0"/>
        <pt x="189" y="781" on="0"/>
        <pt x="226" y="796" on="0"/>
        <pt x="247" y="796" on="1"/>
        <pt x="268" y="796" on="0"/>
        <pt x="304" y="781" on="0"/>
        <pt x="330" y="754" on="0"/>
        <pt x="345" y="719" on="0"/>
      </contour>
      <contour>
        <pt x="306" y="698" on="1"/>
        <pt x="306" y="725" on="0"/>
        <pt x="273" y="762" on="0"/>
        <pt x="247" y="762" on="1"/>
        <pt x="221" y="762" on="0"/>
        <pt x="186" y="725" on="0"/>
        <pt x="186" y="698" on="1"/>
        <pt x="186" y="671" on="0"/>
        <pt x="221" y="635" on="0"/>
        <pt x="247" y="635" on="1"/>
        <pt x="273" y="635" on="0"/>
        <pt x="306" y="671" on="0"/>
      </contour>
    </TTGlyph>
    <TTGlyph name="asciicircum" xMin="76" yMin="535" xMax="356" yMax="734">
      <contour>
        <pt x="314" y="535" on="1"/>
        <pt x="216" y="679" on="1"/>
        <pt x="117" y="535" on="1"/>
        <pt x="76" y="535" on="1"/>
        <pt x="195" y="734" on="1"/>
        <pt x="238" y="734" on="1"/>
        <pt x="356" y="535" on="1"/>
      </contour>
    </TTGlyph>
    <TTGlyph name="asciitilde" xMin="65" yMin="266" xMax="384" yMax="388">
      <contour>
        <pt x="384" y="380" on="1"/>
        <pt x="373" y="321" on="0"/>
        <pt x="335" y="268" on="0"/>
        <pt x="306" y="268" on="1"/>
        <pt x="286" y="268" on="0"/>
        <pt x="250" y="284" on="0"/>
        <pt x="216" y="305" on="1"/>
        <pt x="190" y="321" on="0"/>
        <pt x="159" y="338" on="0"/>
        <pt x="146" y="338" on="1"/>
        <pt x="131" y="338" on="0"/>
        <pt x="112" y="302" on="0"/>
        <pt x="104" y="266" on="1"/>
        <pt x="65" y="274" on="1"/>
        <pt x="76" y="333" on="0"/>
        <pt x="114" y="386" on="0"/>
        <pt x="143" y="386" on="1"/>
        <pt x="153" y="386" on="0"/>
        <pt x="171" y="382" on="0"/>
        <pt x="192" y="374" on="0"/>
        <pt x="217" y="359" on="0"/>
        <pt x="234" y="349" on="1"/>
        <pt x="260" y="333" on="0"/>
        <pt x="291" y="317" on="0"/>
        <pt x="303" y="317" on="1"/>
        <pt x="330" y="317" on="0"/>
        <pt x="345" y="388" on="1"/>
      </contour>
    </TTGlyph>
    <TTGlyph name="asterisk" xMin="53" yMin="487" xMax="356" yMax="780">
      <contour>
        <pt x="235" y="610" on="1"/>
        <pt x="305" y="496" on="1"/>
        <pt x="290" y="487" on="1"/>
        <pt x="204" y="589" on="1"/>
        <pt x="119" y="487" on="1"/>
        <pt x="103" y="496" on="1"/>
        <pt x="173" y="610" on="1"/>
        <pt x="53" y="660" on="1"/>
        <pt x="57" y="678" on="1"/>
        <pt x="185" y="646" on="1"/>
        <pt x="195" y="780" on="1"/>
        <pt x="214" y="780" on="1"/>
        <pt x="223" y="646" on="1"/>
        <pt x="351" y="678" on="1"/>
        <pt x="356" y="660" on="1"/>
      </contour>
    </TTGlyph>
    <TTGlyph name="at" xMin="61" yMin="-156" xMax="813" yMax="701">
      <contour>
        <pt x="621" y="50" on="1"/>
        <pt x="567" y="50" on="0"/>
        <pt x="515" y="110" on="0"/>
        <pt x="514" y="157" on="1"/>
        <pt x="472" y="106" on="0"/>
        <pt x="401" y="54" on="0"/>
        <pt x="363" y="54" on="1"/>
        <pt x="317" y="54" on="0"/>
        <pt x="258" y="132" on="0"/>
        <pt x="258" y="199" on="1"/>
        <pt x="258" y="260" on="0"/>
        <pt x="296" y="369" on="0"/>
        <pt x="360" y="450" on="0"/>
        <pt x="447" y="497" on="0"/>
        <pt x="496" y="497" on="1"/>
        <pt x="528" y="497" on="0"/>
        <pt x="583" y="482" on="0"/>
        <pt x="605" y="472" on="1"/>
        <pt x="565" y="211" on="1"/>
        <pt x="559" y="185" on="0"/>
        <pt x="559" y="158" on="1"/>
        <pt x="559" y="123" on="0"/>
        <pt x="590" y="83" on="0"/>
        <pt x="625" y="83" on="1"/>
        <pt x="655" y="83" on="0"/>
        <pt x="710" y="124" on="0"/>
        <pt x="753" y="200" on="0"/>
        <pt x="779" y="306" on="0"/>
        <pt x="779" y="372" on="1"/>
        <pt x="779" y="512" on="0"/>
        <pt x="634" y="668" on="0"/>
        <pt x="499" y="668" on="1"/>
        <pt x="412" y="668" on="0"/>
        <pt x="264" y="591" on="0"/>
        <pt x="156" y="461" on="0"/>
        <pt x="95" y="289" on="0"/>
        <pt x="95" y="195" on="1"/>
        <pt x="95" y="114" on="0"/>
        <pt x="138" y="-5" on="0"/>
        <pt x="216" y="-84" on="0"/>
        <pt x="326" y="-122" on="0"/>
        <pt x="392" y="-122" on="1"/>
        <pt x="449" y="-122" on="0"/>
        <pt x="563" y="-94" on="0"/>
        <pt x="608" y="-71" on="1"/>
        <pt x="613" y="-104" on="1"/>
        <pt x="570" y="-125" on="0"/>
        <pt x="452" y="-156" on="0"/>
        <pt x="389" y="-156" on="1"/>
        <pt x="315" y="-156" on="0"/>
        <pt x="195" y="-114" on="0"/>
        <pt x="108" y="-27" on="0"/>
        <pt x="61" y="105" on="0"/>
        <pt x="61" y="194" on="1"/>
        <pt x="61" y="298" on="0"/>
        <pt x="128" y="483" on="0"/>
        <pt x="246" y="621" on="0"/>
        <pt x="407" y="701" on="0"/>
        <pt x="500" y="701" on="1"/>
        <pt x="575" y="701" on="0"/>
        <pt x="692" y="656" on="0"/>
        <pt x="771" y="571" on="0"/>
        <pt x="813" y="449" on="0"/>
        <pt x="813" y="373" on="1"/>
        <pt x="813" y="301" on="0"/>
        <pt x="782" y="182" on="0"/>
        <pt x="730" y="97" on="0"/>
        <pt x="660" y="50" on="0"/>
      </contour>
      <contour>
        <pt x="371" y="96" on="1"/>
        <pt x="401" y="96" on="0"/>
        <pt x="468" y="150" on="0"/>
        <pt x="517" y="212" on="1"/>
        <pt x="555" y="441" on="1"/>
        <pt x="541" y="448" on="0"/>
        <pt x="511" y="455" on="0"/>
        <pt x="493" y="455" on="1"/>
        <pt x="455" y="455" on="0"/>
        <pt x="388" y="416" on="0"/>
        <pt x="336" y="348" on="0"/>
        <pt x="306" y="256" on="0"/>
        <pt x="306" y="203" on="1"/>
        <pt x="306" y="149" on="0"/>
        <pt x="341" y="96" on="0"/>
      </contour>
    </TTGlyph>
    <TTGlyph name="atilde" xMin="50" yMin="-10" xMax="405" yMax="719">
      <component glyphName="a" x="0" y="0" flags="0x204"/>
      <component glyphName="tilde" x="10" y="0" flags="0x4"/>
    </TTGlyph>
    <TTGlyph name="b" xMin="85" yMin="-7" xMax="475" yMax="802">
      <contour>
        <pt x="475" y="276" on="1"/>
        <pt x="475" y="204" on="0"/>
        <pt x="439" y="98" on="0"/>
        <pt x="377" y="28" on="0"/>
        <pt x="294" y="-7" on="0"/>
        <pt x="246" y="-7" on="1"/>
        <pt x="200" y="-7" on="0"/>
        <pt x="120" y="14" on="0"/>
        <pt x="85" y="29" on="1"/>
        <pt x="85" y="791" on="1"/>
        <pt x="137" y="802" on="1"/>
        <pt x="137" y="458" on="1"/>
        <pt x="167" y="492" on="0"/>
        <pt x="238" y="538" on="0"/>
        <pt x="287" y="538" on="1"/>
        <pt x="327" y="538" on="0"/>
        <pt x="395" y="505" on="0"/>
        <pt x="446" y="440" on="0"/>
        <pt x="475" y="342" on="0"/>
      </contour>
      <contour>
        <pt x="423" y="274" on="1"/>
        <pt x="423" y="381" on="0"/>
        <pt x="346" y="491" on="0"/>
        <pt x="283" y="491" on="1"/>
        <pt x="243" y="491" on="0"/>
        <pt x="175" y="444" on="0"/>
        <pt x="137" y="402" on="1"/>
        <pt x="137" y="62" on="1"/>
        <pt x="160" y="51" on="0"/>
        <pt x="216" y="39" on="0"/>
        <pt x="249" y="39" on="1"/>
        <pt x="286" y="39" on="0"/>
        <pt x="349" y="67" on="0"/>
        <pt x="396" y="125" on="0"/>
        <pt x="423" y="214" on="0"/>
      </contour>
    </TTGlyph>
    <TTGlyph name="backslash" xMin="22" yMin="-137" xMax="482" yMax="778">
      <contour>
        <pt x="437" y="-137" on="1"/>
        <pt x="22" y="769" on="1"/>
        <pt x="66" y="778" on="1"/>
        <pt x="482" y="-127" on="1"/>
      </contour>
    </TTGlyph>
    <TTGlyph name="baht" xMin="9" yMin="-133" xMax="483" yMax="778">
      <contour>
        <pt x="9" y="-124" on="1"/>
        <pt x="84" y="29" on="1"/>
        <pt x="84" y="717" on="1"/>
        <pt x="237" y="717" on="1"/>
        <pt x="333" y="717" on="0"/>
        <pt x="389" y="672" on="1"/>
        <pt x="442" y="778" on="1"/>
        <pt x="483" y="769" on="1"/>
        <pt x="419" y="639" on="1"/>
        <pt x="445" y="599" on="0"/>
        <pt x="445" y="544" on="1"/>
        <pt x="445" y="484" on="0"/>
        <pt x="380" y="400" on="0"/>
        <pt x="332" y="381" on="1"/>
        <pt x="397" y="362" on="0"/>
        <pt x="475" y="276" on="0"/>
        <pt x="475" y="202" on="1"/>
        <pt x="475" y="154" on="0"/>
        <pt x="440" y="79" on="0"/>
        <pt x="377" y="27" on="0"/>
        <pt x="289" y="0" on="0"/>
        <pt x="237" y="0" on="1"/>
        <pt x="115" y="0" on="1"/>
        <pt x="50" y="-133" on="1"/>
      </contour>
      <contour>
        <pt x="135" y="354" on="1"/>
        <pt x="135" y="46" on="1"/>
        <pt x="240" y="46" on="1"/>
        <pt x="325" y="46" on="0"/>
        <pt x="424" y="127" on="0"/>
        <pt x="424" y="198" on="1"/>
        <pt x="424" y="238" on="0"/>
        <pt x="397" y="297" on="0"/>
        <pt x="347" y="335" on="0"/>
        <pt x="278" y="354" on="0"/>
        <pt x="235" y="354" on="1"/>
      </contour>
      <contour>
        <pt x="135" y="673" on="1"/>
        <pt x="135" y="397" on="1"/>
        <pt x="234" y="397" on="1"/>
        <pt x="273" y="397" on="0"/>
        <pt x="332" y="420" on="0"/>
        <pt x="373" y="460" on="0"/>
        <pt x="393" y="512" on="0"/>
        <pt x="393" y="542" on="1"/>
        <pt x="393" y="603" on="0"/>
        <pt x="314" y="673" on="0"/>
        <pt x="235" y="673" on="1"/>
      </contour>
    </TTGlyph>
    <TTGlyph name="bar" xMin="118" yMin="-214" xMax="163" yMax="810">
      <contour>
        <pt x="118" y="-214" on="1"/>
        <pt x="118" y="803" on="1"/>
        <pt x="163" y="810" on="1"/>
        <pt x="163" y="-207" on="1"/>
      </contour>
    </TTGlyph>
    <TTGlyph name="bar.tab" xMin="107" yMin="-147" xMax="154" yMax="913">
      <contour>
        <pt x="107" y="-147" on="1"/>
        <pt x="107" y="905" on="1"/>
        <pt x="154" y="913" on="1"/>
        <pt x="154" y="-139" on="1"/>
      </contour>
    </TTGlyph>
    <TTGlyph name="braceleft" xMin="46" yMin="-119" xMax="400" yMax="773">
      <contour>
        <pt x="337" y="-119" on="1"/>
        <pt x="255" y="-119" on="0"/>
        <pt x="177" y="-49" on="0"/>
        <pt x="177" y="22" on="1"/>
        <pt x="177" y="60" on="0"/>
        <pt x="195" y="141" on="0"/>
        <pt x="195" y="183" on="1"/>
        <pt x="195" y="218" on="0"/>
        <pt x="176" y="265" on="0"/>
        <pt x="142" y="294" on="0"/>
        <pt x="97" y="307" on="0"/>
        <pt x="70" y="307" on="1"/>
        <pt x="52" y="307" on="1"/>
        <pt x="46" y="347" on="1"/>
        <pt x="70" y="347" on="1"/>
        <pt x="97" y="347" on="0"/>
        <pt x="143" y="359" on="0"/>
        <pt x="176" y="387" on="0"/>
        <pt x="195" y="435" on="0"/>
        <pt x="195" y="470" on="1"/>
        <pt x="195" y="511" on="0"/>
        <pt x="177" y="592" on="0"/>
        <pt x="177" y="631" on="1"/>
        <pt x="177" y="701" on="0"/>
        <pt x="255" y="773" on="0"/>
        <pt x="337" y="773" on="1"/>
        <pt x="395" y="773" on="1"/>
        <pt x="395" y="731" on="1"/>
        <pt x="334" y="731" on="1"/>
        <pt x="277" y="731" on="0"/>
        <pt x="228" y="678" on="0"/>
        <pt x="228" y="632" on="1"/>
        <pt x="228" y="615" on="0"/>
        <pt x="234" y="575" on="0"/>
        <pt x="240" y="532" on="0"/>
        <pt x="246" y="490" on="0"/>
        <pt x="246" y="472" on="1"/>
        <pt x="246" y="403" on="0"/>
        <pt x="184" y="339" on="0"/>
        <pt x="134" y="328" on="1"/>
        <pt x="134" y="326" on="1"/>
        <pt x="159" y="320" on="0"/>
        <pt x="200" y="299" on="0"/>
        <pt x="230" y="265" on="0"/>
        <pt x="246" y="216" on="0"/>
        <pt x="246" y="181" on="1"/>
        <pt x="246" y="163" on="0"/>
        <pt x="240" y="121" on="0"/>
        <pt x="234" y="78" on="0"/>
        <pt x="228" y="38" on="0"/>
        <pt x="228" y="21" on="1"/>
        <pt x="228" y="-26" on="0"/>
        <pt x="275" y="-77" on="0"/>
        <pt x="332" y="-77" on="1"/>
        <pt x="392" y="-77" on="1"/>
        <pt x="400" y="-119" on="1"/>
      </contour>
    </TTGlyph>
    <TTGlyph name="braceleft.flat" xMin="48" yMin="-119" xMax="395" yMax="773">
      <contour>
        <pt x="337" y="-119" on="1"/>
        <pt x="255" y="-119" on="0"/>
        <pt x="177" y="-49" on="0"/>
        <pt x="177" y="22" on="1"/>
        <pt x="177" y="60" on="0"/>
        <pt x="195" y="141" on="0"/>
        <pt x="195" y="183" on="1"/>
        <pt x="195" y="218" on="0"/>
        <pt x="176" y="265" on="0"/>
        <pt x="142" y="294" on="0"/>
        <pt x="97" y="307" on="0"/>
        <pt x="70" y="307" on="1"/>
        <pt x="48" y="307" on="1"/>
        <pt x="48" y="347" on="1"/>
        <pt x="70" y="347" on="1"/>
        <pt x="97" y="347" on="0"/>
        <pt x="143" y="359" on="0"/>
        <pt x="176" y="387" on="0"/>
        <pt x="195" y="435" on="0"/>
        <pt x="195" y="470" on="1"/>
        <pt x="195" y="511" on="0"/>
        <pt x="177" y="592" on="0"/>
        <pt x="177" y="631" on="1"/>
        <pt x="177" y="701" on="0"/>
        <pt x="255" y="773" on="0"/>
        <pt x="337" y="773" on="1"/>
        <pt x="395" y="773" on="1"/>
        <pt x="395" y="731" on="1"/>
        <pt x="334" y="731" on="1"/>
        <pt x="277" y="731" on="0"/>
        <pt x="228" y="678" on="0"/>
        <pt x="228" y="632" on="1"/>
        <pt x="228" y="615" on="0"/>
        <pt x="234" y="575" on="0"/>
        <pt x="240" y="532" on="0"/>
        <pt x="246" y="490" on="0"/>
        <pt x="246" y="472" on="1"/>
        <pt x="246" y="403" on="0"/>
        <pt x="184" y="339" on="0"/>
        <pt x="134" y="328" on="1"/>
        <pt x="134" y="326" on="1"/>
        <pt x="159" y="320" on="0"/>
        <pt x="200" y="299" on="0"/>
        <pt x="230" y="265" on="0"/>
        <pt x="246" y="216" on="0"/>
        <pt x="246" y="181" on="1"/>
        <pt x="246" y="163" on="0"/>
        <pt x="240" y="121" on="0"/>
        <pt x="234" y="78" on="0"/>
        <pt x="228" y="38" on="0"/>
        <pt x="228" y="21" on="1"/>
        <pt x="228" y="-26" on="0"/>
        <pt x="275" y="-77" on="0"/>
        <pt x="332" y="-77" on="1"/>
        <pt x="395" y="-77" on="1"/>
        <pt x="395" y="-119" on="1"/>
      </contour>
    </TTGlyph>
    <TTGlyph name="braceright" xMin="54" yMin="-119" xMax="407" yMax="773">
      <contour>
        <pt x="117" y="773" on="1"/>
        <pt x="200" y="773" on="0"/>
        <pt x="276" y="703" on="0"/>
        <pt x="276" y="633" on="1"/>
        <pt x="276" y="595" on="0"/>
        <pt x="258" y="513" on="0"/>
        <pt x="258" y="472" on="1"/>
        <pt x="258" y="437" on="0"/>
        <pt x="277" y="390" on="0"/>
        <pt x="311" y="361" on="0"/>
        <pt x="356" y="348" on="0"/>
        <pt x="383" y="348" on="1"/>
        <pt x="401" y="348" on="1"/>
        <pt x="407" y="308" on="1"/>
        <pt x="383" y="308" on="1"/>
        <pt x="356" y="308" on="0"/>
        <pt x="310" y="296" on="0"/>
        <pt x="277" y="267" on="0"/>
        <pt x="258" y="219" on="0"/>
        <pt x="258" y="184" on="1"/>
        <pt x="258" y="143" on="0"/>
        <pt x="276" y="63" on="0"/>
        <pt x="276" y="25" on="1"/>
        <pt x="276" y="-46" on="0"/>
        <pt x="200" y="-119" on="0"/>
        <pt x="117" y="-119" on="1"/>
        <pt x="60" y="-119" on="1"/>
        <pt x="60" y="-77" on="1"/>
        <pt x="120" y="-77" on="1"/>
        <pt x="177" y="-77" on="0"/>
        <pt x="227" y="-24" on="0"/>
        <pt x="227" y="24" on="1"/>
        <pt x="227" y="40" on="0"/>
        <pt x="221" y="80" on="0"/>
        <pt x="213" y="122" on="0"/>
        <pt x="207" y="164" on="0"/>
        <pt x="207" y="183" on="1"/>
        <pt x="207" y="251" on="0"/>
        <pt x="269" y="315" on="0"/>
        <pt x="321" y="326" on="1"/>
        <pt x="321" y="328" on="1"/>
        <pt x="295" y="334" on="0"/>
        <pt x="253" y="355" on="0"/>
        <pt x="223" y="389" on="0"/>
        <pt x="207" y="438" on="0"/>
        <pt x="207" y="473" on="1"/>
        <pt x="207" y="491" on="0"/>
        <pt x="213" y="534" on="0"/>
        <pt x="221" y="576" on="0"/>
        <pt x="227" y="617" on="0"/>
        <pt x="227" y="634" on="1"/>
        <pt x="227" y="681" on="0"/>
        <pt x="180" y="731" on="0"/>
        <pt x="121" y="731" on="1"/>
        <pt x="62" y="731" on="1"/>
        <pt x="54" y="773" on="1"/>
      </contour>
    </TTGlyph>
    <TTGlyph name="braceright.flat" xMin="60" yMin="-119" xMax="405" yMax="773">
      <contour>
        <pt x="117" y="773" on="1"/>
        <pt x="200" y="773" on="0"/>
        <pt x="276" y="703" on="0"/>
        <pt x="276" y="633" on="1"/>
        <pt x="276" y="595" on="0"/>
        <pt x="258" y="513" on="0"/>
        <pt x="258" y="472" on="1"/>
        <pt x="258" y="437" on="0"/>
        <pt x="277" y="390" on="0"/>
        <pt x="311" y="361" on="0"/>
        <pt x="356" y="348" on="0"/>
        <pt x="383" y="348" on="1"/>
        <pt x="405" y="348" on="1"/>
        <pt x="405" y="308" on="1"/>
        <pt x="383" y="308" on="1"/>
        <pt x="356" y="308" on="0"/>
        <pt x="310" y="296" on="0"/>
        <pt x="277" y="267" on="0"/>
        <pt x="258" y="219" on="0"/>
        <pt x="258" y="184" on="1"/>
        <pt x="258" y="143" on="0"/>
        <pt x="276" y="63" on="0"/>
        <pt x="276" y="25" on="1"/>
        <pt x="276" y="-46" on="0"/>
        <pt x="200" y="-119" on="0"/>
        <pt x="117" y="-119" on="1"/>
        <pt x="60" y="-119" on="1"/>
        <pt x="60" y="-77" on="1"/>
        <pt x="120" y="-77" on="1"/>
        <pt x="177" y="-77" on="0"/>
        <pt x="227" y="-24" on="0"/>
        <pt x="227" y="24" on="1"/>
        <pt x="227" y="40" on="0"/>
        <pt x="221" y="80" on="0"/>
        <pt x="213" y="122" on="0"/>
        <pt x="207" y="164" on="0"/>
        <pt x="207" y="183" on="1"/>
        <pt x="207" y="251" on="0"/>
        <pt x="269" y="315" on="0"/>
        <pt x="321" y="326" on="1"/>
        <pt x="321" y="328" on="1"/>
        <pt x="295" y="334" on="0"/>
        <pt x="253" y="355" on="0"/>
        <pt x="223" y="389" on="0"/>
        <pt x="207" y="438" on="0"/>
        <pt x="207" y="473" on="1"/>
        <pt x="207" y="491" on="0"/>
        <pt x="213" y="534" on="0"/>
        <pt x="221" y="576" on="0"/>
        <pt x="227" y="617" on="0"/>
        <pt x="227" y="634" on="1"/>
        <pt x="227" y="681" on="0"/>
        <pt x="180" y="731" on="0"/>
        <pt x="121" y="731" on="1"/>
        <pt x="60" y="731" on="1"/>
        <pt x="60" y="773" on="1"/>
      </contour>
    </TTGlyph>
    <TTGlyph name="bracketleft" xMin="109" yMin="-119" xMax="342" yMax="773">
      <contour>
        <pt x="109" y="-119" on="1"/>
        <pt x="109" y="773" on="1"/>
        <pt x="336" y="773" on="1"/>
        <pt x="336" y="731" on="1"/>
        <pt x="159" y="731" on="1"/>
        <pt x="159" y="-77" on="1"/>
        <pt x="334" y="-77" on="1"/>
        <pt x="342" y="-119" on="1"/>
      </contour>
    </TTGlyph>
    <TTGlyph name="bracketleft.flat" xMin="109" yMin="-119" xMax="336" yMax="773">
      <contour>
        <pt x="109" y="-119" on="1"/>
        <pt x="109" y="773" on="1"/>
        <pt x="336" y="773" on="1"/>
        <pt x="336" y="731" on="1"/>
        <pt x="159" y="731" on="1"/>
        <pt x="159" y="-77" on="1"/>
        <pt x="336" y="-77" on="1"/>
        <pt x="336" y="-119" on="1"/>
      </contour>
    </TTGlyph>
    <TTGlyph name="bracketright" xMin="54" yMin="-119" xMax="286" yMax="773">
      <contour>
        <pt x="286" y="773" on="1"/>
        <pt x="286" y="-119" on="1"/>
        <pt x="59" y="-119" on="1"/>
        <pt x="59" y="-77" on="1"/>
        <pt x="237" y="-77" on="1"/>
        <pt x="237" y="731" on="1"/>
        <pt x="61" y="731" on="1"/>
        <pt x="54" y="773" on="1"/>
      </contour>
    </TTGlyph>
    <TTGlyph name="bracketright.flat" xMin="59" yMin="-119" xMax="286" yMax="773">
      <contour>
        <pt x="286" y="773" on="1"/>
        <pt x="286" y="-119" on="1"/>
        <pt x="59" y="-119" on="1"/>
        <pt x="59" y="-77" on="1"/>
        <pt x="237" y="-77" on="1"/>
        <pt x="237" y="731" on="1"/>
        <pt x="59" y="731" on="1"/>
        <pt x="59" y="773" on="1"/>
      </contour>
    </TTGlyph>
    <TTGlyph name="breve" xMin="115" yMin="605" xMax="356" yMax="730">
      <contour>
        <pt x="356" y="725" on="1"/>
        <pt x="351" y="671" on="0"/>
        <pt x="292" y="605" on="0"/>
        <pt x="235" y="605" on="1"/>
        <pt x="178" y="605" on="0"/>
        <pt x="120" y="671" on="0"/>
        <pt x="115" y="725" on="1"/>
        <pt x="151" y="730" on="1"/>
        <pt x="168" y="654" on="0"/>
        <pt x="235" y="654" on="1"/>
        <pt x="303" y="654" on="0"/>
        <pt x="321" y="730" on="1"/>
      </contour>
    </TTGlyph>
    <TTGlyph name="breve.cap" xMin="106" yMin="567" xMax="336" yMax="686">
      <contour>
        <pt x="336" y="680" on="1"/>
        <pt x="331" y="629" on="0"/>
        <pt x="275" y="567" on="0"/>
        <pt x="221" y="567" on="1"/>
        <pt x="167" y="567" on="0"/>
        <pt x="111" y="629" on="0"/>
        <pt x="106" y="680" on="1"/>
        <pt x="143" y="686" on="1"/>
        <pt x="157" y="615" on="0"/>
        <pt x="221" y="615" on="1"/>
        <pt x="285" y="615" on="0"/>
        <pt x="300" y="686" on="1"/>
      </contour>
    </TTGlyph>
    <TTGlyph name="bullet" xMin="103" yMin="248" xMax="310" yMax="485">
      <contour>
        <pt x="295" y="265" on="1"/>
        <pt x="207" y="248" on="1"/>
        <pt x="120" y="265" on="1"/>
        <pt x="103" y="367" on="1"/>
        <pt x="120" y="469" on="1"/>
        <pt x="207" y="485" on="1"/>
        <pt x="295" y="469" on="1"/>
        <pt x="310" y="367" on="1"/>
      </contour>
    </TTGlyph>
    <TTGlyph name="c" xMin="54" yMin="-10" xMax="411" yMax="538">
      <contour>
        <pt x="411" y="46" on="1"/>
        <pt x="380" y="20" on="0"/>
        <pt x="305" y="-10" on="0"/>
        <pt x="262" y="-10" on="1"/>
        <pt x="215" y="-10" on="0"/>
        <pt x="139" y="29" on="0"/>
        <pt x="84" y="100" on="0"/>
        <pt x="54" y="201" on="0"/>
        <pt x="54" y="263" on="1"/>
        <pt x="54" y="325" on="0"/>
        <pt x="86" y="426" on="0"/>
        <pt x="142" y="498" on="0"/>
        <pt x="220" y="538" on="0"/>
        <pt x="266" y="538" on="1"/>
        <pt x="308" y="538" on="0"/>
        <pt x="378" y="511" on="0"/>
        <pt x="408" y="487" on="1"/>
        <pt x="398" y="433" on="1"/>
        <pt x="364" y="463" on="0"/>
        <pt x="302" y="491" on="0"/>
        <pt x="263" y="491" on="1"/>
        <pt x="229" y="491" on="0"/>
        <pt x="172" y="458" on="0"/>
        <pt x="130" y="398" on="0"/>
        <pt x="107" y="315" on="0"/>
        <pt x="107" y="264" on="1"/>
        <pt x="107" y="215" on="0"/>
        <pt x="129" y="132" on="0"/>
        <pt x="170" y="71" on="0"/>
        <pt x="229" y="36" on="0"/>
        <pt x="267" y="36" on="1"/>
        <pt x="303" y="36" on="0"/>
        <pt x="371" y="64" on="0"/>
        <pt x="403" y="95" on="1"/>
      </contour>
    </TTGlyph>
    <TTGlyph name="cacute" xMin="54" yMin="-10" xMax="411" yMax="757">
      <component glyphName="acute" x="83" y="0" flags="0x4"/>
      <component glyphName="c" x="0" y="0" flags="0x4"/>
    </TTGlyph>
    <TTGlyph name="caron" xMin="113" yMin="601" xMax="361" yMax="756">
      <contour>
        <pt x="149" y="756" on="1"/>
        <pt x="237" y="662" on="1"/>
        <pt x="325" y="756" on="1"/>
        <pt x="361" y="756" on="1"/>
        <pt x="258" y="601" on="1"/>
        <pt x="216" y="601" on="1"/>
        <pt x="113" y="756" on="1"/>
      </contour>
    </TTGlyph>
    <TTGlyph name="caron.alt" xMin="186" yMin="598" xMax="271" yMax="799">
      <contour>
        <pt x="251" y="799" on="1"/>
        <pt x="260" y="780" on="0"/>
        <pt x="271" y="745" on="0"/>
        <pt x="271" y="725" on="1"/>
        <pt x="271" y="688" on="0"/>
        <pt x="237" y="625" on="0"/>
        <pt x="210" y="598" on="1"/>
        <pt x="186" y="604" on="1"/>
        <pt x="205" y="633" on="0"/>
        <pt x="223" y="680" on="0"/>
        <pt x="223" y="706" on="1"/>
        <pt x="223" y="727" on="0"/>
        <pt x="212" y="765" on="0"/>
        <pt x="202" y="787" on="1"/>
      </contour>
    </TTGlyph>
    <TTGlyph name="caron.alt.cap" xMin="174" yMin="561" xMax="256" yMax="749">
      <contour>
        <pt x="237" y="749" on="1"/>
        <pt x="246" y="732" on="0"/>
        <pt x="256" y="699" on="0"/>
        <pt x="256" y="680" on="1"/>
        <pt x="256" y="646" on="0"/>
        <pt x="224" y="586" on="0"/>
        <pt x="198" y="561" on="1"/>
        <pt x="174" y="567" on="1"/>
        <pt x="191" y="593" on="0"/>
        <pt x="209" y="637" on="0"/>
        <pt x="209" y="662" on="1"/>
        <pt x="209" y="682" on="0"/>
        <pt x="198" y="718" on="0"/>
        <pt x="189" y="739" on="1"/>
      </contour>
    </TTGlyph>
    <TTGlyph name="caron.cap" xMin="105" yMin="564" xMax="340" yMax="709">
      <contour>
        <pt x="141" y="709" on="1"/>
        <pt x="222" y="622" on="1"/>
        <pt x="304" y="709" on="1"/>
        <pt x="340" y="709" on="1"/>
        <pt x="244" y="564" on="1"/>
        <pt x="202" y="564" on="1"/>
        <pt x="105" y="709" on="1"/>
      </contour>
    </TTGlyph>
    <TTGlyph name="ccaron" xMin="54" yMin="-10" xMax="411" yMax="756">
      <component glyphName="caron" x="25" y="0" flags="0x4"/>
      <component glyphName="c" x="0" y="0" flags="0x4"/>
    </TTGlyph>
    <TTGlyph name="ccedilla" xMin="54" yMin="-206" xMax="411" yMax="538">
      <component glyphName="c" x="0" y="0" flags="0x204"/>
      <component glyphName="cedilla" x="9" y="0" flags="0x4"/>
    </TTGlyph>
    <TTGlyph name="cdotaccent" xMin="54" yMin="-10" xMax="411" yMax="696">
      <component glyphName="c" x="0" y="0" flags="0x204"/>
      <component glyphName="dotaccent" x="25" y="0" flags="0x4"/>
    </TTGlyph>
    <TTGlyph name="cedilla" xMin="139" yMin="-206" xMax="297" yMax="-63">
      <contour>
        <pt x="176" y="-206" on="1"/>
        <pt x="139" y="-206" on="1"/>
        <pt x="232" y="-63" on="1"/>
        <pt x="297" y="-80" on="1"/>
      </contour>
    </TTGlyph>
    <TTGlyph name="cedilla.cap" xMin="131" yMin="-194" xMax="281" yMax="-59">
      <contour>
        <pt x="167" y="-194" on="1"/>
        <pt x="131" y="-194" on="1"/>
        <pt x="217" y="-59" on="1"/>
        <pt x="281" y="-75" on="1"/>
      </contour>
    </TTGlyph>
    <TTGlyph name="cent" xMin="60" yMin="-11" xMax="411" yMax="727">
      <contour>
        <pt x="411" y="152" on="1"/>
        <pt x="380" y="129" on="0"/>
        <pt x="304" y="100" on="0"/>
        <pt x="261" y="100" on="1"/>
        <pt x="256" y="100" on="0"/>
        <pt x="245" y="100" on="0"/>
        <pt x="240" y="101" on="1"/>
        <pt x="223" y="-11" on="1"/>
        <pt x="184" y="-2" on="1"/>
        <pt x="201" y="109" on="1"/>
        <pt x="139" y="130" on="0"/>
        <pt x="60" y="255" on="0"/>
        <pt x="60" y="355" on="1"/>
        <pt x="60" y="415" on="0"/>
        <pt x="92" y="512" on="0"/>
        <pt x="149" y="579" on="0"/>
        <pt x="224" y="615" on="0"/>
        <pt x="268" y="615" on="1"/>
        <pt x="280" y="615" on="1"/>
        <pt x="298" y="727" on="1"/>
        <pt x="337" y="718" on="1"/>
        <pt x="320" y="610" on="1"/>
        <pt x="369" y="598" on="0"/>
        <pt x="408" y="569" on="1"/>
        <pt x="398" y="520" on="1"/>
        <pt x="376" y="538" on="0"/>
        <pt x="336" y="562" on="0"/>
        <pt x="313" y="568" on="1"/>
        <pt x="247" y="143" on="1"/>
        <pt x="252" y="142" on="0"/>
        <pt x="261" y="142" on="0"/>
        <pt x="266" y="142" on="1"/>
        <pt x="335" y="142" on="0"/>
        <pt x="403" y="196" on="1"/>
      </contour>
      <contour>
        <pt x="109" y="356" on="1"/>
        <pt x="109" y="277" on="0"/>
        <pt x="162" y="173" on="0"/>
        <pt x="210" y="153" on="1"/>
        <pt x="275" y="574" on="1"/>
        <pt x="268" y="574" on="1"/>
        <pt x="232" y="574" on="0"/>
        <pt x="173" y="544" on="0"/>
        <pt x="132" y="487" on="0"/>
        <pt x="109" y="406" on="0"/>
      </contour>
    </TTGlyph>
    <TTGlyph name="cent.tab" xMin="85" yMin="-12" xMax="445" yMax="727">
      <contour>
        <pt x="445" y="152" on="1"/>
        <pt x="413" y="129" on="0"/>
        <pt x="335" y="100" on="0"/>
        <pt x="290" y="100" on="1"/>
        <pt x="284" y="100" on="0"/>
        <pt x="271" y="101" on="0"/>
        <pt x="265" y="102" on="1"/>
        <pt x="248" y="-12" on="1"/>
        <pt x="210" y="-3" on="1"/>
        <pt x="228" y="110" on="1"/>
        <pt x="165" y="131" on="0"/>
        <pt x="85" y="255" on="0"/>
        <pt x="85" y="355" on="1"/>
        <pt x="85" y="415" on="0"/>
        <pt x="118" y="512" on="0"/>
        <pt x="176" y="579" on="0"/>
        <pt x="254" y="615" on="0"/>
        <pt x="299" y="615" on="1"/>
        <pt x="305" y="615" on="1"/>
        <pt x="323" y="727" on="1"/>
        <pt x="361" y="718" on="1"/>
        <pt x="344" y="611" on="1"/>
        <pt x="373" y="606" on="0"/>
        <pt x="421" y="583" on="0"/>
        <pt x="441" y="567" on="1"/>
        <pt x="432" y="520" on="1"/>
        <pt x="408" y="539" on="0"/>
        <pt x="363" y="565" on="0"/>
        <pt x="337" y="570" on="1"/>
        <pt x="271" y="144" on="1"/>
        <pt x="277" y="143" on="0"/>
        <pt x="288" y="142" on="0"/>
        <pt x="295" y="142" on="1"/>
        <pt x="365" y="142" on="0"/>
        <pt x="437" y="197" on="1"/>
      </contour>
      <contour>
        <pt x="134" y="356" on="1"/>
        <pt x="134" y="280" on="0"/>
        <pt x="188" y="174" on="0"/>
        <pt x="235" y="154" on="1"/>
        <pt x="300" y="574" on="1"/>
        <pt x="292" y="574" on="1"/>
        <pt x="256" y="572" on="0"/>
        <pt x="198" y="539" on="0"/>
        <pt x="156" y="482" on="0"/>
        <pt x="134" y="404" on="0"/>
      </contour>
    </TTGlyph>
    <TTGlyph name="circumflex" xMin="112" yMin="601" xMax="360" yMax="756">
      <contour>
        <pt x="323" y="601" on="1"/>
        <pt x="235" y="696" on="1"/>
        <pt x="148" y="601" on="1"/>
        <pt x="112" y="601" on="1"/>
        <pt x="215" y="756" on="1"/>
        <pt x="257" y="756" on="1"/>
        <pt x="360" y="601" on="1"/>
      </contour>
    </TTGlyph>
    <TTGlyph name="circumflex.cap" xMin="104" yMin="564" xMax="339" yMax="709">
      <contour>
        <pt x="302" y="564" on="1"/>
        <pt x="221" y="652" on="1"/>
        <pt x="140" y="564" on="1"/>
        <pt x="104" y="564" on="1"/>
        <pt x="201" y="709" on="1"/>
        <pt x="243" y="709" on="1"/>
        <pt x="339" y="564" on="1"/>
      </contour>
    </TTGlyph>
    <TTGlyph name="colon" xMin="78" yMin="0" xMax="143" yMax="526">
      <contour>
        <pt x="78" y="437" on="1"/>
        <pt x="78" y="526" on="1"/>
        <pt x="143" y="526" on="1"/>
        <pt x="143" y="437" on="1"/>
      </contour>
      <contour>
        <pt x="78" y="0" on="1"/>
        <pt x="78" y="91" on="1"/>
        <pt x="143" y="91" on="1"/>
        <pt x="143" y="0" on="1"/>
      </contour>
    </TTGlyph>
    <TTGlyph name="colon.tab" xMin="100" yMin="0" xMax="165" yMax="526">
      <contour>
        <pt x="100" y="437" on="1"/>
        <pt x="100" y="526" on="1"/>
        <pt x="165" y="526" on="1"/>
        <pt x="165" y="437" on="1"/>
      </contour>
      <contour>
        <pt x="100" y="0" on="1"/>
        <pt x="100" y="91" on="1"/>
        <pt x="165" y="91" on="1"/>
        <pt x="165" y="0" on="1"/>
      </contour>
    </TTGlyph>
    <TTGlyph name="colonmonetary" xMin="45" yMin="-127" xMax="487" yMax="798">
      <contour>
        <pt x="165" y="-117" on="1"/>
        <pt x="186" y="27" on="1"/>
        <pt x="118" y="68" on="0"/>
        <pt x="45" y="236" on="0"/>
        <pt x="45" y="353" on="1"/>
        <pt x="45" y="430" on="0"/>
        <pt x="78" y="560" on="0"/>
        <pt x="140" y="656" on="0"/>
        <pt x="230" y="714" on="0"/>
        <pt x="287" y="719" on="1"/>
        <pt x="298" y="798" on="1"/>
        <pt x="336" y="789" on="1"/>
        <pt x="326" y="720" on="1"/>
        <pt x="358" y="718" on="0"/>
        <pt x="408" y="705" on="0"/>
        <pt x="429" y="694" on="1"/>
        <pt x="444" y="798" on="1"/>
        <pt x="482" y="789" on="1"/>
        <pt x="373" y="47" on="1"/>
        <pt x="425" y="63" on="0"/>
        <pt x="480" y="107" on="1"/>
        <pt x="487" y="59" on="1"/>
        <pt x="460" y="40" on="0"/>
        <pt x="401" y="11" on="0"/>
        <pt x="367" y="3" on="1"/>
        <pt x="348" y="-127" on="1"/>
        <pt x="310" y="-117" on="1"/>
        <pt x="327" y="-3" on="1"/>
        <pt x="322" y="-4" on="0"/>
        <pt x="312" y="-4" on="0"/>
        <pt x="307" y="-4" on="1"/>
        <pt x="262" y="-4" on="0"/>
        <pt x="223" y="10" on="1"/>
        <pt x="202" y="-127" on="1"/>
      </contour>
      <contour>
        <pt x="93" y="351" on="1"/>
        <pt x="93" y="259" on="0"/>
        <pt x="142" y="115" on="0"/>
        <pt x="193" y="76" on="1"/>
        <pt x="281" y="676" on="1"/>
        <pt x="234" y="670" on="0"/>
        <pt x="164" y="615" on="0"/>
        <pt x="117" y="529" on="0"/>
        <pt x="93" y="416" on="0"/>
      </contour>
      <contour>
        <pt x="310" y="38" on="1"/>
        <pt x="316" y="38" on="0"/>
        <pt x="329" y="38" on="0"/>
        <pt x="335" y="39" on="1"/>
        <pt x="423" y="647" on="1"/>
        <pt x="400" y="661" on="0"/>
        <pt x="349" y="676" on="0"/>
        <pt x="319" y="678" on="1"/>
        <pt x="229" y="54" on="1"/>
        <pt x="267" y="38" on="0"/>
      </contour>
    </TTGlyph>
    <TTGlyph name="comma" xMin="35" yMin="-147" xMax="154" yMax="91">
      <contour>
        <pt x="62" y="-147" on="1"/>
        <pt x="35" y="-140" on="1"/>
        <pt x="87" y="91" on="1"/>
        <pt x="154" y="91" on="1"/>
      </contour>
    </TTGlyph>
    <TTGlyph name="comma.alt" xMin="31" yMin="-148" xMax="144" yMax="91">
      <contour>
        <pt x="138" y="91" on="1"/>
        <pt x="140" y="79" on="0"/>
        <pt x="144" y="56" on="0"/>
        <pt x="144" y="45" on="1"/>
        <pt x="144" y="-2" on="0"/>
        <pt x="101" y="-94" on="0"/>
        <pt x="56" y="-148" on="1"/>
        <pt x="31" y="-136" on="1"/>
        <pt x="61" y="-84" on="0"/>
        <pt x="84" y="0" on="0"/>
        <pt x="84" y="40" on="1"/>
        <pt x="84" y="51" on="0"/>
        <pt x="81" y="74" on="0"/>
        <pt x="79" y="91" on="1"/>
      </contour>
    </TTGlyph>
    <TTGlyph name="comma.tab" xMin="64" yMin="-161" xMax="177" yMax="91">
      <contour>
        <pt x="92" y="-161" on="1"/>
        <pt x="64" y="-155" on="1"/>
        <pt x="111" y="91" on="1"/>
        <pt x="177" y="91" on="1"/>
      </contour>
    </TTGlyph>
    <TTGlyph name="comma.tab_alt" xMin="58" yMin="-161" xMax="172" yMax="91">
      <contour>
        <pt x="167" y="91" on="1"/>
        <pt x="170" y="78" on="0"/>
        <pt x="172" y="54" on="0"/>
        <pt x="172" y="41" on="1"/>
        <pt x="172" y="-8" on="0"/>
        <pt x="128" y="-105" on="0"/>
        <pt x="80" y="-161" on="1"/>
        <pt x="58" y="-148" on="1"/>
        <pt x="90" y="-94" on="0"/>
        <pt x="114" y="-5" on="0"/>
        <pt x="114" y="37" on="1"/>
        <pt x="114" y="48" on="0"/>
        <pt x="111" y="74" on="0"/>
        <pt x="108" y="91" on="1"/>
      </contour>
    </TTGlyph>
    <TTGlyph name="commaaccent" xMin="162" yMin="-245" xMax="266" yMax="-66">
      <contour>
        <pt x="227" y="-66" on="1"/>
        <pt x="248" y="-84" on="0"/>
        <pt x="266" y="-119" on="0"/>
        <pt x="266" y="-139" on="1"/>
        <pt x="266" y="-168" on="0"/>
        <pt x="227" y="-220" on="0"/>
        <pt x="195" y="-245" on="1"/>
        <pt x="162" y="-242" on="1"/>
        <pt x="188" y="-213" on="0"/>
        <pt x="214" y="-169" on="0"/>
        <pt x="214" y="-149" on="1"/>
        <pt x="214" y="-133" on="0"/>
        <pt x="199" y="-105" on="0"/>
        <pt x="178" y="-85" on="1"/>
      </contour>
    </TTGlyph>
    <TTGlyph name="commaaccent.cap" xMin="152" yMin="-231" xMax="251" yMax="-62">
      <contour>
        <pt x="215" y="-62" on="1"/>
        <pt x="235" y="-79" on="0"/>
        <pt x="251" y="-111" on="0"/>
        <pt x="251" y="-131" on="1"/>
        <pt x="251" y="-158" on="0"/>
        <pt x="215" y="-207" on="0"/>
        <pt x="185" y="-231" on="1"/>
        <pt x="152" y="-227" on="1"/>
        <pt x="200" y="-175" on="0"/>
        <pt x="200" y="-140" on="1"/>
        <pt x="200" y="-125" on="0"/>
        <pt x="187" y="-98" on="0"/>
        <pt x="167" y="-80" on="1"/>
      </contour>
    </TTGlyph>
    <TTGlyph name="commaaccent.rot" xMin="201" yMin="600" xMax="305" yMax="780">
      <contour>
        <pt x="240" y="600" on="1"/>
        <pt x="219" y="618" on="0"/>
        <pt x="201" y="653" on="0"/>
        <pt x="201" y="673" on="1"/>
        <pt x="201" y="702" on="0"/>
        <pt x="240" y="754" on="0"/>
        <pt x="271" y="780" on="1"/>
        <pt x="305" y="776" on="1"/>
        <pt x="278" y="747" on="0"/>
        <pt x="252" y="703" on="0"/>
        <pt x="252" y="683" on="1"/>
        <pt x="252" y="667" on="0"/>
        <pt x="267" y="639" on="0"/>
        <pt x="288" y="619" on="1"/>
      </contour>
    </TTGlyph>
    <TTGlyph name="copyright" xMin="61" yMin="-17" xMax="709" yMax="741">
      <contour>
        <pt x="709" y="362" on="1"/>
        <pt x="709" y="280" on="0"/>
        <pt x="663" y="141" on="0"/>
        <pt x="579" y="40" on="0"/>
        <pt x="460" y="-17" on="0"/>
        <pt x="387" y="-17" on="1"/>
        <pt x="314" y="-17" on="0"/>
        <pt x="194" y="40" on="0"/>
        <pt x="108" y="141" on="0"/>
        <pt x="61" y="280" on="0"/>
        <pt x="61" y="362" on="1"/>
        <pt x="61" y="444" on="0"/>
        <pt x="108" y="583" on="0"/>
        <pt x="193" y="684" on="0"/>
        <pt x="312" y="741" on="0"/>
        <pt x="385" y="741" on="1"/>
        <pt x="458" y="741" on="0"/>
        <pt x="577" y="684" on="0"/>
        <pt x="662" y="583" on="0"/>
        <pt x="709" y="444" on="0"/>
      </contour>
      <contour>
        <pt x="679" y="362" on="1"/>
        <pt x="679" y="440" on="0"/>
        <pt x="637" y="569" on="0"/>
        <pt x="559" y="662" on="0"/>
        <pt x="450" y="714" on="0"/>
        <pt x="384" y="714" on="1"/>
        <pt x="318" y="714" on="0"/>
        <pt x="211" y="662" on="0"/>
        <pt x="134" y="569" on="0"/>
        <pt x="93" y="439" on="0"/>
        <pt x="93" y="362" on="1"/>
        <pt x="93" y="285" on="0"/>
        <pt x="135" y="156" on="0"/>
        <pt x="212" y="63" on="0"/>
        <pt x="321" y="11" on="0"/>
        <pt x="388" y="11" on="1"/>
        <pt x="454" y="11" on="0"/>
        <pt x="561" y="63" on="0"/>
        <pt x="638" y="157" on="0"/>
        <pt x="679" y="285" on="0"/>
      </contour>
      <contour>
        <pt x="505" y="191" on="1"/>
        <pt x="482" y="174" on="0"/>
        <pt x="427" y="151" on="0"/>
        <pt x="391" y="151" on="1"/>
        <pt x="355" y="151" on="0"/>
        <pt x="296" y="182" on="0"/>
        <pt x="255" y="239" on="0"/>
        <pt x="232" y="318" on="0"/>
        <pt x="232" y="365" on="1"/>
        <pt x="232" y="413" on="0"/>
        <pt x="255" y="492" on="0"/>
        <pt x="298" y="549" on="0"/>
        <pt x="358" y="581" on="0"/>
        <pt x="395" y="581" on="1"/>
        <pt x="425" y="581" on="0"/>
        <pt x="476" y="563" on="0"/>
        <pt x="498" y="547" on="1"/>
        <pt x="491" y="502" on="1"/>
        <pt x="465" y="522" on="0"/>
        <pt x="420" y="540" on="0"/>
        <pt x="393" y="540" on="1"/>
        <pt x="366" y="540" on="0"/>
        <pt x="323" y="514" on="0"/>
        <pt x="293" y="468" on="0"/>
        <pt x="277" y="404" on="0"/>
        <pt x="277" y="366" on="1"/>
        <pt x="277" y="287" on="0"/>
        <pt x="341" y="191" on="0"/>
        <pt x="394" y="191" on="1"/>
        <pt x="425" y="191" on="0"/>
        <pt x="474" y="212" on="0"/>
        <pt x="500" y="235" on="1"/>
      </contour>
    </TTGlyph>
    <TTGlyph name="d" xMin="56" yMin="-11" xMax="447" yMax="801">
      <contour>
        <pt x="411" y="0" on="1"/>
        <pt x="399" y="74" on="1"/>
        <pt x="367" y="37" on="0"/>
        <pt x="296" y="-11" on="0"/>
        <pt x="247" y="-11" on="1"/>
        <pt x="206" y="-11" on="0"/>
        <pt x="136" y="22" on="0"/>
        <pt x="85" y="87" on="0"/>
        <pt x="56" y="186" on="0"/>
        <pt x="56" y="252" on="1"/>
        <pt x="56" y="323" on="0"/>
        <pt x="92" y="429" on="0"/>
        <pt x="153" y="499" on="0"/>
        <pt x="233" y="533" on="0"/>
        <pt x="278" y="533" on="1"/>
        <pt x="312" y="533" on="0"/>
        <pt x="370" y="521" on="0"/>
        <pt x="396" y="510" on="1"/>
        <pt x="396" y="790" on="1"/>
        <pt x="447" y="801" on="1"/>
        <pt x="447" y="0" on="1"/>
      </contour>
      <contour>
        <pt x="396" y="461" on="1"/>
        <pt x="370" y="474" on="0"/>
        <pt x="312" y="488" on="0"/>
        <pt x="280" y="488" on="1"/>
        <pt x="244" y="488" on="0"/>
        <pt x="181" y="460" on="0"/>
        <pt x="135" y="402" on="0"/>
        <pt x="109" y="313" on="0"/>
        <pt x="109" y="253" on="1"/>
        <pt x="109" y="147" on="0"/>
        <pt x="186" y="36" on="0"/>
        <pt x="249" y="36" on="1"/>
        <pt x="290" y="36" on="0"/>
        <pt x="358" y="83" on="0"/>
        <pt x="396" y="125" on="1"/>
      </contour>
    </TTGlyph>
    <TTGlyph name="dagger" xMin="56" yMin="-102" xMax="428" yMax="725">
      <contour>
        <pt x="249" y="521" on="1"/>
        <pt x="234" y="521" on="1"/>
        <pt x="219" y="634" on="1"/>
        <pt x="219" y="725" on="1"/>
        <pt x="265" y="725" on="1"/>
        <pt x="265" y="634" on="1"/>
      </contour>
      <contour>
        <pt x="375" y="468" on="1"/>
        <pt x="269" y="485" on="1"/>
        <pt x="269" y="499" on="1"/>
        <pt x="375" y="516" on="1"/>
        <pt x="428" y="516" on="1"/>
        <pt x="428" y="468" on="1"/>
      </contour>
      <contour>
        <pt x="108" y="468" on="1"/>
        <pt x="56" y="468" on="1"/>
        <pt x="56" y="516" on="1"/>
        <pt x="108" y="516" on="1"/>
        <pt x="214" y="499" on="1"/>
        <pt x="214" y="485" on="1"/>
      </contour>
      <contour>
        <pt x="247" y="-102" on="1"/>
        <pt x="236" y="-102" on="1"/>
        <pt x="221" y="19" on="1"/>
        <pt x="221" y="352" on="1"/>
        <pt x="234" y="463" on="1"/>
        <pt x="249" y="463" on="1"/>
        <pt x="262" y="352" on="1"/>
        <pt x="262" y="19" on="1"/>
      </contour>
    </TTGlyph>
    <TTGlyph name="daggerdbl" xMin="61" yMin="-174" xMax="432" yMax="725">
      <contour>
        <pt x="254" y="521" on="1"/>
        <pt x="240" y="521" on="1"/>
        <pt x="223" y="634" on="1"/>
        <pt x="223" y="725" on="1"/>
        <pt x="270" y="725" on="1"/>
        <pt x="270" y="634" on="1"/>
      </contour>
      <contour>
        <pt x="380" y="468" on="1"/>
        <pt x="274" y="485" on="1"/>
        <pt x="274" y="499" on="1"/>
        <pt x="380" y="516" on="1"/>
        <pt x="432" y="516" on="1"/>
        <pt x="432" y="468" on="1"/>
      </contour>
      <contour>
        <pt x="113" y="468" on="1"/>
        <pt x="61" y="468" on="1"/>
        <pt x="61" y="516" on="1"/>
        <pt x="113" y="516" on="1"/>
        <pt x="219" y="499" on="1"/>
        <pt x="219" y="485" on="1"/>
      </contour>
      <contour>
        <pt x="254" y="89" on="1"/>
        <pt x="240" y="89" on="1"/>
        <pt x="226" y="199" on="1"/>
        <pt x="226" y="352" on="1"/>
        <pt x="240" y="463" on="1"/>
        <pt x="254" y="463" on="1"/>
        <pt x="268" y="352" on="1"/>
        <pt x="268" y="199" on="1"/>
      </contour>
      <contour>
        <pt x="380" y="36" on="1"/>
        <pt x="274" y="53" on="1"/>
        <pt x="274" y="67" on="1"/>
        <pt x="380" y="83" on="1"/>
        <pt x="432" y="83" on="1"/>
        <pt x="432" y="36" on="1"/>
      </contour>
      <contour>
        <pt x="113" y="36" on="1"/>
        <pt x="61" y="36" on="1"/>
        <pt x="61" y="83" on="1"/>
        <pt x="113" y="83" on="1"/>
        <pt x="219" y="67" on="1"/>
        <pt x="219" y="53" on="1"/>
      </contour>
      <contour>
        <pt x="223" y="-174" on="1"/>
        <pt x="223" y="-84" on="1"/>
        <pt x="240" y="31" on="1"/>
        <pt x="254" y="31" on="1"/>
        <pt x="270" y="-84" on="1"/>
        <pt x="270" y="-174" on="1"/>
      </contour>
    </TTGlyph>
    <TTGlyph name="dcaron" xMin="56" yMin="-11" xMax="589" yMax="803">
      <component glyphName="caron.alt" x="318" y="4" flags="0x4"/>
      <component glyphName="d" x="0" y="0" flags="0x4"/>
    </TTGlyph>
    <TTGlyph name="dcroat" xMin="56" yMin="-10" xMax="520" yMax="801">
      <contour>
        <pt x="411" y="0" on="1"/>
        <pt x="399" y="74" on="1"/>
        <pt x="366" y="36" on="0"/>
        <pt x="295" y="-10" on="0"/>
        <pt x="247" y="-10" on="1"/>
        <pt x="206" y="-10" on="0"/>
        <pt x="136" y="22" on="0"/>
        <pt x="85" y="88" on="0"/>
        <pt x="56" y="186" on="0"/>
        <pt x="56" y="252" on="1"/>
        <pt x="56" y="323" on="0"/>
        <pt x="92" y="429" on="0"/>
        <pt x="153" y="499" on="0"/>
        <pt x="233" y="533" on="0"/>
        <pt x="278" y="533" on="1"/>
        <pt x="312" y="533" on="0"/>
        <pt x="370" y="521" on="0"/>
        <pt x="396" y="510" on="1"/>
        <pt x="396" y="655" on="1"/>
        <pt x="242" y="655" on="1"/>
        <pt x="234" y="699" on="1"/>
        <pt x="396" y="699" on="1"/>
        <pt x="396" y="790" on="1"/>
        <pt x="447" y="801" on="1"/>
        <pt x="447" y="699" on="1"/>
        <pt x="520" y="699" on="1"/>
        <pt x="520" y="655" on="1"/>
        <pt x="447" y="655" on="1"/>
        <pt x="447" y="0" on="1"/>
      </contour>
      <contour>
        <pt x="396" y="461" on="1"/>
        <pt x="370" y="474" on="0"/>
        <pt x="312" y="488" on="0"/>
        <pt x="280" y="488" on="1"/>
        <pt x="244" y="488" on="0"/>
        <pt x="181" y="460" on="0"/>
        <pt x="135" y="402" on="0"/>
        <pt x="109" y="313" on="0"/>
        <pt x="109" y="253" on="1"/>
        <pt x="109" y="147" on="0"/>
        <pt x="186" y="37" on="0"/>
        <pt x="249" y="37" on="1"/>
        <pt x="287" y="37" on="0"/>
        <pt x="358" y="83" on="0"/>
        <pt x="396" y="125" on="1"/>
      </contour>
    </TTGlyph>
    <TTGlyph name="dcroat.flat" xMin="56" yMin="-10" xMax="520" yMax="801">
      <contour>
        <pt x="411" y="0" on="1"/>
        <pt x="399" y="74" on="1"/>
        <pt x="366" y="36" on="0"/>
        <pt x="295" y="-10" on="0"/>
        <pt x="247" y="-10" on="1"/>
        <pt x="206" y="-10" on="0"/>
        <pt x="136" y="22" on="0"/>
        <pt x="85" y="88" on="0"/>
        <pt x="56" y="186" on="0"/>
        <pt x="56" y="252" on="1"/>
        <pt x="56" y="323" on="0"/>
        <pt x="92" y="429" on="0"/>
        <pt x="153" y="499" on="0"/>
        <pt x="233" y="533" on="0"/>
        <pt x="278" y="533" on="1"/>
        <pt x="312" y="533" on="0"/>
        <pt x="370" y="521" on="0"/>
        <pt x="396" y="510" on="1"/>
        <pt x="396" y="655" on="1"/>
        <pt x="238" y="655" on="1"/>
        <pt x="238" y="699" on="1"/>
        <pt x="396" y="699" on="1"/>
        <pt x="396" y="790" on="1"/>
        <pt x="447" y="801" on="1"/>
        <pt x="447" y="699" on="1"/>
        <pt x="520" y="699" on="1"/>
        <pt x="520" y="655" on="1"/>
        <pt x="447" y="655" on="1"/>
        <pt x="447" y="0" on="1"/>
      </contour>
      <contour>
        <pt x="396" y="461" on="1"/>
        <pt x="370" y="474" on="0"/>
        <pt x="312" y="488" on="0"/>
        <pt x="280" y="488" on="1"/>
        <pt x="244" y="488" on="0"/>
        <pt x="181" y="460" on="0"/>
        <pt x="135" y="402" on="0"/>
        <pt x="109" y="313" on="0"/>
        <pt x="109" y="253" on="1"/>
        <pt x="109" y="147" on="0"/>
        <pt x="186" y="37" on="0"/>
        <pt x="249" y="37" on="1"/>
        <pt x="287" y="37" on="0"/>
        <pt x="358" y="83" on="0"/>
        <pt x="396" y="125" on="1"/>
      </contour>
    </TTGlyph>
    <TTGlyph name="degree" xMin="65" yMin="441" xMax="347" yMax="723">
      <contour>
        <pt x="347" y="582" on="1"/>
        <pt x="347" y="552" on="0"/>
        <pt x="325" y="500" on="0"/>
        <pt x="287" y="463" on="0"/>
        <pt x="236" y="441" on="0"/>
        <pt x="206" y="441" on="1"/>
        <pt x="176" y="441" on="0"/>
        <pt x="125" y="463" on="0"/>
        <pt x="87" y="500" on="0"/>
        <pt x="65" y="552" on="0"/>
        <pt x="65" y="582" on="1"/>
        <pt x="65" y="612" on="0"/>
        <pt x="87" y="663" on="0"/>
        <pt x="125" y="701" on="0"/>
        <pt x="176" y="723" on="0"/>
        <pt x="206" y="723" on="1"/>
        <pt x="236" y="723" on="0"/>
        <pt x="287" y="701" on="0"/>
        <pt x="325" y="663" on="0"/>
        <pt x="347" y="612" on="0"/>
      </contour>
      <contour>
        <pt x="304" y="582" on="1"/>
        <pt x="304" y="603" on="0"/>
        <pt x="289" y="641" on="0"/>
        <pt x="263" y="670" on="0"/>
        <pt x="227" y="686" on="0"/>
        <pt x="206" y="686" on="1"/>
        <pt x="163" y="686" on="0"/>
        <pt x="108" y="625" on="0"/>
        <pt x="108" y="582" on="1"/>
        <pt x="108" y="538" on="0"/>
        <pt x="164" y="477" on="0"/>
        <pt x="207" y="477" on="1"/>
        <pt x="228" y="477" on="0"/>
        <pt x="264" y="493" on="0"/>
        <pt x="289" y="522" on="0"/>
        <pt x="304" y="560" on="0"/>
      </contour>
    </TTGlyph>
    <TTGlyph name="degree.tab" xMin="98" yMin="398" xMax="429" yMax="726">
      <contour>
        <pt x="429" y="562" on="1"/>
        <pt x="429" y="527" on="0"/>
        <pt x="404" y="467" on="0"/>
        <pt x="360" y="423" on="0"/>
        <pt x="299" y="398" on="0"/>
        <pt x="264" y="398" on="1"/>
        <pt x="229" y="398" on="0"/>
        <pt x="168" y="423" on="0"/>
        <pt x="123" y="467" on="0"/>
        <pt x="98" y="527" on="0"/>
        <pt x="98" y="562" on="1"/>
        <pt x="98" y="597" on="0"/>
        <pt x="123" y="657" on="0"/>
        <pt x="168" y="701" on="0"/>
        <pt x="229" y="726" on="0"/>
        <pt x="264" y="726" on="1"/>
        <pt x="299" y="726" on="0"/>
        <pt x="360" y="701" on="0"/>
        <pt x="404" y="657" on="0"/>
        <pt x="429" y="597" on="0"/>
      </contour>
      <contour>
        <pt x="144" y="562" on="1"/>
        <pt x="144" y="536" on="0"/>
        <pt x="162" y="490" on="0"/>
        <pt x="194" y="456" on="0"/>
        <pt x="238" y="437" on="0"/>
        <pt x="264" y="437" on="1"/>
        <pt x="318" y="437" on="0"/>
        <pt x="384" y="508" on="0"/>
        <pt x="384" y="562" on="1"/>
        <pt x="384" y="588" on="0"/>
        <pt x="366" y="634" on="0"/>
        <pt x="334" y="668" on="0"/>
        <pt x="290" y="687" on="0"/>
        <pt x="263" y="687" on="1"/>
        <pt x="237" y="687" on="0"/>
        <pt x="193" y="668" on="0"/>
        <pt x="161" y="634" on="0"/>
        <pt x="144" y="588" on="0"/>
      </contour>
    </TTGlyph>
    <TTGlyph name="dieresis" xMin="121" yMin="612" xMax="351" yMax="696">
      <contour>
        <pt x="121" y="612" on="1"/>
        <pt x="121" y="696" on="1"/>
        <pt x="190" y="696" on="1"/>
        <pt x="190" y="612" on="1"/>
      </contour>
      <contour>
        <pt x="283" y="612" on="1"/>
        <pt x="283" y="696" on="1"/>
        <pt x="351" y="696" on="1"/>
        <pt x="351" y="612" on="1"/>
      </contour>
    </TTGlyph>
    <TTGlyph name="dieresis.cap" xMin="112" yMin="573" xMax="331" yMax="654">
      <contour>
        <pt x="112" y="573" on="1"/>
        <pt x="112" y="654" on="1"/>
        <pt x="179" y="654" on="1"/>
        <pt x="179" y="573" on="1"/>
      </contour>
      <contour>
        <pt x="265" y="573" on="1"/>
        <pt x="265" y="654" on="1"/>
        <pt x="331" y="654" on="1"/>
        <pt x="331" y="573" on="1"/>
      </contour>
    </TTGlyph>
    <TTGlyph name="divide" xMin="59" yMin="141" xMax="475" yMax="577">
      <contour>
        <pt x="237" y="496" on="1"/>
        <pt x="237" y="577" on="1"/>
        <pt x="297" y="577" on="1"/>
        <pt x="297" y="496" on="1"/>
      </contour>
      <contour>
        <pt x="59" y="337" on="1"/>
        <pt x="59" y="380" on="1"/>
        <pt x="475" y="380" on="1"/>
        <pt x="475" y="337" on="1"/>
      </contour>
      <contour>
        <pt x="237" y="141" on="1"/>
        <pt x="237" y="222" on="1"/>
        <pt x="297" y="222" on="1"/>
        <pt x="297" y="141" on="1"/>
      </contour>
    </TTGlyph>
    <TTGlyph name="divide.tab" xMin="57" yMin="141" xMax="472" yMax="577">
      <contour>
        <pt x="235" y="496" on="1"/>
        <pt x="235" y="577" on="1"/>
        <pt x="295" y="577" on="1"/>
        <pt x="295" y="496" on="1"/>
      </contour>
      <contour>
        <pt x="57" y="337" on="1"/>
        <pt x="57" y="380" on="1"/>
        <pt x="472" y="380" on="1"/>
        <pt x="472" y="337" on="1"/>
      </contour>
      <contour>
        <pt x="235" y="141" on="1"/>
        <pt x="235" y="222" on="1"/>
        <pt x="295" y="222" on="1"/>
        <pt x="295" y="141" on="1"/>
      </contour>
    </TTGlyph>
    <TTGlyph name="dollar" xMin="52" yMin="-132" xMax="455" yMax="801">
      <contour>
        <pt x="335" y="713" on="1"/>
        <pt x="363" y="708" on="0"/>
        <pt x="413" y="692" on="0"/>
        <pt x="436" y="681" on="1"/>
        <pt x="428" y="633" on="1"/>
        <pt x="382" y="658" on="0"/>
        <pt x="328" y="670" on="1"/>
        <pt x="284" y="389" on="1"/>
        <pt x="328" y="369" on="0"/>
        <pt x="393" y="327" on="0"/>
        <pt x="435" y="279" on="0"/>
        <pt x="455" y="223" on="0"/>
        <pt x="455" y="187" on="1"/>
        <pt x="455" y="145" on="0"/>
        <pt x="426" y="76" on="0"/>
        <pt x="371" y="26" on="0"/>
        <pt x="293" y="-2" on="0"/>
        <pt x="245" y="-2" on="1"/>
        <pt x="239" y="-2" on="0"/>
        <pt x="228" y="-2" on="0"/>
        <pt x="222" y="-1" on="1"/>
        <pt x="202" y="-132" on="1"/>
        <pt x="164" y="-122" on="1"/>
        <pt x="184" y="3" on="1"/>
        <pt x="147" y="8" on="0"/>
        <pt x="81" y="31" on="0"/>
        <pt x="52" y="45" on="1"/>
        <pt x="60" y="92" on="1"/>
        <pt x="90" y="76" on="0"/>
        <pt x="156" y="52" on="0"/>
        <pt x="190" y="46" on="1"/>
        <pt x="239" y="359" on="1"/>
        <pt x="200" y="376" on="0"/>
        <pt x="138" y="413" on="0"/>
        <pt x="95" y="456" on="0"/>
        <pt x="72" y="511" on="0"/>
        <pt x="72" y="546" on="1"/>
        <pt x="72" y="586" on="0"/>
        <pt x="100" y="650" on="0"/>
        <pt x="151" y="695" on="0"/>
        <pt x="223" y="719" on="0"/>
        <pt x="267" y="719" on="1"/>
        <pt x="275" y="719" on="0"/>
        <pt x="288" y="719" on="0"/>
        <pt x="296" y="718" on="1"/>
        <pt x="308" y="801" on="1"/>
        <pt x="347" y="791" on="1"/>
      </contour>
      <contour>
        <pt x="407" y="184" on="1"/>
        <pt x="407" y="209" on="0"/>
        <pt x="395" y="251" on="0"/>
        <pt x="366" y="289" on="0"/>
        <pt x="315" y="324" on="0"/>
        <pt x="276" y="342" on="1"/>
        <pt x="229" y="41" on="1"/>
        <pt x="234" y="40" on="0"/>
        <pt x="245" y="40" on="0"/>
        <pt x="250" y="40" on="1"/>
        <pt x="289" y="40" on="0"/>
        <pt x="348" y="62" on="0"/>
        <pt x="387" y="101" on="0"/>
        <pt x="407" y="154" on="0"/>
      </contour>
      <contour>
        <pt x="120" y="550" on="1"/>
        <pt x="120" y="524" on="0"/>
        <pt x="135" y="485" on="0"/>
        <pt x="166" y="452" on="0"/>
        <pt x="214" y="422" on="0"/>
        <pt x="247" y="406" on="1"/>
        <pt x="289" y="676" on="1"/>
        <pt x="282" y="677" on="0"/>
        <pt x="270" y="677" on="0"/>
        <pt x="263" y="677" on="1"/>
        <pt x="193" y="677" on="0"/>
        <pt x="120" y="605" on="0"/>
      </contour>
    </TTGlyph>
    <TTGlyph name="dollar.tab" xMin="54" yMin="-128" xMax="465" yMax="798">
      <contour>
        <pt x="172" y="-119" on="1"/>
        <pt x="190" y="3" on="1"/>
        <pt x="152" y="10" on="0"/>
        <pt x="85" y="35" on="0"/>
        <pt x="54" y="51" on="1"/>
        <pt x="61" y="97" on="1"/>
        <pt x="94" y="77" on="0"/>
        <pt x="162" y="51" on="0"/>
        <pt x="199" y="45" on="1"/>
        <pt x="245" y="357" on="1"/>
        <pt x="202" y="376" on="0"/>
        <pt x="138" y="413" on="0"/>
        <pt x="96" y="457" on="0"/>
        <pt x="75" y="510" on="0"/>
        <pt x="75" y="545" on="1"/>
        <pt x="75" y="584" on="0"/>
        <pt x="105" y="648" on="0"/>
        <pt x="156" y="694" on="0"/>
        <pt x="226" y="719" on="0"/>
        <pt x="267" y="719" on="1"/>
        <pt x="275" y="719" on="0"/>
        <pt x="289" y="719" on="0"/>
        <pt x="296" y="718" on="1"/>
        <pt x="307" y="798" on="1"/>
        <pt x="348" y="788" on="1"/>
        <pt x="337" y="714" on="1"/>
        <pt x="366" y="709" on="0"/>
        <pt x="421" y="689" on="0"/>
        <pt x="450" y="675" on="1"/>
        <pt x="442" y="628" on="1"/>
        <pt x="384" y="659" on="0"/>
        <pt x="329" y="671" on="1"/>
        <pt x="288" y="389" on="1"/>
        <pt x="336" y="368" on="0"/>
        <pt x="403" y="327" on="0"/>
        <pt x="446" y="280" on="0"/>
        <pt x="465" y="224" on="0"/>
        <pt x="465" y="188" on="1"/>
        <pt x="465" y="146" on="0"/>
        <pt x="433" y="76" on="0"/>
        <pt x="376" y="26" on="0"/>
        <pt x="300" y="-2" on="0"/>
        <pt x="255" y="-2" on="1"/>
        <pt x="249" y="-2" on="0"/>
        <pt x="238" y="-2" on="0"/>
        <pt x="233" y="-1" on="1"/>
        <pt x="214" y="-128" on="1"/>
      </contour>
      <contour>
        <pt x="124" y="547" on="1"/>
        <pt x="124" y="524" on="0"/>
        <pt x="136" y="486" on="0"/>
        <pt x="164" y="453" on="0"/>
        <pt x="213" y="422" on="0"/>
        <pt x="251" y="405" on="1"/>
        <pt x="291" y="676" on="1"/>
        <pt x="285" y="677" on="0"/>
        <pt x="272" y="677" on="0"/>
        <pt x="266" y="677" on="1"/>
        <pt x="264" y="677" on="1"/>
        <pt x="231" y="677" on="0"/>
        <pt x="179" y="657" on="0"/>
        <pt x="143" y="621" on="0"/>
        <pt x="124" y="574" on="0"/>
      </contour>
      <contour>
        <pt x="416" y="185" on="1"/>
        <pt x="416" y="210" on="0"/>
        <pt x="402" y="253" on="0"/>
        <pt x="371" y="291" on="0"/>
        <pt x="319" y="324" on="0"/>
        <pt x="281" y="341" on="1"/>
        <pt x="237" y="41" on="1"/>
        <pt x="242" y="40" on="0"/>
        <pt x="251" y="40" on="0"/>
        <pt x="256" y="40" on="1"/>
        <pt x="331" y="40" on="0"/>
        <pt x="416" y="121" on="0"/>
      </contour>
    </TTGlyph>
    <TTGlyph name="dotaccent" xMin="200" yMin="608" xMax="272" yMax="696">
      <contour>
        <pt x="200" y="608" on="1"/>
        <pt x="200" y="696" on="1"/>
        <pt x="272" y="696" on="1"/>
        <pt x="272" y="608" on="1"/>
      </contour>
    </TTGlyph>
    <TTGlyph name="dotaccent.cap" xMin="186" yMin="570" xMax="257" yMax="654">
      <contour>
        <pt x="186" y="570" on="1"/>
        <pt x="186" y="654" on="1"/>
        <pt x="257" y="654" on="1"/>
        <pt x="257" y="570" on="1"/>
      </contour>
    </TTGlyph>
    <TTGlyph name="dotlessi" xMin="93" yMin="0" xMax="145" yMax="526">
      <contour>
        <pt x="93" y="0" on="1"/>
        <pt x="93" y="526" on="1"/>
        <pt x="145" y="526" on="1"/>
        <pt x="145" y="0" on="1"/>
      </contour>
    </TTGlyph>
    <TTGlyph name="e" xMin="54" yMin="-10" xMax="439" yMax="538">
      <contour>
        <pt x="437" y="55" on="1"/>
        <pt x="402" y="26" on="0"/>
        <pt x="315" y="-10" on="0"/>
        <pt x="263" y="-10" on="1"/>
        <pt x="216" y="-10" on="0"/>
        <pt x="139" y="28" on="0"/>
        <pt x="84" y="98" on="0"/>
        <pt x="54" y="200" on="0"/>
        <pt x="54" y="263" on="1"/>
        <pt x="54" y="324" on="0"/>
        <pt x="84" y="425" on="0"/>
        <pt x="138" y="498" on="0"/>
        <pt x="212" y="538" on="0"/>
        <pt x="256" y="538" on="1"/>
        <pt x="302" y="538" on="0"/>
        <pt x="370" y="498" on="0"/>
        <pt x="416" y="427" on="0"/>
        <pt x="439" y="332" on="0"/>
        <pt x="439" y="277" on="1"/>
        <pt x="439" y="259" on="1"/>
        <pt x="106" y="259" on="1"/>
        <pt x="107" y="208" on="0"/>
        <pt x="129" y="126" on="0"/>
        <pt x="170" y="67" on="0"/>
        <pt x="230" y="36" on="0"/>
        <pt x="268" y="36" on="1"/>
        <pt x="310" y="36" on="0"/>
        <pt x="391" y="71" on="0"/>
        <pt x="429" y="103" on="1"/>
      </contour>
      <contour>
        <pt x="256" y="494" on="1"/>
        <pt x="224" y="494" on="0"/>
        <pt x="173" y="466" on="0"/>
        <pt x="135" y="415" on="0"/>
        <pt x="111" y="344" on="0"/>
        <pt x="108" y="301" on="1"/>
        <pt x="387" y="301" on="1"/>
        <pt x="385" y="343" on="0"/>
        <pt x="366" y="414" on="0"/>
        <pt x="332" y="465" on="0"/>
        <pt x="285" y="494" on="0"/>
      </contour>
    </TTGlyph>
    <TTGlyph name="eacute" xMin="54" yMin="-10" xMax="439" yMax="757">
      <component glyphName="acute" x="76" y="0" flags="0x4"/>
      <component glyphName="e" x="0" y="0" flags="0x4"/>
    </TTGlyph>
    <TTGlyph name="ebreve" xMin="54" yMin="-10" xMax="439" yMax="730">
      <component glyphName="e" x="0" y="0" flags="0x204"/>
      <component glyphName="breve" x="19" y="0" flags="0x4"/>
    </TTGlyph>
    <TTGlyph name="ecaron" xMin="54" yMin="-10" xMax="439" yMax="756">
      <component glyphName="caron" x="18" y="0" flags="0x4"/>
      <component glyphName="e" x="0" y="0" flags="0x4"/>
    </TTGlyph>
    <TTGlyph name="ecircumflex" xMin="54" yMin="-10" xMax="439" yMax="756">
      <component glyphName="circumflex" x="18" y="0" flags="0x4"/>
      <component glyphName="e" x="0" y="0" flags="0x4"/>
    </TTGlyph>
    <TTGlyph name="edieresis" xMin="54" yMin="-10" xMax="439" yMax="696">
      <component glyphName="dieresis" x="18" y="0" flags="0x4"/>
      <component glyphName="e" x="0" y="0" flags="0x4"/>
    </TTGlyph>
    <TTGlyph name="edotaccent" xMin="54" yMin="-10" xMax="439" yMax="696">
      <component glyphName="e" x="0" y="0" flags="0x204"/>
      <component glyphName="dotaccent" x="19" y="0" flags="0x4"/>
    </TTGlyph>
    <TTGlyph name="egrave" xMin="54" yMin="-10" xMax="439" yMax="757">
      <component glyphName="e" x="0" y="0" flags="0x204"/>
      <component glyphName="grave" x="-43" y="0" flags="0x4"/>
    </TTGlyph>
    <TTGlyph name="eight" xMin="61" yMin="-12" xMax="480" yMax="729">
      <contour>
        <pt x="61" y="178" on="1"/>
        <pt x="61" y="246" on="0"/>
        <pt x="138" y="348" on="0"/>
        <pt x="204" y="383" on="1"/>
        <pt x="150" y="410" on="0"/>
        <pt x="84" y="495" on="0"/>
        <pt x="84" y="555" on="1"/>
        <pt x="84" y="593" on="0"/>
        <pt x="113" y="657" on="0"/>
        <pt x="164" y="703" on="0"/>
        <pt x="235" y="729" on="0"/>
        <pt x="276" y="729" on="1"/>
        <pt x="316" y="729" on="0"/>
        <pt x="385" y="704" on="0"/>
        <pt x="434" y="659" on="0"/>
        <pt x="462" y="597" on="0"/>
        <pt x="462" y="560" on="1"/>
        <pt x="462" y="527" on="0"/>
        <pt x="442" y="473" on="0"/>
        <pt x="409" y="427" on="0"/>
        <pt x="365" y="389" on="0"/>
        <pt x="340" y="373" on="1"/>
        <pt x="407" y="341" on="0"/>
        <pt x="480" y="250" on="0"/>
        <pt x="480" y="181" on="1"/>
        <pt x="480" y="140" on="0"/>
        <pt x="448" y="69" on="0"/>
        <pt x="393" y="17" on="0"/>
        <pt x="316" y="-12" on="0"/>
        <pt x="271" y="-12" on="1"/>
        <pt x="223" y="-12" on="0"/>
        <pt x="145" y="18" on="0"/>
        <pt x="90" y="70" on="0"/>
        <pt x="61" y="139" on="0"/>
      </contour>
      <contour>
        <pt x="115" y="182" on="1"/>
        <pt x="115" y="149" on="0"/>
        <pt x="138" y="95" on="0"/>
        <pt x="180" y="56" on="0"/>
        <pt x="238" y="34" on="0"/>
        <pt x="273" y="34" on="1"/>
        <pt x="306" y="34" on="0"/>
        <pt x="362" y="56" on="0"/>
        <pt x="403" y="95" on="0"/>
        <pt x="427" y="149" on="0"/>
        <pt x="427" y="180" on="1"/>
        <pt x="427" y="211" on="0"/>
        <pt x="409" y="261" on="0"/>
        <pt x="367" y="303" on="0"/>
        <pt x="298" y="342" on="0"/>
        <pt x="247" y="363" on="1"/>
        <pt x="187" y="332" on="0"/>
        <pt x="115" y="240" on="0"/>
      </contour>
      <contour>
        <pt x="137" y="557" on="1"/>
        <pt x="137" y="530" on="0"/>
        <pt x="152" y="486" on="0"/>
        <pt x="189" y="447" on="0"/>
        <pt x="249" y="411" on="0"/>
        <pt x="294" y="392" on="1"/>
        <pt x="346" y="422" on="0"/>
        <pt x="409" y="504" on="0"/>
        <pt x="409" y="558" on="1"/>
        <pt x="409" y="585" on="0"/>
        <pt x="389" y="631" on="0"/>
        <pt x="354" y="665" on="0"/>
        <pt x="304" y="684" on="0"/>
        <pt x="274" y="684" on="1"/>
        <pt x="242" y="684" on="0"/>
        <pt x="191" y="663" on="0"/>
        <pt x="156" y="628" on="0"/>
        <pt x="137" y="582" on="0"/>
      </contour>
    </TTGlyph>
    <TTGlyph name="eight.den" xMin="47" yMin="-11" xMax="304" yMax="377">
      <component glyphName="eight.num" x="0" y="-351" flags="0x204"/>
    </TTGlyph>
    <TTGlyph name="eight.inf" xMin="47" yMin="-168" xMax="304" yMax="220">
      <component glyphName="eight.num" x="0" y="-508" flags="0x204"/>
    </TTGlyph>
    <TTGlyph name="eight.num" xMin="47" yMin="340" xMax="304" yMax="728">
      <contour>
        <pt x="47" y="441" on="1"/>
        <pt x="47" y="474" on="0"/>
        <pt x="87" y="527" on="0"/>
        <pt x="125" y="547" on="1"/>
        <pt x="61" y="578" on="0"/>
        <pt x="61" y="635" on="1"/>
        <pt x="61" y="675" on="0"/>
        <pt x="126" y="728" on="0"/>
        <pt x="177" y="728" on="1"/>
        <pt x="229" y="728" on="0"/>
        <pt x="293" y="677" on="0"/>
        <pt x="293" y="636" on="1"/>
        <pt x="293" y="604" on="0"/>
        <pt x="254" y="559" on="0"/>
        <pt x="225" y="542" on="1"/>
        <pt x="304" y="507" on="0"/>
        <pt x="304" y="442" on="1"/>
        <pt x="304" y="420" on="0"/>
        <pt x="285" y="383" on="0"/>
        <pt x="250" y="356" on="0"/>
        <pt x="203" y="340" on="0"/>
        <pt x="176" y="340" on="1"/>
        <pt x="114" y="340" on="0"/>
        <pt x="47" y="400" on="0"/>
      </contour>
      <contour>
        <pt x="262" y="442" on="1"/>
        <pt x="262" y="475" on="0"/>
        <pt x="212" y="512" on="0"/>
        <pt x="158" y="533" on="1"/>
        <pt x="89" y="499" on="0"/>
        <pt x="89" y="445" on="1"/>
        <pt x="89" y="413" on="0"/>
        <pt x="138" y="375" on="0"/>
        <pt x="177" y="375" on="1"/>
        <pt x="212" y="375" on="0"/>
        <pt x="262" y="410" on="0"/>
      </contour>
      <contour>
        <pt x="103" y="636" on="1"/>
        <pt x="103" y="623" on="0"/>
        <pt x="111" y="602" on="0"/>
        <pt x="132" y="583" on="0"/>
        <pt x="167" y="564" on="0"/>
        <pt x="193" y="554" on="1"/>
        <pt x="219" y="569" on="0"/>
        <pt x="251" y="608" on="0"/>
        <pt x="251" y="634" on="1"/>
        <pt x="251" y="661" on="0"/>
        <pt x="209" y="695" on="0"/>
        <pt x="177" y="695" on="1"/>
        <pt x="142" y="695" on="0"/>
        <pt x="103" y="659" on="0"/>
      </contour>
    </TTGlyph>
    <TTGlyph name="eight.sup" xMin="47" yMin="438" xMax="304" yMax="826">
      <component glyphName="eight.num" x="0" y="98" flags="0x204"/>
    </TTGlyph>
    <TTGlyph name="eight.tab" xMin="57" yMin="-11" xMax="469" yMax="730">
      <contour>
        <pt x="469" y="181" on="1"/>
        <pt x="469" y="140" on="0"/>
        <pt x="438" y="70" on="0"/>
        <pt x="383" y="19" on="0"/>
        <pt x="308" y="-11" on="0"/>
        <pt x="264" y="-11" on="1"/>
        <pt x="215" y="-11" on="0"/>
        <pt x="138" y="20" on="0"/>
        <pt x="85" y="72" on="0"/>
        <pt x="57" y="142" on="0"/>
        <pt x="57" y="181" on="1"/>
        <pt x="57" y="251" on="0"/>
        <pt x="135" y="351" on="0"/>
        <pt x="195" y="387" on="1"/>
        <pt x="138" y="417" on="0"/>
        <pt x="79" y="500" on="0"/>
        <pt x="79" y="556" on="1"/>
        <pt x="79" y="594" on="0"/>
        <pt x="107" y="658" on="0"/>
        <pt x="158" y="704" on="0"/>
        <pt x="226" y="730" on="0"/>
        <pt x="267" y="730" on="1"/>
        <pt x="307" y="730" on="0"/>
        <pt x="375" y="705" on="0"/>
        <pt x="424" y="660" on="0"/>
        <pt x="451" y="598" on="0"/>
        <pt x="451" y="560" on="1"/>
        <pt x="451" y="527" on="0"/>
        <pt x="432" y="471" on="0"/>
        <pt x="400" y="425" on="0"/>
        <pt x="358" y="388" on="0"/>
        <pt x="334" y="372" on="1"/>
        <pt x="400" y="339" on="0"/>
        <pt x="469" y="249" on="0"/>
      </contour>
      <contour>
        <pt x="416" y="181" on="1"/>
        <pt x="416" y="212" on="0"/>
        <pt x="399" y="261" on="0"/>
        <pt x="359" y="303" on="0"/>
        <pt x="290" y="343" on="0"/>
        <pt x="239" y="366" on="1"/>
        <pt x="182" y="336" on="0"/>
        <pt x="111" y="245" on="0"/>
        <pt x="111" y="184" on="1"/>
        <pt x="111" y="151" on="0"/>
        <pt x="133" y="97" on="0"/>
        <pt x="174" y="57" on="0"/>
        <pt x="230" y="35" on="0"/>
        <pt x="265" y="35" on="1"/>
        <pt x="298" y="35" on="0"/>
        <pt x="353" y="57" on="0"/>
        <pt x="394" y="96" on="0"/>
        <pt x="416" y="150" on="0"/>
      </contour>
      <contour>
        <pt x="131" y="559" on="1"/>
        <pt x="131" y="532" on="0"/>
        <pt x="146" y="489" on="0"/>
        <pt x="183" y="450" on="0"/>
        <pt x="244" y="413" on="0"/>
        <pt x="291" y="392" on="1"/>
        <pt x="339" y="422" on="0"/>
        <pt x="398" y="505" on="0"/>
        <pt x="398" y="559" on="1"/>
        <pt x="398" y="613" on="0"/>
        <pt x="325" y="685" on="0"/>
        <pt x="265" y="685" on="1"/>
        <pt x="233" y="685" on="0"/>
        <pt x="184" y="664" on="0"/>
        <pt x="149" y="629" on="0"/>
        <pt x="131" y="584" on="0"/>
      </contour>
    </TTGlyph>
    <TTGlyph name="ellipsis" xMin="75" yMin="0" xMax="551" yMax="90">
      <contour>
        <pt x="486" y="0" on="1"/>
        <pt x="486" y="90" on="1"/>
        <pt x="551" y="90" on="1"/>
        <pt x="551" y="0" on="1"/>
      </contour>
      <contour>
        <pt x="280" y="0" on="1"/>
        <pt x="280" y="90" on="1"/>
        <pt x="345" y="90" on="1"/>
        <pt x="345" y="0" on="1"/>
      </contour>
      <contour>
        <pt x="75" y="0" on="1"/>
        <pt x="75" y="90" on="1"/>
        <pt x="140" y="90" on="1"/>
        <pt x="140" y="0" on="1"/>
      </contour>
    </TTGlyph>
    <TTGlyph name="emacron" xMin="54" yMin="-10" xMax="439" yMax="682">
      <component glyphName="e" x="0" y="0" flags="0x204"/>
      <component glyphName="macron" x="19" y="0" flags="0x4"/>
    </TTGlyph>
    <TTGlyph name="emdash" xMin="63" yMin="292" xMax="859" yMax="340">
      <contour>
        <pt x="63" y="292" on="1"/>
        <pt x="63" y="340" on="1"/>
        <pt x="859" y="340" on="1"/>
        <pt x="859" y="292" on="1"/>
      </contour>
    </TTGlyph>
    <TTGlyph name="endash" xMin="63" yMin="292" xMax="402" yMax="340">
      <contour>
        <pt x="63" y="292" on="1"/>
        <pt x="63" y="340" on="1"/>
        <pt x="402" y="340" on="1"/>
        <pt x="402" y="292" on="1"/>
      </contour>
    </TTGlyph>
</ttFont>
